<?xml version="1.0" encoding="UTF-8"?>
<!DOCTYPE svg PUBLIC "-//W3C//DTD SVG 1.1//EN" "http://www.w3.org/Graphics/SVG/1.1/DTD/svg11.dtd">
<!-- Creator: CorelDRAW -->
<svg xmlns="http://www.w3.org/2000/svg" xml:space="preserve" width="282mm" height="75mm" shape-rendering="geometricPrecision" text-rendering="geometricPrecision" image-rendering="optimizeQuality" fill-rule="evenodd" clip-rule="evenodd"
viewBox="0 0 282 75"
 xmlns:xlink="http://www.w3.org/1999/xlink">
 <g id="Layer_x0020_1">
  <metadata id="CorelCorpID_0Corel-Layer"/>
  <path fill="white" stroke="white" stroke-width="0.2" d="M40.0879 31.6284c-2.1038,0 -3.7648,1.8038 -3.7648,4.0494 0,2.2456 1.6979,4.0494 3.7648,4.0494 2.1039,0 3.7649,-1.8038 3.7649,-4.0494 0,-2.2456 -1.6979,-4.0494 -3.7649,-4.0494zm-13.4721 0c-2.1039,0 -3.7649,1.8038 -3.7649,4.0494 0,2.2456 1.6979,4.0494 3.7649,4.0494 2.1039,0 3.7649,-1.8038 3.7649,-4.0494 0.0369,-2.2455 -1.6609,-4.0494 -3.7649,-4.0494zm31.4105 -30.6284l-49.4597 0c-4.1709,0 -7.5666,3.3868 -7.5666,7.5467l0 49.3292c0,4.1598 3.3957,7.5466 7.5666,7.5466l41.8562 0 -1.9562 -6.7368 4.7245 4.344 4.4662 4.0862 7.9726 6.8841 0 -65.4533c-0.0369,-4.1599 -3.4327,-7.5467 -7.6036,-7.5467zm-14.2473 47.6726c0,0 -1.3288,-1.583 -2.4362,-2.9451 4.8353,-1.362 6.6808,-4.3439 6.6808,-4.3439 -1.5133,0.9939 -2.9528,1.6934 -4.2447,2.172 -1.8456,0.773 -3.6173,1.2516 -5.352,1.5829 -3.5433,0.6627 -6.7914,0.4786 -9.5597,-0.0367 -2.1039,-0.405 -3.9125,-0.9572 -5.4258,-1.583 -0.849,-0.3313 -1.7717,-0.7363 -2.6945,-1.2517 -0.1107,-0.0737 -0.2215,-0.1105 -0.3321,-0.1841 -0.0739,-0.0367 -0.1108,-0.0736 -0.1477,-0.0736 -0.6644,-0.3682 -1.0335,-0.6258 -1.0335,-0.6258 0,0 1.7717,2.9082 6.4594,4.3071 -1.1074,1.3989 -2.473,3.0187 -2.473,3.0187 -8.1572,-0.2577 -11.2577,-5.5588 -11.2577,-5.5588 0,-11.7432 5.3151,-21.2778 5.3151,-21.2778 5.3151,-3.939 10.3349,-3.8286 10.3349,-3.8286l0.3692 0.4418c-6.6439,1.8775 -9.6706,4.7857 -9.6706,4.7857 0,0 0.8121,-0.4417 2.1777,-1.0307 3.9495,-1.7303 7.0868,-2.172 8.3787,-2.3193 0.2215,-0.0368 0.406,-0.0736 0.6275,-0.0736 2.2515,-0.2945 4.7984,-0.3682 7.4559,-0.0737 3.5064,0.4049 7.2712,1.4357 11.1099,3.4972 0,0 -2.916,-2.761 -9.1907,-4.6384l0.5168 -0.5891c0,0 5.0567,-0.1104 10.3349,3.8286 0,0 5.3151,9.5346 5.3151,21.2778 0,-0.0368 -3.1005,5.2643 -11.2576,5.522l-0.0001 0.0001zm60.4232 -9.6276c-0.3003,0.7342 -0.7285,1.3185 -1.2768,1.7604 -0.5484,0.4345 -1.1567,0.7417 -1.8327,0.9215 -0.6685,0.1723 -1.3521,0.2248 -2.0355,0.1572 -0.6836,-0.0673 -1.3144,-0.2471 -1.8853,-0.5318 -0.5785,-0.2772 -1.0441,-0.6593 -1.3972,-1.1313 -0.353,-0.4719 -0.5332,-1.0337 -0.5407,-1.6704 0,-0.0076 0,-0.2098 0,-0.6069 0,-0.397 0,-0.9139 0,-1.5656 0,-0.6518 0,-1.3634 0,-2.1426 0,-0.7791 0,-1.5581 0,-2.3373 0,-0.779 0,-1.4908 0,-2.1425 0,-0.6517 0,-1.1687 0,-1.5657 0,-0.397 0,-0.5993 0,-0.6068 0.0075,-0.6591 0.1877,-1.2285 0.5407,-1.7156 0.3455,-0.4793 0.8112,-0.8688 1.382,-1.1535 0.5784,-0.2922 1.2169,-0.4721 1.9078,-0.547 0.6912,-0.0747 1.3896,-0.0373 2.0883,0.1124 0.6909,0.1499 1.3369,0.427 1.9228,0.8241 0.5934,0.397 1.0741,0.9214 1.4421,1.5807 0.0076,-0.0075 0.1728,-0.0675 0.4883,-0.1949 0.3154,-0.1274 0.721,-0.2921 1.2168,-0.4944 0.4957,-0.2022 1.029,-0.412 1.5849,-0.6367 0.5557,-0.2247 1.089,-0.4345 1.5847,-0.6368 0.4958,-0.2022 0.9014,-0.3671 1.217,-0.4944 0.3154,-0.1274 0.4806,-0.1873 0.4881,-0.1948 -0.6535,-1.4084 -1.4122,-2.5845 -2.2834,-3.5359 -0.8788,-0.9439 -1.8176,-1.693 -2.8167,-2.2548 -1.0064,-0.5545 -2.0355,-0.9515 -3.072,-1.1912 -1.0441,-0.2323 -2.0581,-0.3521 -3.0495,-0.3446 -1.2919,0 -2.5463,0.1498 -3.7782,0.442 -1.2318,0.2922 -2.3885,0.7341 -3.4627,1.3186 -1.0739,0.5842 -2.0204,1.3109 -2.8392,2.1799 -0.8187,0.8765 -1.4571,1.8878 -1.9228,3.0414 -0.4657,1.1612 -0.6984,2.4572 -0.706,3.8955 0,0.0075 0,0.2098 0,0.6068 0,0.397 0,0.914 0,1.5657 0,0.6517 0,1.3635 0,2.1425 0,0.7792 0,1.5582 0,2.3373 0,0.7792 0,1.4908 0,2.1426 0,0.6517 0,1.1686 0,1.5656 0,0.3971 0,0.5993 0,0.6069 0.0076,1.4458 0.2403,2.7493 0.706,3.9104 0.4657,1.1611 1.1041,2.1724 1.9154,3.0415 0.8187,0.8764 1.7575,1.6032 2.8167,2.18 1.0666,0.5843 2.2082,1.0187 3.4251,1.311 1.2092,0.2921 2.4485,0.4344 3.7104,0.4344 1.0141,0 2.0506,-0.1272 3.1172,-0.3895 1.059,-0.2622 2.1107,-0.6817 3.1396,-1.2436 1.0215,-0.5694 1.983,-1.3034 2.8843,-2.2174 0.8938,-0.9064 1.6751,-2.0078 2.351,-3.2961 -0.0075,-0.0076 -0.1878,-0.0825 -0.5182,-0.2398 -0.338,-0.1574 -0.7737,-0.3521 -1.3069,-0.5993 -0.5259,-0.2472 -1.0968,-0.502 -1.69,-0.7791 -0.5935,-0.2772 -1.1643,-0.5319 -1.6902,-0.7791 -0.5332,-0.2472 -0.9688,-0.4421 -1.3069,-0.5993 -0.3305,-0.1574 -0.5107,-0.2323 -0.5183,-0.2397zm9.1938 -0.5394c0.0074,1.4534 0.2554,2.7643 0.7435,3.9329 0.4807,1.1613 1.1567,2.18 2.013,3.0565 0.8563,0.8766 1.8478,1.6032 2.9669,2.1875 1.1193,0.5768 2.3211,1.0187 3.6054,1.311 1.2769,0.2921 2.5839,0.4344 3.9208,0.4344 1.337,0 2.6366,-0.1423 3.9208,-0.4344 1.277,-0.2923 2.4712,-0.7342 3.5904,-1.311 1.1191,-0.5843 2.1031,-1.3109 2.9519,-2.1875 0.8563,-0.8765 1.5248,-1.8952 2.0055,-3.0565 0.4807,-1.1686 0.7285,-2.4795 0.736,-3.9329 0,-0.0075 0,-0.2097 0,-0.5993 0,-0.397 0,-0.9139 0,-1.5581 0,-0.6444 0,-1.3486 0,-2.1202 0,-0.7716 0,-1.5506 0,-2.3223 0,-0.7716 0,-1.4758 0,-2.1201 0,-0.6441 0,-1.1611 0,-1.5582 0,-0.3896 0,-0.5918 0,-0.5992 -0.0075,-1.4533 -0.2553,-2.7644 -0.7435,-3.9331 -0.4808,-1.161 -1.1568,-2.1799 -2.0131,-3.0563 -0.8562,-0.8764 -1.8476,-1.6032 -2.9668,-2.1876 -1.1192,-0.5767 -2.3209,-1.0188 -3.6055,-1.311 -1.2767,-0.2921 -2.5837,-0.4344 -3.9207,-0.4344 -1.337,0 -2.6364,0.1423 -3.9209,0.4344 -1.2768,0.2848 -2.4712,0.7193 -3.5904,1.3037 -1.119,0.5767 -2.103,1.3033 -2.9518,2.1724 -0.8562,0.8764 -1.5247,1.8953 -2.0055,3.064 -0.4806,1.1686 -0.7286,2.4794 -0.736,3.9479 0,0.0074 0,0.2096 0,0.5992 0,0.3971 0,0.9141 0,1.5582 0,0.6443 0,1.3485 0,2.1201 0,0.7717 0,1.5507 0,2.3223 0,0.7716 0,1.4758 0,2.1202 0,0.6442 0,1.1611 0,1.5581 0,0.3896 0,0.5918 0,0.5993zm8.067 -10.8774c0.0075,-0.5844 0.1501,-1.1013 0.4356,-1.5508 0.2779,-0.4419 0.6611,-0.8164 1.1417,-1.1236 0.4807,-0.3072 1.0216,-0.5319 1.615,-0.6893 0.6008,-0.1573 1.2167,-0.2322 1.8552,-0.2322 0.6609,0 1.2994,0.0674 1.9302,0.2173 0.6235,0.1422 1.1869,0.3596 1.6901,0.6517 0.4957,0.2997 0.9014,0.6668 1.1943,1.1237 0.3005,0.4496 0.4507,0.9889 0.4582,1.6032 0,0.0074 0,0.2096 0,0.5992 0,0.3971 0,0.9141 0,1.5582 0,0.6443 0,1.3485 0,2.1201 0,0.7717 0,1.5507 0,2.3223 0,0.7716 0,1.4758 0,2.1202 0,0.6442 0,1.1611 0,1.5581 0,0.3896 0,0.5918 0,0.5993 -0.0075,0.5768 -0.1502,1.0787 -0.4432,1.5057 -0.2854,0.4345 -0.676,0.7941 -1.1641,1.0862 -0.4884,0.2848 -1.0367,0.5019 -1.645,0.6519 -0.6084,0.1423 -1.2394,0.2172 -1.8854,0.2172 -0.646,0 -1.2769,-0.0674 -1.8928,-0.2099 -0.6159,-0.1422 -1.1643,-0.3594 -1.66,-0.644 -0.4957,-0.2848 -0.8863,-0.6444 -1.1792,-1.0789 -0.2929,-0.4345 -0.4431,-0.944 -0.4506,-1.5282 0,-0.0075 0,-0.2097 0,-0.5993 0,-0.397 0,-0.9139 0,-1.5581 0,-0.6444 0,-1.3486 0,-2.1202 0,-0.7716 0,-1.5506 0,-2.3223 0,-0.7716 0,-1.4758 0,-2.1201 0,-0.6441 0,-1.1611 0,-1.5582 0,-0.3896 0,-0.5918 0,-0.5992zm22.6686 21.3503c0.015,0 0.2103,0 0.6008,0 0.3831,0 0.8789,0 1.4873,0 0.616,0 1.2618,0 1.9453,0 0.6836,0 1.3296,0 1.9455,0 0.6084,0 1.1041,0 1.4872,0 0.3906,0 0.5858,0 0.601,0 0,-0.015 0,-0.2471 0,-0.7041 0,-0.4571 0,-1.0638 0,-1.8205 0,-0.7492 0,-1.5806 0,-2.4796 0,-0.9065 0,-1.8055 0,-2.712 0,-0.8988 0,-1.7303 0,-2.4795 0,-0.7567 0,-1.3634 0,-1.8204 0,-0.457 0,-0.6892 0,-0.7043 0,-0.0074 -0.0302,-0.1648 -0.0752,-0.4569 -0.0526,-0.2922 -0.1127,-0.6742 -0.1954,-1.1386 -0.075,-0.4645 -0.1576,-0.9589 -0.2477,-1.4834 -0.0902,-0.5243 -0.1729,-1.0187 -0.248,-1.4833 -0.0826,-0.4644 -0.1426,-0.8465 -0.1952,-1.1386 -0.0451,-0.2922 -0.0752,-0.4495 -0.0752,-0.457 0.0075,0 0.0451,-0.0075 0.1126,-0.0224 0.0676,-0.015 0.1052,-0.0225 0.1127,-0.0225 0.0076,0.0075 0.0751,0.1647 0.2104,0.4719 0.1278,0.3071 0.3004,0.6967 0.5108,1.1837 0.2178,0.4793 0.4357,0.9963 0.676,1.5357 0.2404,0.5394 0.4582,1.0563 0.6759,1.5356 0.2103,0.487 0.3831,0.8765 0.5109,1.1837 0.1351,0.3072 0.2028,0.4645 0.2102,0.472 0.0075,0.015 0.1428,0.2472 0.3981,0.6966 0.2628,0.4495 0.601,1.0489 1.029,1.7904 0.4281,0.7418 0.9014,1.5583 1.4121,2.4497 0.5107,0.8916 1.0217,1.7755 1.5323,2.667 0.5108,0.8914 0.984,1.7081 1.4122,2.4497 0.428,0.7417 0.766,1.3409 1.0289,1.7904 0.2554,0.4496 0.3906,0.6817 0.3982,0.6967 0.0074,0 0.1577,0 0.4506,0 0.293,0 0.6835,0 1.1642,0 0.4884,0 1.0141,0 1.5923,0 0.5785,0 1.1644,0 1.7427,0 0.5783,0 1.1042,0 1.5922,0 0.4808,0 0.8715,0 1.1644,0 0.2929,0 0.4432,0 0.4506,0 0,-0.0076 0,-0.3072 0,-0.8915 0,-0.5843 0,-1.3859 0,-2.4197 0,-1.0263 0,-2.2173 0,-3.5658 0,-1.341 0,-2.7869 0,-4.3226 0,-1.5432 0,-3.1089 0,-4.712 0,-1.6032 0,-3.1689 0,-4.7121 0,-1.5357 0,-2.9816 0,-4.3225 0,-1.3484 0,-2.5396 0,-3.5658 0,-1.0338 0,-1.8354 0,-2.4198 0,-0.5842 0,-0.884 0,-0.8914 -0.015,0 -0.2102,0 -0.5933,0 -0.3832,0 -0.8788,0 -1.4873,0 -0.6083,0 -1.2468,0 -1.9303,0 -0.6835,0 -1.322,0 -1.9303,0 -0.6085,0 -1.1043,0 -1.4872,0 -0.3831,0 -0.5785,0 -0.5935,0 0,0.0074 0,0.2171 0,0.6217 0,0.4046 0,0.9439 0,1.6332 0,0.6817 0,1.4532 0,2.3073 0,0.8614 0,1.738 0,2.6518 0,0.9141 0,1.7904 0,2.652 0,0.8541 0,1.6257 0,2.3075 0,0.689 0,1.2285 0,1.633 0,0.4045 0,0.6143 0,0.6218 0.0076,0.0075 0.0376,0.1424 0.0827,0.4044 0.0375,0.2624 0.0976,0.5994 0.1577,1.0189 0.0676,0.4121 0.1352,0.8542 0.2103,1.3185 0.0751,0.4646 0.1428,0.9065 0.2103,1.3185 0.0602,0.4196 0.1203,0.7567 0.1577,1.0188 0.0451,0.2622 0.0751,0.397 0.0827,0.4045 -0.0076,0 -0.0451,0.0076 -0.1127,0.0225 -0.0675,0.0151 -0.1052,0.0225 -0.1126,0.0225 -0.0075,-0.0074 -0.0676,-0.1648 -0.2028,-0.4719 -0.1278,-0.3072 -0.293,-0.6967 -0.4959,-1.1838 -0.2101,-0.4793 -0.4205,-0.9962 -0.6534,-1.5357 -0.2328,-0.5393 -0.4431,-1.0562 -0.6534,-1.5355 -0.2028,-0.4871 -0.3681,-0.8766 -0.4957,-1.1838 -0.1353,-0.3071 -0.1953,-0.4645 -0.2028,-0.4719 -0.0077,-0.0074 -0.1127,-0.2023 -0.3306,-0.5843 -0.2177,-0.3821 -0.5107,-0.8915 -0.8713,-1.5358 -0.368,-0.6442 -0.7812,-1.3709 -1.2393,-2.1725 -0.4507,-0.809 -0.9238,-1.6405 -1.4122,-2.4946 -0.488,-0.8539 -0.9614,-1.6855 -1.412,-2.4946 -0.4582,-0.8015 -0.8712,-1.5282 -1.2394,-2.1725 -0.3605,-0.6442 -0.6535,-1.1537 -0.8712,-1.5357 -0.2178,-0.382 -0.3231,-0.5769 -0.3305,-0.5843 -0.015,0 -0.2028,0 -0.5709,0 -0.3605,0 -0.8337,0 -1.412,0 -0.5859,0 -1.1944,0 -1.8478,0 -0.6535,0 -1.2619,0 -1.8477,0 -0.5785,0 -1.0516,0 -1.4121,0 -0.3681,0 -0.5559,0 -0.5709,0 0,0.0074 0,0.3072 0,0.8914 0,0.5844 0,1.386 0,2.4198 0,1.0262 0,2.2174 0,3.5658 0,1.3409 0,2.7868 0,4.3225 0,1.5432 0,3.1089 0,4.7121 0,1.6031 0,3.1688 0,4.712 0,1.5357 0,2.9816 0,4.3226 0,1.3485 0,2.5395 0,3.5658 0,1.0338 0,1.8354 0,2.4197 0,0.5843 0,0.8839 0,0.8915zm30.4652 0c0.015,0 0.2104,0 0.6009,0 0.3831,0 0.8788,0 1.4872,0 0.616,0 1.2619,0 1.9454,0 0.6836,0 1.3294,0 1.9454,0 0.6084,0 1.1041,0 1.4872,0 0.3906,0 0.5859,0 0.6009,0 0,-0.015 0,-0.2471 0,-0.7041 0,-0.4571 0,-1.0638 0,-1.8205 0,-0.7492 0,-1.5806 0,-2.4796 0,-0.9065 0,-1.8055 0,-2.712 0,-0.8988 0,-1.7303 0,-2.4795 0,-0.7567 0,-1.3634 0,-1.8204 0,-0.457 0,-0.6892 0,-0.7043 0,-0.0074 -0.0301,-0.1648 -0.0751,-0.4569 -0.0526,-0.2922 -0.1126,-0.6742 -0.1954,-1.1386 -0.0749,-0.4645 -0.1576,-0.9589 -0.2478,-1.4834 -0.0901,-0.5243 -0.1727,-1.0187 -0.2478,-1.4833 -0.0826,-0.4644 -0.1428,-0.8465 -0.1953,-1.1386 -0.045,-0.2922 -0.0752,-0.4495 -0.0752,-0.457 0.0077,0 0.0451,-0.0075 0.1127,-0.0224 0.0675,-0.015 0.1052,-0.0225 0.1127,-0.0225 0.0075,0.0075 0.0751,0.1647 0.2103,0.4719 0.1277,0.3071 0.3005,0.6967 0.5108,1.1837 0.2178,0.4793 0.4357,0.9963 0.6761,1.5357 0.2403,0.5394 0.4581,1.0563 0.6759,1.5356 0.2103,0.487 0.3831,0.8765 0.5108,1.1837 0.1352,0.3072 0.2027,0.4645 0.2102,0.472 0.0076,0.015 0.1428,0.2472 0.3982,0.6966 0.2628,0.4495 0.6008,1.0489 1.0289,1.7904 0.4282,0.7418 0.9014,1.5583 1.4121,2.4497 0.5108,0.8916 1.0216,1.7755 1.5324,2.667 0.5107,0.8914 0.984,1.7081 1.4121,2.4497 0.4281,0.7417 0.7661,1.3409 1.029,1.7904 0.2553,0.4496 0.3905,0.6817 0.3981,0.6967 0.0075,0 0.1577,0 0.4507,0 0.2929,0 0.6835,0 1.1641,0 0.4883,0 1.014,0 1.5924,0 0.5784,0 1.1644,0 1.7426,0 0.5784,0 1.1042,0 1.5923,0 0.4808,0 0.8715,0 1.1644,0 0.2929,0 0.4431,0 0.4505,0 0,-0.0076 0,-0.3072 0,-0.8915 0,-0.5843 0,-1.3859 0,-2.4197 0,-1.0263 0,-2.2173 0,-3.5658 0,-1.341 0,-2.7869 0,-4.3226 0,-1.5432 0,-3.1089 0,-4.712 0,-1.6032 0,-3.1689 0,-4.7121 0,-1.5357 0,-2.9816 0,-4.3225 0,-1.3484 0,-2.5396 0,-3.5658 0,-1.0338 0,-1.8354 0,-2.4198 0,-0.5842 0,-0.884 0,-0.8914 -0.0149,0 -0.2102,0 -0.5933,0 -0.3831,0 -0.8787,0 -1.4872,0 -0.6084,0 -1.2469,0 -1.9303,0 -0.6834,0 -1.322,0 -1.9304,0 -0.6085,0 -1.1042,0 -1.4872,0 -0.383,0 -0.5785,0 -0.5935,0 0,0.0074 0,0.2171 0,0.6217 0,0.4046 0,0.9439 0,1.6332 0,0.6817 0,1.4532 0,2.3073 0,0.8614 0,1.738 0,2.6518 0,0.9141 0,1.7904 0,2.652 0,0.8541 0,1.6257 0,2.3075 0,0.689 0,1.2285 0,1.633 0,0.4045 0,0.6143 0,0.6218 0.0077,0.0075 0.0376,0.1424 0.0827,0.4044 0.0376,0.2624 0.0976,0.5994 0.1577,1.0189 0.0676,0.4121 0.1352,0.8542 0.2104,1.3185 0.0751,0.4646 0.1427,0.9065 0.2103,1.3185 0.06,0.4196 0.1203,0.7567 0.1577,1.0188 0.0451,0.2622 0.0751,0.397 0.0826,0.4045 -0.0075,0 -0.0452,0.0076 -0.1127,0.0225 -0.0676,0.0151 -0.1051,0.0225 -0.1127,0.0225 -0.0074,-0.0074 -0.0675,-0.1648 -0.2027,-0.4719 -0.1277,-0.3072 -0.293,-0.6967 -0.4958,-1.1838 -0.2103,-0.4793 -0.4206,-0.9962 -0.6535,-1.5357 -0.2328,-0.5393 -0.4432,-1.0562 -0.6535,-1.5355 -0.2028,-0.4871 -0.3679,-0.8766 -0.4957,-1.1838 -0.1352,-0.3071 -0.1951,-0.4645 -0.2028,-0.4719 -0.0075,-0.0074 -0.1126,-0.2023 -0.3304,-0.5843 -0.2179,-0.3821 -0.5108,-0.8915 -0.8713,-1.5358 -0.3681,-0.6442 -0.7812,-1.3709 -1.2394,-2.1725 -0.4507,-0.809 -0.9238,-1.6405 -1.4121,-2.4946 -0.4882,-0.8539 -0.9614,-1.6855 -1.412,-2.4946 -0.4582,-0.8015 -0.8714,-1.5282 -1.2395,-2.1725 -0.3605,-0.6442 -0.6534,-1.1537 -0.8712,-1.5357 -0.2178,-0.382 -0.323,-0.5769 -0.3305,-0.5843 -0.015,0 -0.2028,0 -0.5709,0 -0.3605,0 -0.8336,0 -1.412,0 -0.5859,0 -1.1944,0 -1.8478,0 -0.6534,0 -1.2619,0 -1.8477,0 -0.5784,0 -1.0516,0 -1.4121,0 -0.3681,0 -0.5559,0 -0.5709,0 0,0.0074 0,0.3072 0,0.8914 0,0.5844 0,1.386 0,2.4198 0,1.0262 0,2.2174 0,3.5658 0,1.3409 0,2.7868 0,4.3225 0,1.5432 0,3.1089 0,4.7121 0,1.6031 0,3.1688 0,4.712 0,1.5357 0,2.9816 0,4.3226 0,1.3485 0,2.5395 0,3.5658 0,1.0338 0,1.8354 0,2.4197 0,0.5843 0,0.8839 0,0.8915zm38.6223 -24.272c0.0076,0 0.2104,0 0.601,0 0.398,0 0.9313,0 1.5998,0 0.661,0 1.4121,0 2.246,0 0.8336,0 1.6974,0 2.5838,0 0.8862,0 1.75,0 2.5838,0 0.8338,0 1.5848,0 2.2533,0 0.6611,0 1.1943,0 1.5925,0 0.3905,0 0.5932,0 0.6009,0 0,-0.0149 0,-0.1947 0,-0.5618 0,-0.3596 0,-0.824 0,-1.3934 0,-0.5768 0,-1.1761 0,-1.8203 0,-0.6444 0,-1.2436 0,-1.8206 0,-0.5693 0,-1.0336 0,-1.3932 0,-0.3672 0,-0.5468 0,-0.5619 -0.0077,0 -0.263,0 -0.7587,0 -0.5033,0 -1.1793,0 -2.043,0 -0.8638,0 -1.8478,0 -2.9594,0 -1.1042,0 -2.276,0 -3.5078,0 -1.2243,0 -2.4562,0 -3.6805,0 -1.2319,0 -2.4035,0 -3.5076,0 -1.1118,0 -2.0956,0 -2.9595,0 -0.8638,0 -1.5398,0 -2.0429,0 -0.4958,0 -0.7512,0 -0.7588,0 0,0.0074 0,0.3072 0,0.8914 0,0.5844 0,1.386 0,2.4198 0,1.0262 0,2.2174 0,3.5658 0,1.3409 0,2.7868 0,4.3225 0,1.5432 0,3.1089 0,4.7121 0,1.6031 0,3.1688 0,4.712 0,1.5357 0,2.9816 0,4.3226 0,1.3485 0,2.5395 0,3.5658 0,1.0338 0,1.8354 0,2.4197 0,0.5843 0,0.8839 0,0.8915 0.0076,0 0.263,0 0.7588,0 0.5031,0 1.1791,0 2.0429,0 0.8639,0 1.8477,0 2.9595,0 1.1041,0 2.2757,0 3.5076,0 1.2243,0 2.4562,0 3.6805,0 1.2318,0 2.4036,0 3.5078,0 1.1116,0 2.0956,0 2.9594,0 0.8637,0 1.5397,0 2.043,0 0.4957,0 0.751,0 0.7587,0 0,-0.015 0,-0.2023 0,-0.5619 0,-0.367 0,-0.8316 0,-1.4083 0,-0.5769 0,-1.1837 0,-1.8279 0,-0.6443 0,-1.2511 0,-1.8279 0,-0.5768 0,-1.0413 0,-1.4084 0,-0.3595 0,-0.5468 0,-0.5618 -0.0077,0 -0.2104,0 -0.6009,0 -0.3982,0 -0.9314,0 -1.5925,0 -0.6685,0 -1.4195,0 -2.2533,0 -0.8338,0 -1.6976,0 -2.5838,0 -0.8864,0 -1.7502,0 -2.5838,0 -0.8339,0 -1.585,0 -2.246,0 -0.6685,0 -1.2018,0 -1.5998,0 -0.3906,0 -0.5934,0 -0.601,0 0,-0.0076 0,-0.1274 0,-0.3522 0,-0.2322 0,-0.5243 0,-0.8839 0,-0.3597 0,-0.7416 0,-1.1462 0,-0.4046 0,-0.7865 0,-1.1461 0,-0.3597 0,-0.6518 0,-0.884 0,-0.2248 0,-0.3447 0,-0.3521 0.0076,0 0.1954,0 0.5559,0 0.3606,0 0.8488,0 1.4646,0 0.616,0 1.3071,0 2.0731,0 0.7662,0 1.5549,0 2.3736,0 0.8188,0 1.6074,0 2.3735,0 0.7662,0 1.4571,0 2.0732,0 0.6158,0 1.1039,0 1.4646,0 0.3605,0 0.5483,0 0.5557,0 0,-0.0076 0,-0.1798 0,-0.5169 0,-0.3297 0,-0.7641 0,-1.2885 0,-0.5245 0,-1.0862 0,-1.678 0,-0.5919 0,-1.1537 0,-1.6782 0,-0.5243 0,-0.9588 0,-1.2884 0,-0.3372 0,-0.5094 0,-0.5171 -0.0074,0 -0.1952,0 -0.5557,0 -0.3607,0 -0.8488,0 -1.4646,0 -0.6161,0 -1.307,0 -2.0732,0 -0.7661,0 -1.5547,0 -2.3735,0 -0.8187,0 -1.6074,0 -2.3736,0 -0.766,0 -1.4571,0 -2.0731,0 -0.6158,0 -1.104,0 -1.4646,0 -0.3605,0 -0.5483,0 -0.5559,0 0,-0.0073 0,-0.1273 0,-0.3669 0,-0.2323 0,-0.5395 0,-0.914 0,-0.3746 0,-0.7716 0,-1.1911 0,-0.4194 0,-0.8167 0,-1.1911 0,-0.3746 0,-0.6817 0,-0.9139 0,-0.2398 0,-0.3596 0,-0.3672zm34.6115 14.3385c-0.3004,0.7342 -0.7285,1.3185 -1.2768,1.7604 -0.5485,0.4345 -1.1568,0.7417 -1.8328,0.9215 -0.6685,0.1723 -1.352,0.2248 -2.0354,0.1572 -0.6837,-0.0673 -1.3146,-0.2471 -1.8854,-0.5318 -0.5784,-0.2772 -1.044,-0.6593 -1.3972,-1.1313 -0.3529,-0.4719 -0.5332,-1.0337 -0.5406,-1.6704 0,-0.0076 0,-0.2098 0,-0.6069 0,-0.397 0,-0.9139 0,-1.5656 0,-0.6518 0,-1.3634 0,-2.1426 0,-0.7791 0,-1.5581 0,-2.3373 0,-0.779 0,-1.4908 0,-2.1425 0,-0.6517 0,-1.1687 0,-1.5657 0,-0.397 0,-0.5993 0,-0.6068 0.0074,-0.6591 0.1877,-1.2285 0.5406,-1.7156 0.3456,-0.4793 0.8113,-0.8688 1.3821,-1.1535 0.5784,-0.2922 1.2168,-0.4721 1.9078,-0.547 0.6912,-0.0747 1.3895,-0.0373 2.0882,0.1124 0.691,0.1499 1.337,0.427 1.9228,0.8241 0.5934,0.397 1.0742,0.9214 1.4422,1.5807 0.0075,-0.0075 0.1728,-0.0675 0.4883,-0.1949 0.3154,-0.1274 0.7209,-0.2921 1.2168,-0.4944 0.4957,-0.2022 1.0289,-0.412 1.5849,-0.6367 0.5557,-0.2247 1.0889,-0.4345 1.5847,-0.6368 0.4958,-0.2022 0.9013,-0.3671 1.2168,-0.4944 0.3156,-0.1274 0.4808,-0.1873 0.4882,-0.1948 -0.6534,-1.4084 -1.4121,-2.5845 -2.2834,-3.5359 -0.8788,-0.9439 -1.8177,-1.693 -2.8166,-2.2548 -1.0065,-0.5545 -2.0355,-0.9515 -3.072,-1.1912 -1.0442,-0.2323 -2.0582,-0.3521 -3.0496,-0.3446 -1.292,0 -2.5463,0.1498 -3.7781,0.442 -1.2319,0.2922 -2.3885,0.7341 -3.4628,1.3186 -1.0739,0.5842 -2.0203,1.3109 -2.8392,2.1799 -0.8186,0.8765 -1.4571,1.8878 -1.9228,3.0414 -0.4657,1.1612 -0.6985,2.4572 -0.706,3.8955 0,0.0075 0,0.2098 0,0.6068 0,0.397 0,0.914 0,1.5657 0,0.6517 0,1.3635 0,2.1425 0,0.7792 0,1.5582 0,2.3373 0,0.7792 0,1.4908 0,2.1426 0,0.6517 0,1.1686 0,1.5656 0,0.3971 0,0.5993 0,0.6069 0.0075,1.4458 0.2403,2.7493 0.706,3.9104 0.4657,1.1611 1.1042,2.1724 1.9155,3.0415 0.8186,0.8764 1.7575,1.6032 2.8166,2.18 1.0666,0.5843 2.2082,1.0187 3.4251,1.311 1.2093,0.2921 2.4485,0.4344 3.7105,0.4344 1.014,0 2.0506,-0.1272 3.1171,-0.3895 1.0591,-0.2622 2.1107,-0.6817 3.1397,-1.2436 1.0214,-0.5694 1.9829,-1.3034 2.8843,-2.2174 0.8937,-0.9064 1.675,-2.0078 2.3509,-3.2961 -0.0075,-0.0076 -0.1878,-0.0825 -0.5182,-0.2398 -0.338,-0.1574 -0.7736,-0.3521 -1.3069,-0.5993 -0.5258,-0.2472 -1.0967,-0.502 -1.69,-0.7791 -0.5935,-0.2772 -1.1643,-0.5319 -1.6901,-0.7791 -0.5333,-0.2472 -0.9689,-0.4421 -1.3069,-0.5993 -0.3305,-0.1574 -0.5108,-0.2323 -0.5183,-0.2397zm33.1694 -14.2935c0,-0.015 0,-0.2023 0,-0.5693 0,-0.3596 0,-0.8316 0,-1.4084 0,-0.5844 0,-1.1912 0,-1.8428 0,-0.6518 0,-1.2587 0,-1.8429 0,-0.5769 0,-1.0488 0,-1.4085 0,-0.3669 0,-0.5543 0,-0.5692 -0.015,0 -0.3006,0 -0.8639,0 -0.5558,0 -1.3294,0 -2.306,0 -0.9764,0 -2.088,0 -3.3349,0 -1.2544,0 -2.5763,0 -3.9657,0 -1.3897,0 -2.7717,0 -4.1613,0 -1.3895,0 -2.7115,0 -3.9659,0 -1.2469,0 -2.3585,0 -3.335,0 -0.9763,0 -1.75,0 -2.306,0 -0.5632,0 -0.8486,0 -0.8637,0 0,0.0149 0,0.2023 0,0.5692 0,0.3597 0,0.8316 0,1.4085 0,0.5842 0,1.1911 0,1.8429 0,0.6516 0,1.2584 0,1.8428 0,0.5768 0,1.0488 0,1.4084 0,0.367 0,0.5543 0,0.5693 0.0076,0 0.1653,0 0.4657,0 0.3079,0 0.7136,0 1.2168,0 0.4958,0 1.0516,0 1.6525,0 0.6009,0 1.2018,0 1.8026,0 0.6009,0 1.1568,0 1.6526,0 0.5032,0 0.9088,0 1.2166,0 0.3006,0 0.4583,0 0.4658,0 0,0.0074 0,0.2847 0,0.8315 0,0.5394 0,1.2811 0,2.225 0,0.9439 0,2.0152 0,3.2213 0,1.2135 0,2.4871 0,3.828 0,1.341 0,2.6744 0,4.0154 0,1.3409 0,2.6144 0,3.8281 0,1.206 0,2.2773 0,3.2212 0,0.944 0,1.6855 0,2.2249 0,0.5469 0,0.824 0,0.8316 0.0075,0 0.1577,0 0.4507,0 0.2929,0 0.6835,0 1.1643,0 0.4881,0 1.0139,0 1.5923,0 0.5783,0 1.1642,0 1.7426,0 0.5783,0 1.104,0 1.5924,0 0.4807,0 0.8712,0 1.1642,0 0.2929,0 0.4431,0 0.4506,0 0,-0.0076 0,-0.2847 0,-0.8316 0,-0.5394 0,-1.2809 0,-2.2249 0,-0.9439 0,-2.0152 0,-3.2212 0,-1.2137 0,-2.4872 0,-3.8281 0,-1.341 0,-2.6744 0,-4.0154 0,-1.3409 0,-2.6145 0,-3.828 0,-1.2061 0,-2.2774 0,-3.2213 0,-0.9439 0,-1.6856 0,-2.225 0,-0.5468 0,-0.8241 0,-0.8315 0.0075,0 0.1653,0 0.4657,0 0.308,0 0.7136,0 1.2169,0 0.4956,0 1.0515,0 1.6524,0 0.601,0 1.2018,0 1.8027,0 0.6008,0 1.1568,0 1.6525,0 0.5032,0 0.9088,0 1.2167,0 0.3005,0 0.4581,0 0.4658,0z"/>
  <path fill="black" fill-rule="nonzero" stroke="black" stroke-width="0.2" d="M203.649 -202.215c0.0076,1.4973 0.2618,2.8481 0.7625,4.0522 0.4928,1.1964 1.1859,2.246 2.0641,3.1492 0.8779,0.903 1.8945,1.6517 3.042,2.2539 1.1476,0.5942 2.3798,1.0496 3.6969,1.3506 1.3091,0.301 2.6493,0.4476 4.0202,0.4476 1.371,0 2.7033,-0.1466 4.0204,-0.4476 1.3093,-0.301 2.5337,-0.7564 3.6814,-1.3506 1.1473,-0.6022 2.1563,-1.3509 3.0267,-2.2539 0.878,-0.9032 1.5634,-1.9528 2.0563,-3.1492 0.493,-1.2041 0.7471,-2.5549 0.7548,-4.0522 0,-0.0077 0,-0.2162 0,-0.6174 0,-0.4091 0,-0.9417 0,-1.6055 0,-0.6637 0,-1.3894 0,-2.1843 0,-0.7951 0,-1.5977 0,-2.3927 0,-0.795 0,-1.5206 0,-2.1843 0,-0.6639 0,-1.1965 0,-1.6055 0,-0.4013 0,-0.6098 0,-0.6175 -0.0077,-1.4974 -0.2618,-2.848 -0.7626,-4.0522 -0.4927,-1.1964 -1.186,-2.246 -2.064,-3.1491 -0.878,-0.903 -1.8945,-1.6517 -3.0421,-2.2538 -1.1475,-0.5944 -2.3799,-1.0496 -3.6968,-1.3508 -1.3093,-0.3008 -2.6494,-0.4476 -4.0202,-0.4476 -1.371,0 -2.7035,0.1468 -4.0203,0.4476 -1.3093,0.2933 -2.5339,0.741 -3.6814,1.3431 -1.1476,0.5944 -2.1565,1.3429 -3.0268,2.2384 -0.878,0.9029 -1.5635,1.9527 -2.0564,3.1567 -0.4929,1.2041 -0.7471,2.5548 -0.7547,4.0677 0,0.0077 0,0.2162 0,0.6175 0,0.409 0,0.9416 0,1.6055 0,0.6637 0,1.3893 0,2.1843 0,0.795 0,1.5976 0,2.3927 0,0.7949 0,1.5206 0,2.1843 0,0.6638 0,1.1964 0,1.6055 0,0.4012 0,0.6097 0,0.6174zm8.2716 -11.2072c0.0076,-0.602 0.154,-1.1346 0.4467,-1.5976 0.285,-0.4555 0.6778,-0.8414 1.1707,-1.1579 0.4927,-0.3163 1.0474,-0.5479 1.6559,-0.7101 0.616,-0.1621 1.2477,-0.2392 1.9023,-0.2392 0.6776,0 1.3323,0.0694 1.9792,0.2239 0.6393,0.1466 1.2169,0.3704 1.7329,0.6713 0.5082,0.3088 0.9243,0.687 1.2246,1.1579 0.3081,0.4631 0.462,1.0188 0.4698,1.6517 0,0.0077 0,0.2162 0,0.6175 0,0.409 0,0.9416 0,1.6055 0,0.6637 0,1.3893 0,2.1843 0,0.795 0,1.5976 0,2.3927 0,0.7949 0,1.5206 0,2.1843 0,0.6638 0,1.1964 0,1.6055 0,0.4012 0,0.6097 0,0.6174 -0.0078,0.5944 -0.1542,1.1114 -0.4545,1.5515 -0.2927,0.4476 -0.6931,0.818 -1.1937,1.1191 -0.5006,0.2933 -1.0628,0.5171 -1.6865,0.6715 -0.6241,0.1466 -1.271,0.2239 -1.9333,0.2239 -0.6624,0 -1.3094,-0.0695 -1.9409,-0.2162 -0.6314,-0.1466 -1.1937,-0.3704 -1.7019,-0.6638 -0.5084,-0.2932 -0.9089,-0.6636 -1.2093,-1.1114 -0.3003,-0.4476 -0.4544,-0.9725 -0.462,-1.5746 0,-0.0077 0,-0.2162 0,-0.6174 0,-0.4091 0,-0.9417 0,-1.6055 0,-0.6637 0,-1.3894 0,-2.1843 0,-0.7951 0,-1.5977 0,-2.3927 0,-0.795 0,-1.5206 0,-2.1843 0,-0.6639 0,-1.1965 0,-1.6055 0,-0.4013 0,-0.6098 0,-0.6175zm39.3247 -10.7904c-0.0154,0 -0.2002,0 -0.5544,0 -0.3621,0 -0.8318,0 -1.4019,0 -0.5699,0 -1.1706,0 -1.8098,0 -0.6393,0 -1.2401,0 -1.8099,0 -0.5698,0 -1.0398,0 -1.4017,0 -0.3543,0 -0.5391,0 -0.5546,0 0,0.0077 -0.1078,0.3165 -0.3158,0.9185 -0.2157,0.602 -0.5006,1.428 -0.8702,2.4931 -0.3697,1.0573 -0.7934,2.2847 -1.2784,3.674 -0.4853,1.3815 -1.0013,2.8712 -1.5558,4.4536 -0.5468,1.59 -1.1091,3.2031 -1.6867,4.8549 -0.5777,1.6517 -1.1399,3.2648 -1.6867,4.8548 -0.5546,1.5824 -1.0705,3.072 -1.5556,4.4536 -0.4853,1.3893 -0.9089,2.6165 -1.2786,3.674 -0.3697,1.0651 -0.6547,1.8909 -0.8703,2.4929 -0.2079,0.6021 -0.3158,0.9109 -0.3158,0.9186 0.0078,0 0.1695,0 0.4929,0 0.3159,0 0.7393,0 1.2632,0 0.5314,0 1.1089,0 1.7328,0 0.6315,0 1.2632,0 1.8947,0 0.6238,0 1.2013,0 1.7327,0 0.5238,0 0.9474,0 1.2632,0 0.3234,0 0.4852,0 0.4929,0 0,-0.0077 0.054,-0.1698 0.1539,-0.4862 0.0927,-0.3166 0.2157,-0.7179 0.3698,-1.2195 0.1541,-0.4941 0.3235,-1.0267 0.4929,-1.5823 0.1695,-0.5559 0.3389,-1.0884 0.493,-1.5824 0.154,-0.5016 0.2772,-0.9031 0.3697,-1.2193 0.1,-0.3166 0.154,-0.4787 0.154,-0.4864 0.0076,0 0.1693,0 0.4851,0 0.3157,0 0.7317,0 1.2476,0 0.5162,0 1.0861,0 1.7022,0 0.6238,0 1.24,0 1.8637,0 0.6162,0 1.1862,0 1.7022,0 0.516,0 0.9319,0 1.2476,0 0.3159,0 0.4775,0 0.4853,0 0,0.0077 0.0539,0.1698 0.154,0.4864 0.1079,0.3162 0.2386,0.7177 0.4004,1.2193 0.1541,0.494 0.3312,1.0265 0.5084,1.5824 0.177,0.5556 0.3543,1.0882 0.5083,1.5823 0.1618,0.5016 0.2926,0.9029 0.4004,1.2195 0.1002,0.3164 0.1541,0.4785 0.1541,0.4862 0.0078,0 0.1695,0 0.4929,0 0.3157,0 0.7393,0 1.263,0 0.5315,0 1.1091,0 1.733,0 0.6315,0 1.2631,0 1.8946,0 0.6238,0 1.2014,0 1.7328,0 0.5238,0 0.9475,0 1.2631,0 0.3235,0 0.4852,0 0.4929,0 -0.0077,-0.0077 -0.1155,-0.3165 -0.3311,-0.9186 -0.208,-0.602 -0.5084,-1.4278 -0.8856,-2.4929 -0.3775,-1.0575 -0.8165,-2.2847 -1.3094,-3.674 -0.493,-1.3816 -1.0243,-2.8712 -1.5865,-4.4536 -0.57,-1.59 -1.1477,-3.2031 -1.7328,-4.8548 -0.5855,-1.6518 -1.1631,-3.2649 -1.733,-4.8549 -0.5622,-1.5824 -1.0937,-3.0721 -1.5865,-4.4536 -0.4929,-1.3893 -0.9321,-2.6167 -1.3093,-3.674 -0.3774,-1.0651 -0.6779,-1.8911 -0.8857,-2.4931 -0.2157,-0.602 -0.3236,-0.9108 -0.3312,-0.9185zm-6.1921 18.8485c0,-0.0077 0.0463,-0.1852 0.1309,-0.5326 0.0924,-0.3395 0.2002,-0.8028 0.3466,-1.3663 0.1386,-0.5711 0.3003,-1.1962 0.4696,-1.8755 0.1695,-0.6792 0.339,-1.3585 0.5084,-2.0376 0.1695,-0.6793 0.3312,-1.3045 0.4699,-1.8756 0.1463,-0.5635 0.2541,-1.0265 0.3465,-1.3661 0.0848,-0.3474 0.131,-0.5249 0.131,-0.5326 0.0077,0 0.0461,0 0.1154,0 0.0694,0 0.1079,0 0.1155,0 0,0.0077 0.0462,0.1852 0.1233,0.5326 0.0848,0.3396 0.1927,0.8026 0.3235,1.3661 0.1387,0.5711 0.2849,1.1963 0.4467,1.8756 0.1617,0.6791 0.3157,1.3584 0.4775,2.0376 0.1618,0.6793 0.3082,1.3044 0.4467,1.8755 0.1308,0.5635 0.2388,1.0268 0.3235,1.3663 0.077,0.3474 0.1232,0.5249 0.1232,0.5326 -0.0076,0 -0.1309,0 -0.362,0 -0.2387,0 -0.539,0 -0.9087,0 -0.3698,0 -0.7624,0 -1.1785,0 -0.4158,0 -0.8087,0 -1.1783,0 -0.3697,0 -0.67,0 -0.9088,0 -0.231,0 -0.3543,0 -0.3619,0zm17.7446 -18.6633c-0.0462,0.0387 -0.0848,0.2547 -0.1231,0.633 -0.0309,0.3781 -0.0618,0.8798 -0.0848,1.5205 -0.0232,0.6405 -0.0384,1.3661 -0.0539,2.1842 -0.0078,0.8182 -0.0155,1.6905 -0.0155,2.6089 0,0.0079 0,0.1777 0,0.494 0,0.3242 0,0.741 0,1.2504 0,0.5017 0,1.042 0,1.6133 0,0.5711 0,1.1113 0,1.613 0,0.5094 0,0.9262 0,1.2505 0,0.3164 0,0.4863 0,0.4939 0.0077,0.0077 0.1463,0.1313 0.4159,0.3706 0.2618,0.2391 0.593,0.5325 0.9858,0.8875 0.3928,0.3475 0.7779,0.7025 1.1706,1.0496 0.393,0.3552 0.724,0.6485 0.9858,0.8878 0.2696,0.2393 0.4084,0.3627 0.4161,0.3705 0.7317,0.656 1.4093,1.2504 2.0254,1.7906 0.6163,0.5326 1.1168,0.9649 1.5096,1.2812 0.3928,0.3243 0.6161,0.4864 0.67,0.494 0.0232,-0.0076 0.0463,-0.1774 0.0694,-0.5094 0.0231,-0.3397 0.0384,-0.7949 0.0616,-1.3894 0.0154,-0.5941 0.0308,-1.2734 0.0385,-2.0453 0.0077,-0.7795 0.0154,-1.6054 0.0154,-2.4931 0,-0.0076 0,-0.1697 0,-0.4784 0,-0.3087 0,-0.7101 0,-1.2042 0,-0.4862 0,-1.0111 0,-1.5591 0,-0.548 0,-1.0729 0,-1.5591 0,-0.4939 0,-0.8954 0,-1.2041 0,-0.3088 0,-0.4708 0,-0.4785 0.0077,0 0.1155,0 0.3234,0 0.2081,0 0.4621,0 0.7703,0 0.3002,0 0.6084,0 0.9087,0 0.3081,0 0.5622,0 0.7702,0 0.2079,0 0.3158,0 0.3235,0 0.8163,0 1.4787,0.0153 1.9639,0.0617 0.493,0.0385 0.8859,0.1159 1.1862,0.2316 0.3002,0.1157 0.5776,0.2778 0.8241,0.4939 0.0153,0.0078 0.0923,0.0695 0.254,0.193 0.154,0.116 0.3082,0.2392 0.4623,0.3552 0.1617,0.1233 0.2386,0.1851 0.254,0.1929 0,0.0076 0,0.1774 0,0.4939 0,0.3164 0,0.7256 0,1.2195 0,0.5017 0,1.0344 0,1.5978 0,0.5633 0,1.096 0,1.5977 0,0.494 0,0.9032 0,1.2195 0,0.3165 0,0.4862 0,0.4939 0,0.9108 -0.0077,1.7753 -0.0231,2.6011 -0.0153,0.8259 -0.0308,1.5669 -0.0539,2.2229 -0.0309,0.6561 -0.0539,1.1887 -0.0771,1.6056 -0.0307,0.409 -0.0538,0.6637 -0.0768,0.7486 -0.1079,0.2779 -0.2619,0.5095 -0.4776,0.7101 -0.2157,0.193 -0.5238,0.3551 -0.9242,0.4786 -0.4081,0.1235 -0.9395,0.2239 -1.6098,0.2934 -0.6778,0.0693 -1.5172,0.1157 -2.5337,0.1465 -1.0244,0.0232 -2.2491,0.0387 -3.697,0.0387 -0.0076,0 -0.1848,0 -0.516,0 -0.3311,0 -0.7547,0 -1.2784,0 -0.5237,0 -1.0859,0 -1.6713,0 -0.5852,0 -1.1475,0 -1.6713,0 -0.5238,0 -0.9473,0 -1.2784,0 -0.3312,0 -0.5084,0 -0.5161,0 0,0.0075 0,0.1466 0,0.4013 0,0.2546 0,0.5711 0,0.9495 0,0.378 0,0.764 0,1.1422 0,0.3782 0,0.6947 0,0.9493 0,0.2547 0,0.3937 0,0.4014 0,0.0078 0,0.1467 0,0.4014 0,0.2624 0,0.5864 0,0.9648 0,0.3859 0,0.7718 0,1.1578 0,0.3781 0,0.7024 0,0.9647 0,0.2548 0,0.3937 0,0.4014 0.0155,0 0.2004,0 0.5777,0 0.3697,0 0.8472,0 1.4325,0 0.5929,0 1.2091,0 1.8715,0 0.6624,0 1.2785,0 1.8715,0 0.5852,0 1.0627,0 1.4325,0 0.3774,0 0.5622,0 0.5777,0 1.3708,0 2.5338,-0.0077 3.4888,-0.0154 0.9627,-0.0077 1.7714,-0.031 2.4261,-0.0618 0.6547,-0.0307 1.217,-0.0771 1.6791,-0.1312 0.4619,-0.0618 0.8778,-0.1389 1.2476,-0.2316 0.3696,-0.0925 0.7547,-0.2084 1.1398,-0.3472 0.9626,-0.3165 1.8485,-0.7409 2.6647,-1.2892 0.8242,-0.5402 1.5481,-1.173 2.172,-1.8986 0.6238,-0.7255 1.1167,-1.5127 1.494,-2.3696 0.1619,-0.3705 0.3005,-0.7101 0.4083,-1.0342 0.1077,-0.3165 0.2002,-0.6792 0.2619,-1.0883 0.0616,-0.409 0.1077,-0.9263 0.1386,-1.5669 0.0309,-0.6328 0.0462,-1.4511 0.0616,-2.4545 0.0077,-1.0034 0.0077,-2.2615 0.0077,-3.7665 0,-1.4897 0,-2.7325 -0.0077,-3.7282 -0.0154,-0.9956 -0.0307,-1.8138 -0.0616,-2.4466 -0.0309,-0.6408 -0.077,-1.1578 -0.1386,-1.5668 -0.0617,-0.4093 -0.1542,-0.7718 -0.2619,-1.0807 -0.1078,-0.3164 -0.2464,-0.6483 -0.4083,-0.9955 -0.5621,-1.2659 -1.3708,-2.3851 -2.426,-3.3654 -1.0474,-0.9802 -2.2718,-1.7367 -3.6737,-2.2847 -0.3696,-0.1621 -0.7316,-0.301 -1.0782,-0.4091 -0.3542,-0.1157 -0.7469,-0.2006 -1.1938,-0.2701 -0.4388,-0.0694 -0.9857,-0.1235 -1.625,-0.162 -0.6471,-0.0387 -1.4479,-0.0696 -2.403,-0.1005 -0.955,-0.0231 -2.118,-0.054 -3.4966,-0.077 -1.0551,-0.0232 -2.0563,-0.0387 -2.9882,-0.0387 -0.932,0 -1.7636,0.0076 -2.4877,0.0232 -0.7239,0.0155 -1.3016,0.0309 -1.7251,0.0618 -0.4237,0.0231 -0.6624,0.054 -0.7009,0.0925zm-219.221 0c-0.0463,0.0387 -0.0847,0.2547 -0.1233,0.633 -0.0308,0.3781 -0.0617,0.8798 -0.0847,1.5205 -0.0231,0.6405 -0.0385,1.3661 -0.054,2.1842 -0.0077,0.8182 -0.0153,1.6905 -0.0153,2.6089 0,0.0079 0,0.1777 0,0.494 0,0.3242 0,0.741 0,1.2504 0,0.5017 0,1.042 0,1.6133 0,0.5711 0,1.1113 0,1.613 0,0.5094 0,0.9262 0,1.2505 0,0.3164 0,0.4863 0,0.4939 0.0076,0.0077 0.1463,0.1313 0.4159,0.3706 0.2618,0.2391 0.5931,0.5325 0.9858,0.8875 0.3927,0.3475 0.7778,0.7025 1.1706,1.0496 0.3929,0.3552 0.7239,0.6485 0.9858,0.8878 0.2696,0.2393 0.4082,0.3627 0.4159,0.3705 0.7316,0.656 1.4094,1.2504 2.0256,1.7906 0.6161,0.5326 1.1167,0.9649 1.5095,1.2812 0.3928,0.3243 0.6161,0.4864 0.67,0.494 0.0231,-0.0076 0.0462,-0.1774 0.0693,-0.5094 0.023,-0.3397 0.0386,-0.7949 0.0617,-1.3894 0.0154,-0.5941 0.0307,-1.2734 0.0385,-2.0453 0.0076,-0.7795 0.0154,-1.6054 0.0154,-2.4931 0,-0.0076 0,-0.1697 0,-0.4784 0,-0.3087 0,-0.7101 0,-1.2042 0,-0.4862 0,-1.0111 0,-1.5591 0,-0.548 0,-1.0729 0,-1.5591 0,-0.4939 0,-0.8954 0,-1.2041 0,-0.3088 0,-0.4708 0,-0.4785 0.0077,0 0.1155,0 0.3235,0 0.2079,0 0.4621,0 0.7701,0 0.3005,0 0.6085,0 0.9088,0 0.3081,0 0.5623,0 0.7701,0 0.2081,0 0.3158,0 0.3236,0 0.8164,0 1.4787,0.0153 1.9637,0.0617 0.4931,0.0385 0.8859,0.1159 1.1863,0.2316 0.3004,0.1157 0.5775,0.2778 0.824,0.4939 0.0154,0.0078 0.0924,0.0695 0.2541,0.193 0.1541,0.116 0.3082,0.2392 0.4621,0.3552 0.1618,0.1233 0.2388,0.1851 0.2542,0.1929 0,0.0076 0,0.1774 0,0.4939 0,0.3164 0,0.7256 0,1.2195 0,0.5017 0,1.0344 0,1.5978 0,0.5633 0,1.096 0,1.5977 0,0.494 0,0.9032 0,1.2195 0,0.3165 0,0.4862 0,0.4939 0,0.9108 -0.0077,1.7753 -0.0229,2.6011 -0.0156,0.8259 -0.0309,1.5669 -0.054,2.2229 -0.0308,0.6561 -0.054,1.1887 -0.0771,1.6056 -0.0309,0.409 -0.054,0.6637 -0.077,0.7486 -0.1079,0.2779 -0.2619,0.5095 -0.4775,0.7101 -0.2156,0.193 -0.5237,0.3551 -0.9242,0.4786 -0.4083,0.1235 -0.9396,0.2239 -1.6097,0.2934 -0.6778,0.0693 -1.5173,0.1157 -2.5338,0.1465 -1.0244,0.0232 -2.2489,0.0387 -3.6968,0.0387 -0.0079,0 -0.1849,0 -0.5161,0 -0.3311,0 -0.7547,0 -1.2784,0 -0.5237,0 -1.0859,0 -1.6713,0 -0.5853,0 -1.1475,0 -1.6713,0 -0.5236,0 -0.9472,0 -1.2785,0 -0.3312,0 -0.5083,0 -0.5159,0 0,0.0075 0,0.1466 0,0.4013 0,0.2546 0,0.5711 0,0.9495 0,0.378 0,0.764 0,1.1422 0,0.3782 0,0.6947 0,0.9493 0,0.2547 0,0.3937 0,0.4014 0,0.0078 0,0.1467 0,0.4014 0,0.2624 0,0.5864 0,0.9648 0,0.3859 0,0.7718 0,1.1578 0,0.3781 0,0.7024 0,0.9647 0,0.2548 0,0.3937 0,0.4014 0.0153,0 0.2002,0 0.5776,0 0.3696,0 0.8472,0 1.4325,0 0.593,0 1.2092,0 1.8715,0 0.6623,0 1.2785,0 1.8715,0 0.5854,0 1.0629,0 1.4325,0 0.3774,0 0.5623,0 0.5777,0 1.3709,0 2.5338,-0.0077 3.4888,-0.0154 0.9627,-0.0077 1.7714,-0.031 2.426,-0.0618 0.6547,-0.0307 1.2169,-0.0771 1.679,-0.1312 0.4622,-0.0618 0.8779,-0.1389 1.2476,-0.2316 0.3698,-0.0925 0.7548,-0.2084 1.14,-0.3472 0.9626,-0.3165 1.8483,-0.7409 2.6647,-1.2892 0.8241,-0.5402 1.5481,-1.173 2.1719,-1.8986 0.6238,-0.7255 1.1168,-1.5127 1.494,-2.3696 0.1617,-0.3705 0.3004,-0.7101 0.4083,-1.0342 0.1078,-0.3165 0.2002,-0.6792 0.2618,-1.0883 0.0617,-0.409 0.1078,-0.9263 0.1386,-1.5669 0.0309,-0.6328 0.0464,-1.4511 0.0617,-2.4545 0.0077,-1.0034 0.0077,-2.2615 0.0077,-3.7665 0,-1.4897 0,-2.7325 -0.0077,-3.7282 -0.0153,-0.9956 -0.0308,-1.8138 -0.0617,-2.4466 -0.0308,-0.6408 -0.0769,-1.1578 -0.1386,-1.5668 -0.0616,-0.4093 -0.154,-0.7718 -0.2618,-1.0807 -0.1079,-0.3164 -0.2466,-0.6483 -0.4083,-0.9955 -0.5621,-1.2659 -1.3708,-2.3851 -2.4259,-3.3654 -1.0475,-0.9802 -2.2721,-1.7367 -3.6737,-2.2847 -0.3696,-0.1621 -0.7317,-0.301 -1.0782,-0.4091 -0.3544,-0.1157 -0.7472,-0.2006 -1.1938,-0.2701 -0.439,-0.0694 -0.9858,-0.1235 -1.6252,-0.162 -0.6468,-0.0387 -1.4478,-0.0696 -2.4028,-0.1005 -0.9549,-0.0231 -2.1179,-0.054 -3.4966,-0.077 -1.055,-0.0232 -2.0563,-0.0387 -2.9883,-0.0387 -0.9318,0 -1.7636,0.0076 -2.4875,0.0232 -0.7239,0.0155 -1.3016,0.0309 -1.7253,0.0618 -0.4236,0.0231 -0.6622,0.054 -0.7007,0.0925zm30.9146 21.8124c0.0075,1.4973 0.2618,2.8481 0.7624,4.0522 0.4928,1.1964 1.1861,2.246 2.0641,3.1492 0.8779,0.903 1.8946,1.6517 3.042,2.2539 1.1476,0.5942 2.3798,1.0496 3.6969,1.3506 1.3092,0.301 2.6493,0.4476 4.0202,0.4476 1.371,0 2.7034,-0.1466 4.0204,-0.4476 1.3094,-0.301 2.5338,-0.7564 3.6815,-1.3506 1.1474,-0.6022 2.1563,-1.3509 3.0267,-2.2539 0.878,-0.9032 1.5635,-1.9528 2.0563,-3.1492 0.493,-1.2041 0.747,-2.5549 0.7547,-4.0522 0,-0.0077 0,-0.2162 0,-0.6174 0,-0.4091 0,-0.9417 0,-1.6055 0,-0.6637 0,-1.3894 0,-2.1843 0,-0.7951 0,-1.5977 0,-2.3927 0,-0.795 0,-1.5206 0,-2.1843 0,-0.6639 0,-1.1965 0,-1.6055 0,-0.4013 0,-0.6098 0,-0.6175 -0.0077,-1.4974 -0.2617,-2.848 -0.7624,-4.0522 -0.4929,-1.1964 -1.1861,-2.246 -2.0641,-3.1491 -0.8779,-0.903 -1.8946,-1.6517 -3.042,-2.2538 -1.1477,-0.5944 -2.3799,-1.0496 -3.697,-1.3508 -1.3091,-0.3008 -2.6493,-0.4476 -4.0202,-0.4476 -1.371,0 -2.7033,0.1468 -4.0203,0.4476 -1.3093,0.2933 -2.5339,0.741 -3.6814,1.3431 -1.1475,0.5944 -2.1564,1.3429 -3.0267,2.2384 -0.8782,0.9029 -1.5635,1.9527 -2.0566,3.1567 -0.4927,1.2041 -0.747,2.5548 -0.7545,4.0677 0,0.0077 0,0.2162 0,0.6175 0,0.409 0,0.9416 0,1.6055 0,0.6637 0,1.3893 0,2.1843 0,0.795 0,1.5976 0,2.3927 0,0.7949 0,1.5206 0,2.1843 0,0.6638 0,1.1964 0,1.6055 0,0.4012 0,0.6097 0,0.6174zm8.2715 -11.2072c0.0077,-0.602 0.154,-1.1346 0.4466,-1.5976 0.2852,-0.4555 0.6779,-0.8414 1.1708,-1.1579 0.4928,-0.3163 1.0473,-0.5479 1.6558,-0.7101 0.6162,-0.1621 1.2477,-0.2392 1.9023,-0.2392 0.6779,0 1.3325,0.0694 1.9794,0.2239 0.6393,0.1466 1.2169,0.3704 1.7329,0.6713 0.5084,0.3088 0.9243,0.687 1.2246,1.1579 0.3081,0.4631 0.4622,1.0188 0.4698,1.6517 0,0.0077 0,0.2162 0,0.6175 0,0.409 0,0.9416 0,1.6055 0,0.6637 0,1.3893 0,2.1843 0,0.795 0,1.5976 0,2.3927 0,0.7949 0,1.5206 0,2.1843 0,0.6638 0,1.1964 0,1.6055 0,0.4012 0,0.6097 0,0.6174 -0.0076,0.5944 -0.1541,1.1114 -0.4545,1.5515 -0.2926,0.4476 -0.6931,0.818 -1.1937,1.1191 -0.5005,0.2933 -1.0628,0.5171 -1.6866,0.6715 -0.6239,0.1466 -1.2708,0.2239 -1.9333,0.2239 -0.6624,0 -1.3092,-0.0695 -1.9407,-0.2162 -0.6317,-0.1466 -1.1938,-0.3704 -1.7021,-0.6638 -0.5083,-0.2932 -0.909,-0.6636 -1.2092,-1.1114 -0.3004,-0.4476 -0.4544,-0.9725 -0.4621,-1.5746 0,-0.0077 0,-0.2162 0,-0.6174 0,-0.4091 0,-0.9417 0,-1.6055 0,-0.6637 0,-1.3894 0,-2.1843 0,-0.7951 0,-1.5977 0,-2.3927 0,-0.795 0,-1.5206 0,-2.1843 0,-0.6639 0,-1.1965 0,-1.6055 0,-0.4013 0,-0.6098 0,-0.6175zm50.4151 5.0016c0,0.0076 -0.023,0.1775 -0.0691,0.5094 -0.0463,0.3242 -0.1003,0.7487 -0.1695,1.2659 -0.0694,0.517 -0.1465,1.0727 -0.2233,1.6516 -0.0771,0.579 -0.1541,1.1346 -0.2233,1.6519 -0.0694,0.5171 -0.1232,0.9416 -0.1695,1.2657 -0.0462,0.3319 -0.0694,0.5018 -0.0694,0.5094 -0.0077,0 -0.0308,0 -0.0693,0 -0.0384,0 -0.0616,0 -0.0692,0 0,-0.0076 -0.0309,-0.1775 -0.0771,-0.5094 -0.0539,-0.3241 -0.1155,-0.7486 -0.2003,-1.2657 -0.077,-0.5173 -0.1616,-1.0729 -0.254,-1.6519 -0.0926,-0.5789 -0.1773,-1.1346 -0.2542,-1.6516 -0.0847,-0.5172 -0.1464,-0.9417 -0.2002,-1.2659 -0.0464,-0.3319 -0.0772,-0.5018 -0.0772,-0.5094 0,-0.0078 -0.0692,-0.2238 -0.1848,-0.6407 -0.1232,-0.409 -0.285,-0.9648 -0.4851,-1.644 -0.2004,-0.6869 -0.4159,-1.4356 -0.6546,-2.2537 -0.2388,-0.8183 -0.4854,-1.6363 -0.724,-2.4546 -0.2389,-0.8182 -0.4544,-1.5668 -0.6547,-2.2537 -0.2004,-0.6792 -0.362,-1.2349 -0.4853,-1.644 -0.1154,-0.4169 -0.1847,-0.633 -0.1847,-0.6407 -0.0078,0 -0.1617,0 -0.462,0 -0.3005,0 -0.6932,0 -1.1707,0 -0.4699,0 -0.9782,0 -1.5097,0 -0.5314,0 -1.0397,0 -1.5095,0 -0.4774,0 -0.8702,0 -1.1706,0 -0.3003,0 -0.4545,0 -0.4621,0 0,0.0077 -0.0693,0.2238 -0.2002,0.6328 -0.1309,0.417 -0.3082,0.9649 -0.5238,1.6441 -0.2156,0.6792 -0.4544,1.4281 -0.7162,2.2462 -0.2542,0.8103 -0.516,1.6284 -0.7701,2.4389 -0.2621,0.8181 -0.5007,1.5669 -0.7164,2.2462 -0.2156,0.6792 -0.3926,1.2272 -0.5237,1.644 -0.131,0.4091 -0.2003,0.6253 -0.2003,0.6328 0,0.0078 -0.0231,0.1775 -0.0615,0.5095 -0.0308,0.332 -0.0848,0.7565 -0.1386,1.2812 -0.0616,0.5171 -0.1234,1.073 -0.1926,1.6596 -0.0693,0.5865 -0.1309,1.1423 -0.1926,1.6594 -0.0539,0.5249 -0.1078,0.9493 -0.1386,1.2812 -0.0385,0.3319 -0.0616,0.5018 -0.0616,0.5094 -0.0076,0 -0.0462,0 -0.1156,0 -0.0692,0 -0.1078,0 -0.1154,0 0,-0.0076 -0.0231,-0.1851 -0.0617,-0.5171 -0.0385,-0.3319 -0.0924,-0.7565 -0.154,-1.2811 -0.0617,-0.525 -0.131,-1.0885 -0.2003,-1.675 -0.0692,-0.5867 -0.1385,-1.1501 -0.2002,-1.6748 -0.0615,-0.525 -0.1155,-0.9496 -0.1539,-1.2813 -0.0387,-0.332 -0.0617,-0.5095 -0.0617,-0.5173 0,-0.0076 -0.0617,-0.2315 -0.1695,-0.6714 -0.1077,-0.4401 -0.2541,-1.0343 -0.439,-1.783 -0.1848,-0.741 -0.3928,-1.5823 -0.6161,-2.5163 -0.2309,-0.9262 -0.4698,-1.8909 -0.7163,-2.8789 -0.2464,-0.9881 -0.4851,-1.9528 -0.7162,-2.879 -0.2233,-0.9339 -0.4314,-1.7752 -0.6161,-2.5162 -0.1849,-0.7487 -0.3312,-1.343 -0.4392,-1.783 -0.1076,-0.44 -0.1693,-0.6638 -0.1693,-0.6715 -0.0077,0 -0.1695,0 -0.4775,0 -0.3081,0 -0.7163,0 -1.2246,0 -0.5083,0 -1.0706,0 -1.6789,0 -0.6085,0 -1.2246,0 -1.833,0 -0.6084,0 -1.1707,0 -1.679,0 -0.5082,0 -0.9164,0 -1.2245,0 -0.308,0 -0.4699,0 -0.4775,0 0,0.0077 0.0923,0.3165 0.2618,0.9185 0.1771,0.602 0.4159,1.428 0.724,2.4931 0.308,1.0573 0.6623,2.2847 1.0628,3.674 0.4005,1.3815 0.8318,2.8712 1.2862,4.4536 0.4544,1.59 0.9241,3.2031 1.4017,4.8549 0.4775,1.6517 0.9473,3.2648 1.4017,4.8548 0.4544,1.5824 0.8857,3.072 1.2862,4.4536 0.4004,1.3893 0.7548,2.6165 1.0629,3.674 0.3079,1.0651 0.5467,1.8909 0.7239,2.4929 0.1694,0.6021 0.2618,0.9109 0.2618,0.9186 0.0154,0 0.2004,0 0.5699,0 0.3619,0 0.8394,0 1.4172,0 0.5853,0 1.1937,0 1.8484,0 0.6546,0 1.2631,0 1.8483,0 0.5777,0 1.0551,0 1.4171,0 0.3697,0 0.5547,0 0.57,0 0,-0.0077 0.0539,-0.1775 0.1463,-0.5016 0.0924,-0.332 0.2156,-0.7641 0.3698,-1.3045 0.1539,-0.5403 0.3157,-1.1346 0.5004,-1.7829 0.185,-0.6484 0.3698,-1.2967 0.5546,-1.945 0.1848,-0.6485 0.3466,-1.2427 0.5007,-1.7831 0.1539,-0.5403 0.2771,-0.9725 0.3697,-1.3044 0.0924,-0.3241 0.1463,-0.494 0.1463,-0.5017 0,-0.0077 0.0308,-0.193 0.0924,-0.5558 0.0615,-0.355 0.1386,-0.8103 0.2309,-1.3739 0.0926,-0.5634 0.1926,-1.1655 0.3005,-1.7983 0.1078,-0.633 0.2079,-1.235 0.3002,-1.7985 0.0926,-0.5634 0.1695,-1.0188 0.2312,-1.3737 0.0617,-0.363 0.0924,-0.548 0.0924,-0.5559 0.0078,0 0.0308,0 0.0692,0 0.0387,0 0.0619,0 0.0694,0 0,0.0079 0.0308,0.1929 0.0848,0.5559 0.054,0.3549 0.1308,0.8181 0.2156,1.3893 0.0847,0.5634 0.1771,1.1654 0.2772,1.8061 0.1002,0.6329 0.1927,1.2349 0.2775,1.8061 0.0845,0.5634 0.1616,1.0264 0.2155,1.3892 0.054,0.3552 0.0847,0.5403 0.0847,0.5558 0,0.0077 0.054,0.1775 0.1618,0.5017 0.1078,0.3242 0.2464,0.7564 0.4158,1.2967 0.1695,0.5403 0.362,1.1269 0.5699,1.7753 0.2081,0.6406 0.4082,1.2889 0.6162,1.9296 0.2079,0.6483 0.4004,1.2349 0.5698,1.7753 0.1695,0.5401 0.3082,0.9724 0.416,1.2967 0.1079,0.3241 0.1617,0.4939 0.1617,0.5016 0.0155,0 0.2003,0 0.57,0 0.3619,0 0.8394,0 1.4171,0 0.5853,0 1.1937,0 1.8484,0 0.6546,0 1.2631,0 1.8483,0 0.5777,0 1.0553,0 1.4172,0 0.3696,0 0.5547,0 0.5698,0 0,-0.0077 0.0926,-0.3165 0.262,-0.9186 0.1771,-0.602 0.4159,-1.4278 0.7162,-2.4929 0.3081,-1.0575 0.6624,-2.2847 1.0551,-3.674 0.4005,-1.3816 0.8318,-2.8712 1.2863,-4.4536 0.4544,-1.59 0.9165,-3.2031 1.394,-4.8548 0.4775,-1.6518 0.9395,-3.2649 1.394,-4.8549 0.4542,-1.5824 0.8856,-3.0721 1.2862,-4.4536 0.3928,-1.3893 0.747,-2.6167 1.0551,-3.674 0.3004,-1.0651 0.5391,-1.8911 0.7162,-2.4931 0.1695,-0.602 0.2618,-0.9108 0.2618,-0.9185 -0.0076,0 -0.1694,0 -0.4696,0 -0.3082,0 -0.7163,0 -1.2246,0 -0.5083,0 -1.063,0 -1.6713,0 -0.6085,0 -1.2092,0 -1.8177,0 -0.6083,0 -1.163,0 -1.6713,0 -0.5083,0 -0.9164,0 -1.2244,0 -0.3005,0 -0.4623,0 -0.47,0 0,0.0077 -0.0615,0.2393 -0.1695,0.6793 -0.1154,0.4399 -0.2617,1.0342 -0.4543,1.7906 -0.1848,0.7486 -0.4004,1.5901 -0.6315,2.5239 -0.2387,0.9417 -0.4776,1.9065 -0.7317,2.9022 -0.2542,0.9956 -0.4928,1.9604 -0.7317,2.9021 -0.231,0.9339 -0.4466,1.7753 -0.6313,2.524 -0.1927,0.7563 -0.3389,1.3507 -0.4546,1.7907 -0.1077,0.4398 -0.1695,0.6714 -0.1695,0.6792zm15.1108 16.996c0.0154,0 0.2156,0 0.6162,0 0.3928,0 0.9011,0 1.5249,0 0.6315,0 1.2938,0 1.9947,0 0.7009,0 1.3632,0 1.9947,0 0.6239,0 1.1321,0 1.525,0 0.4005,0 0.6008,0 0.6161,0 0,-0.0154 0,-0.2546 0,-0.7256 0,-0.4706 0,-1.096 0,-1.8755 0,-0.7718 0,-1.6285 0,-2.5548 0,-0.9338 0,-1.8602 0,-2.7941 0,-0.9261 0,-1.783 0,-2.5549 0,-0.7794 0,-1.4046 0,-1.8755 0,-0.4708 0,-0.7101 0,-0.7256 0,-0.0076 -0.0307,-0.1697 -0.077,-0.4707 -0.0539,-0.3011 -0.1156,-0.6947 -0.2003,-1.1733 -0.0769,-0.4786 -0.1616,-0.9879 -0.2541,-1.5282 -0.0925,-0.5403 -0.1771,-1.0498 -0.2542,-1.5283 -0.0847,-0.4786 -0.1463,-0.8722 -0.2002,-1.1731 -0.0462,-0.3011 -0.0769,-0.4631 -0.0769,-0.471 0.0076,0 0.0461,-0.0076 0.1155,-0.0231 0.0692,-0.0154 0.1076,-0.0231 0.1155,-0.0231 0.0076,0.0077 0.0769,0.1697 0.2156,0.4863 0.1309,0.3164 0.308,0.7178 0.5236,1.2195 0.2235,0.494 0.4469,1.0266 0.6932,1.5822 0.2464,0.5557 0.4698,1.0885 0.6932,1.5822 0.2156,0.5019 0.3928,0.9032 0.5236,1.2197 0.1387,0.3164 0.208,0.4785 0.2157,0.4863 0.0078,0.0153 0.1464,0.2546 0.4083,0.7178 0.2696,0.4631 0.616,1.0805 1.0551,1.8446 0.4389,0.7642 0.9242,1.6055 1.4479,2.5241 0.5237,0.9184 1.0475,1.8291 1.5712,2.7476 0.5236,0.9186 1.0089,1.7597 1.4478,2.524 0.4391,0.7642 0.7856,1.3816 1.0552,1.8447 0.2619,0.4632 0.4005,0.7024 0.4081,0.7178 0.0078,0 0.1618,0 0.4621,0 0.3004,0 0.7009,0 1.1938,0 0.5006,0 1.0398,0 1.6327,0 0.5932,0 1.1939,0 1.7868,0 0.5931,0 1.1322,0 1.6327,0 0.4931,0 0.8936,0 1.1939,0 0.3004,0 0.4543,0 0.4622,0 0,-0.0077 0,-0.3165 0,-0.9186 0,-0.602 0,-1.4278 0,-2.4929 0,-1.0575 0,-2.2847 0,-3.674 0,-1.3816 0,-2.8712 0,-4.4536 0,-1.59 0,-3.2031 0,-4.8548 0,-1.6518 0,-3.2649 0,-4.8549 0,-1.5824 0,-3.0721 0,-4.4536 0,-1.3893 0,-2.6167 0,-3.674 0,-1.0651 0,-1.8911 0,-2.4931 0,-0.602 0,-0.9108 0,-0.9185 -0.0155,0 -0.2157,0 -0.6086,0 -0.3928,0 -0.901,0 -1.525,0 -0.6237,0 -1.2784,0 -1.9794,0 -0.7006,0 -1.3553,0 -1.9791,0 -0.6239,0 -1.1321,0 -1.525,0 -0.3928,0 -0.5929,0 -0.6085,0 0,0.0077 0,0.2239 0,0.6406 0,0.4168 0,0.9725 0,1.6827 0,0.7023 0,1.4975 0,2.3772 0,0.8876 0,1.7908 0,2.7324 0,0.9417 0,1.8446 0,2.7324 0,0.8798 0,1.6748 0,2.3773 0,0.71 0,1.2658 0,1.6824 0,0.417 0,0.633 0,0.6409 0.0079,0.0076 0.0386,0.1465 0.0848,0.4167 0.0385,0.27 0.1003,0.6174 0.1618,1.0496 0.0693,0.4245 0.1386,0.8801 0.2155,1.3585 0.0772,0.4786 0.1464,0.9338 0.2157,1.3583 0.0618,0.4325 0.1232,0.7797 0.1618,1.0499 0.0461,0.2702 0.077,0.4091 0.0848,0.4168 -0.0078,0 -0.0462,0.0077 -0.1155,0.0231 -0.0693,0.0153 -0.1079,0.0233 -0.1157,0.0233 -0.0076,-0.008 -0.0693,-0.1699 -0.2079,-0.4864 -0.1308,-0.3165 -0.3002,-0.7178 -0.5083,-1.2195 -0.2156,-0.494 -0.4313,-1.0266 -0.67,-1.5823 -0.2388,-0.5557 -0.4544,-1.0883 -0.6701,-1.5822 -0.208,-0.5018 -0.3774,-0.9032 -0.5083,-1.2196 -0.1386,-0.3164 -0.2002,-0.4785 -0.2079,-0.4863 -0.0078,-0.0076 -0.1155,-0.2083 -0.3388,-0.602 -0.2234,-0.3935 -0.5239,-0.9186 -0.8935,-1.5823 -0.3774,-0.6638 -0.801,-1.4125 -1.2707,-2.2383 -0.4621,-0.8335 -0.9473,-1.6904 -1.448,-2.5703 -0.5007,-0.8798 -0.9858,-1.7366 -1.4478,-2.5701 -0.47,-0.826 -0.8935,-1.5747 -1.2708,-2.2384 -0.3697,-0.6639 -0.6702,-1.1887 -0.8935,-1.5824 -0.2232,-0.3937 -0.3311,-0.5943 -0.3389,-0.602 -0.0154,0 -0.208,0 -0.5853,0 -0.3697,0 -0.8547,0 -1.4479,0 -0.6008,0 -1.2246,0 -1.8946,0 -0.67,0 -1.2939,0 -1.8946,0 -0.593,0 -1.0783,0 -1.4479,0 -0.3775,0 -0.57,0 -0.5854,0 0,0.0077 0,0.3165 0,0.9185 0,0.602 0,1.428 0,2.4931 0,1.0573 0,2.2847 0,3.674 0,1.3815 0,2.8712 0,4.4536 0,1.59 0,3.2031 0,4.8549 0,1.6517 0,3.2648 0,4.8548 0,1.5824 0,3.072 0,4.4536 0,1.3893 0,2.6165 0,3.674 0,1.0651 0,1.8909 0,2.4929 0,0.6021 0,0.9109 0,0.9186zm31.238 0c0.0077,0 0.2542,0 0.7394,0 0.4852,0 1.1475,0 1.987,0 0.8473,0 1.8023,0 2.8806,0 1.0782,0 2.2181,0 3.4118,0 1.1938,0 2.3953,0 3.589,0 1.1938,0 2.3335,0 3.4117,0 1.0784,0 2.0333,0 2.8806,0 0.8395,0 1.5017,0 1.9868,0 0.4855,0 0.7318,0 0.7396,0 0,-0.0154 0,-0.2161 0,-0.6098 0,-0.3858 0,-0.8952 0,-1.5128 0,-0.6252 0,-1.2812 0,-1.9759 0,-0.6945 0,-1.3507 0,-1.9758 0,-0.6176 0,-1.1269 0,-1.5129 0,-0.3937 0,-0.5944 0,-0.6098 -0.0078,0 -0.2003,0 -0.5701,0 -0.3772,0 -0.8779,0 -1.5094,0 -0.6315,0 -1.34,0 -2.1333,0 -0.7856,0 -1.602,0 -2.4415,0 -0.8395,0 -1.6558,0 -2.4416,0 -0.7932,0 -1.5017,0 -2.1332,0 -0.6316,0 -1.1321,0 -1.5096,0 -0.3696,0 -0.5621,0 -0.57,0 0,-0.0078 0,-0.2934 0,-0.8413 0,-0.5557 0,-1.3044 0,-2.2616 0,-0.957 0,-2.0453 0,-3.2725 0,-1.2272 0,-2.5163 0,-3.8824 0,-1.3585 0,-2.717 0,-4.0754 0,-1.3662 0,-2.6551 0,-3.8823 0,-1.2274 0,-2.3155 0,-3.2727 0,-0.957 0,-1.7058 0,-2.2615 0,-0.548 0,-0.8336 0,-0.8413 -0.0152,0 -0.2155,0 -0.616,0 -0.4004,0 -0.9088,0 -1.5404,0 -0.6314,0 -1.2939,0 -2.0024,0 -0.7086,0 -1.371,0 -2.0025,0 -0.6317,0 -1.14,0 -1.5404,0 -0.4004,0 -0.6007,0 -0.6161,0 0,0.0077 0,0.3165 0,0.9185 0,0.602 0,1.428 0,2.4931 0,1.0573 0,2.2847 0,3.674 0,1.3815 0,2.8712 0,4.4536 0,1.59 0,3.2031 0,4.8549 0,1.6517 0,3.2648 0,4.8548 0,1.5824 0,3.072 0,4.4536 0,1.3893 0,2.6165 0,3.674 0,1.0651 0,1.8909 0,2.4929 0,0.6021 0,0.9109 0,0.9186zm-165.301 -48.5749l-49.222 0c-4.1508,0 -7.5302,3.3868 -7.5302,7.5466l0 49.3293c0,4.1598 3.3794,7.5466 7.5302,7.5466l41.655 0 -1.9468 -6.7368 4.7018 4.344 4.4447 4.0863 7.9343 6.884 0 -65.4534c-0.0367,-4.1598 -3.4161,-7.5466 -7.567,-7.5466zm-14.1789 47.6726c0,0 -1.3224,-1.583 -2.4244,-2.945 4.812,-1.3621 6.6486,-4.344 6.6486,-4.344 -1.506,0.994 -2.9386,1.6934 -4.2243,2.172 -1.8367,0.773 -3.5999,1.2517 -5.3262,1.583 -3.5263,0.6626 -6.7588,0.4785 -9.5138,-0.0368 -2.0937,-0.405 -3.8937,-0.9572 -5.3997,-1.583 -0.8449,-0.3313 -1.7632,-0.7363 -2.6815,-1.2517 -0.1102,-0.0737 -0.2205,-0.1105 -0.3306,-0.184 -0.0735,-0.0368 -0.1102,-0.0737 -0.1469,-0.0737 -0.6613,-0.3682 -1.0285,-0.6258 -1.0285,-0.6258 0,0 1.7631,2.9082 6.4282,4.3071 -1.102,1.3989 -2.4611,3.0187 -2.4611,3.0187 -8.1179,-0.2577 -11.2035,-5.5588 -11.2035,-5.5588 0,-11.7433 5.2895,-21.2778 5.2895,-21.2778 5.2896,-3.939 10.2853,-3.8286 10.2853,-3.8286l0.3673 0.4418c-6.6119,1.8775 -9.624,4.7857 -9.624,4.7857 0,0 0.8081,-0.4417 2.1672,-1.0308 3.9305,-1.7302 7.0527,-2.1719 8.3384,-2.3192 0.2205,-0.0368 0.4041,-0.0737 0.6245,-0.0737 2.2406,-0.2945 4.7753,-0.3681 7.4201,-0.0736 3.4895,0.4049 7.2362,1.4357 11.0564,3.4972 0,0 -2.9019,-2.761 -9.1464,-4.6385l0.5143 -0.589c0,0 5.0324,-0.1104 10.2852,3.8286 0,0 5.2895,9.5345 5.2895,21.2778 0,-0.0368 -3.0855,5.2643 -11.2035,5.522l-0.0001 0.0001zm-3.6733 -17.0442c-2.0937,0 -3.7467,1.8038 -3.7467,4.0494 0,2.2456 1.6897,4.0494 3.7467,4.0494 2.0938,0 3.7468,-1.8038 3.7468,-4.0494 0,-2.2456 -1.6897,-4.0494 -3.7468,-4.0494zm-13.4074 0c-2.0937,0 -3.7468,1.8038 -3.7468,4.0494 0,2.2456 1.6898,4.0494 3.7468,4.0494 2.0938,0 3.7468,-1.8038 3.7468,-4.0494 0.0368,-2.2455 -1.6529,-4.0494 -3.7468,-4.0494z"/>
 </g>
</svg>
