<?xml version="1.0" standalone="no"?>
<!DOCTYPE svg PUBLIC "-//W3C//DTD SVG 20010904//EN"
 "http://www.w3.org/TR/2001/REC-SVG-20010904/DTD/svg10.dtd">
<svg version="1.0" xmlns="http://www.w3.org/2000/svg"
 width="2362.000000pt" height="1772.000000pt" viewBox="0 0 2362.000000 1772.000000"
 preserveAspectRatio="xMidYMid meet">

<g transform="translate(0.000000,1772.000000) scale(0.100000,-0.100000)"
fill="#000000" stroke="none">
<path d="M2140 9465 l0 -5295 9170 0 9170 0 0 1655 0 1655 460 0 460 0 0 3640
0 3640 -9630 0 -9630 0 0 -5295z m2662 5252 c-17 -20 -73 -186 -83 -247 -6
-30 -13 -86 -18 -125 -4 -38 -15 -84 -24 -102 -15 -28 -17 -68 -13 -355 2
-178 4 -340 4 -360 1 -21 7 -48 14 -60 8 -15 15 -85 20 -198 3 -96 9 -202 13
-235 l7 -60 -55 57 c-29 32 -70 65 -90 73 -34 14 -40 14 -75 -4 -21 -11 -43
-31 -50 -46 -17 -37 -15 -252 3 -334 8 -36 19 -104 25 -151 6 -47 15 -114 20
-150 5 -36 13 -97 19 -137 5 -39 15 -82 22 -95 7 -13 16 -45 21 -73 16 -106
26 -161 37 -188 6 -16 9 -32 6 -37 -3 -4 2 -27 11 -51 17 -44 23 -71 44 -188
6 -35 16 -73 22 -85 7 -12 16 -41 20 -66 23 -117 27 -138 33 -175 4 -22 15
-62 25 -90 10 -27 23 -77 29 -110 7 -33 19 -80 27 -105 19 -54 32 -108 44
-175 9 -49 28 -120 48 -180 22 -65 32 -102 32 -124 0 -12 7 -38 16 -59 15 -35
24 -66 40 -137 l6 -30 -26 30 c-38 44 -223 322 -307 460 -159 265 -376 712
-490 1012 -8 23 -75 63 -104 63 -57 0 -121 -81 -103 -130 5 -13 7 -45 5 -70
-2 -25 1 -54 7 -65 6 -11 13 -51 17 -90 3 -38 9 -79 13 -90 14 -37 -29 24 -82
114 -145 252 -204 356 -257 456 -85 160 -225 443 -225 456 0 6 -13 36 -29 67
-57 109 -108 227 -231 532 -12 30 -33 80 -46 110 -13 31 -32 83 -43 115 -11
33 -43 116 -71 185 -28 69 -58 148 -67 175 -8 28 -22 64 -31 80 -8 17 -27 64
-42 105 -73 199 -100 271 -109 287 -6 10 -17 38 -25 63 -8 25 -31 85 -50 135
-20 49 -36 96 -36 103 0 7 -8 27 -17 45 -23 42 -43 98 -43 119 0 36 -33 86
-67 102 -69 33 -135 10 -152 -52 -14 -47 -14 -266 -1 -311 5 -19 10 -112 10
-208 1 -136 5 -182 18 -211 9 -20 19 -82 24 -137 7 -96 15 -171 36 -335 5 -42
15 -87 23 -100 7 -14 17 -50 21 -80 13 -97 24 -154 41 -205 18 -55 27 -92 52
-205 9 -41 21 -83 27 -94 6 -11 19 -51 29 -90 20 -78 95 -294 128 -369 11 -27
21 -54 21 -60 0 -6 13 -40 29 -76 16 -36 40 -93 54 -126 13 -33 36 -86 51
-117 14 -32 24 -58 22 -58 -2 0 -15 18 -29 39 -15 22 -47 53 -71 70 -48 33
-217 108 -276 121 -19 5 -64 15 -100 23 -36 9 -78 20 -93 26 -60 23 -124 3
-151 -47 -14 -24 -15 122 -16 1311 l0 1337 1286 0 c1047 0 1284 -2 1276 -13z
m4218 -1167 l0 -1180 50 0 c28 0 50 -2 50 -4 0 -10 -123 -196 -127 -192 -2 2
3 41 11 86 20 102 20 105 0 124 -21 21 -176 23 -196 2 -8 -8 -35 -130 -64
-296 -45 -262 -59 -309 -80 -287 -3 3 15 122 40 265 50 283 52 302 34 320 -19
19 -182 16 -198 -3 -7 -9 -21 -57 -30 -108 l-16 -92 -33 98 c-20 60 -40 101
-51 107 -27 15 -173 13 -193 -2 -13 -10 -29 -81 -67 -296 -28 -156 -50 -285
-50 -287 0 -3 -13 -5 -29 -5 l-30 0 21 47 c19 43 98 448 98 503 0 42 -17 50
-111 50 -65 0 -90 -4 -99 -15 -7 -8 -30 -113 -51 -232 -21 -119 -46 -227 -55
-240 -12 -19 -23 -23 -47 -21 -28 3 -32 7 -35 34 -2 17 13 119 32 227 20 108
36 201 36 206 0 29 -33 41 -113 41 -45 0 -88 -4 -95 -9 -17 -10 -22 -35 -66
-293 -28 -160 -34 -217 -27 -251 8 -44 8 -45 -22 -51 -16 -3 -202 -6 -413 -6
l-384 0 -2 -887 -3 -888 -96 195 c-111 224 -169 350 -199 435 -12 33 -25 64
-29 70 -4 5 -13 28 -20 50 -7 22 -25 74 -41 115 -15 41 -33 95 -40 120 -6 25
-20 68 -30 95 -18 49 -23 68 -39 150 -7 36 -16 66 -51 181 -6 17 -10 45 -10
63 0 18 -4 40 -9 49 -5 9 -11 40 -14 68 -3 29 -11 62 -18 75 -13 24 -22 73
-38 199 -4 36 -12 74 -18 85 -6 11 -14 52 -18 90 -14 135 -68 182 -159 138
-31 -14 -40 -29 -77 -117 -23 -56 -50 -119 -60 -141 -9 -22 -22 -71 -29 -110
-6 -38 -16 -84 -21 -101 -5 -17 -9 -44 -10 -60 l-1 -29 -8 30 c-5 17 -18 68
-30 115 -12 47 -28 96 -35 110 -7 14 -21 61 -31 105 -9 44 -23 94 -30 110 -6
17 -17 48 -22 70 -6 22 -19 76 -30 120 -11 44 -24 94 -30 110 -6 17 -16 57
-22 90 -6 33 -18 83 -27 110 -9 28 -20 70 -25 95 -5 25 -13 68 -19 95 -5 28
-13 73 -17 101 -4 28 -15 63 -25 77 -9 15 -17 38 -17 52 0 13 -4 44 -10 67 -5
24 -14 66 -20 93 -6 28 -18 77 -27 110 -17 70 -31 145 -41 231 -4 33 -14 71
-23 85 -9 13 -19 49 -22 79 -16 130 -25 188 -32 200 -15 25 -43 172 -63 335
-5 39 -15 81 -22 95 -8 14 -17 50 -21 80 -4 30 -12 89 -17 130 -11 82 -34 163
-52 185 -11 13 244 15 2024 15 l2036 0 0 -1180z m9546 1148 c-25 -59 -36 -104
-36 -142 0 -20 -7 -53 -16 -74 -14 -34 -23 -86 -43 -237 -4 -33 -15 -75 -25
-93 -9 -19 -19 -55 -21 -80 -2 -26 -8 -78 -14 -117 -7 -38 -15 -95 -19 -125
-4 -30 -13 -65 -20 -77 -7 -13 -17 -55 -23 -95 -6 -40 -14 -95 -18 -123 -4
-27 -13 -61 -21 -75 -8 -14 -18 -49 -22 -77 -4 -29 -12 -77 -18 -105 -5 -29
-13 -78 -19 -109 -5 -31 -14 -65 -20 -76 -5 -11 -15 -49 -21 -84 -18 -100 -27
-138 -50 -224 -13 -44 -26 -100 -31 -125 -16 -87 -27 -135 -43 -180 -8 -25
-20 -72 -27 -105 -6 -33 -17 -78 -24 -100 -16 -50 -40 -136 -55 -195 -6 -25
-16 -58 -21 -75 -21 -59 -41 -131 -49 -170 -7 -40 -33 -116 -46 -137 -11 -17
-24 13 -24 56 0 22 -8 58 -18 80 -10 23 -24 64 -31 91 -7 28 -31 93 -55 145
-46 102 -83 140 -136 140 -30 0 -74 -30 -92 -63 -6 -12 -15 -58 -19 -102 -10
-110 -27 -202 -40 -228 -7 -12 -16 -51 -21 -87 -4 -36 -11 -87 -14 -115 -4
-27 -14 -61 -22 -74 -9 -13 -19 -44 -23 -70 -8 -53 -25 -142 -34 -186 -4 -16
-15 -52 -25 -80 -10 -27 -25 -79 -34 -115 -18 -77 -58 -198 -97 -295 -15 -38
-39 -99 -53 -135 -13 -36 -39 -96 -56 -135 -17 -38 -37 -83 -43 -100 -22 -56
-205 -420 -242 -480 -20 -33 -48 -81 -61 -107 -13 -27 -27 -48 -31 -48 -3 0
-4 177 -2 393 2 215 2 665 1 1000 l-2 607 -718 0 c-396 0 -760 3 -810 6 l-90
7 14 40 c17 47 18 125 3 164 -5 15 -22 40 -37 56 l-26 27 32 0 c60 0 90 60 79
157 -11 96 -83 145 -224 151 -165 8 -282 -49 -317 -153 l-13 -38 -7 47 c-5 30
-18 59 -37 80 l-29 34 0 1181 0 1181 2035 0 2035 0 -14 -32z m2714 -1288 l0
-1319 -36 24 c-47 32 -45 32 -209 -9 -150 -37 -189 -50 -296 -99 -74 -34 -124
-73 -167 -132 -22 -30 -21 -24 12 50 136 312 247 614 297 805 11 41 26 95 33
120 44 148 66 239 66 275 0 14 8 38 17 52 10 15 21 54 25 87 4 34 11 93 17
131 6 39 16 113 24 165 7 52 17 102 22 109 11 19 25 193 33 431 4 102 11 191
16 199 12 19 14 321 2 349 -5 13 -22 30 -37 38 -67 34 -145 -1 -167 -76 -23
-76 -62 -182 -93 -251 -16 -36 -29 -73 -29 -82 0 -9 -12 -42 -26 -74 -14 -32
-32 -78 -40 -103 -8 -25 -22 -58 -29 -75 -17 -35 -97 -245 -175 -460 -18 -49
-41 -103 -52 -120 -10 -16 -18 -37 -18 -46 0 -9 -17 -59 -39 -110 -21 -52 -44
-112 -51 -134 -7 -22 -19 -49 -26 -61 -8 -11 -22 -45 -33 -75 -34 -98 -116
-287 -263 -609 -70 -154 -258 -513 -360 -690 -91 -157 -156 -264 -173 -285
-15 -20 -16 -20 -5 2 6 13 15 71 20 130 6 60 13 126 16 149 9 62 -11 121 -49
144 -41 26 -63 25 -112 -3 -31 -18 -43 -32 -54 -67 -60 -195 -347 -770 -539
-1080 -110 -179 -261 -394 -270 -385 -2 2 3 23 11 47 8 24 20 70 27 103 6 33
18 75 26 94 14 32 20 54 44 166 8 39 15 65 45 170 26 92 35 132 35 154 0 12 7
32 15 45 15 22 24 61 45 181 7 45 19 91 48 195 19 65 32 130 32 155 0 14 8 37
17 52 9 14 21 49 25 77 17 112 27 164 42 221 8 33 20 83 26 110 6 28 15 69 20
93 6 23 10 60 10 82 0 23 8 53 18 67 10 16 20 59 25 103 21 215 28 298 35 430
10 177 5 203 -49 231 l-40 20 -45 -21 c-26 -13 -63 -45 -89 -77 l-45 -55 0 40
c0 22 6 55 13 73 9 23 14 94 16 211 2 98 7 195 12 215 11 48 4 698 -8 813 -5
47 -15 95 -21 107 -7 12 -12 30 -12 41 0 35 -63 227 -82 249 -8 11 240 13
1271 13 l1281 0 0 -1320z m-16390 1222 c0 -21 4 -42 10 -48 5 -5 14 -41 19
-79 5 -39 17 -106 26 -150 9 -44 20 -107 24 -140 4 -34 13 -70 19 -82 7 -12
12 -37 12 -55 0 -18 5 -49 11 -68 5 -19 14 -60 20 -90 5 -30 16 -89 24 -130 8
-41 19 -101 24 -132 5 -31 14 -72 19 -90 13 -42 31 -127 41 -200 5 -31 12 -62
17 -69 4 -8 12 -34 16 -59 12 -70 34 -173 40 -190 4 -8 9 -36 13 -62 3 -26 10
-50 16 -53 5 -4 9 -21 9 -39 0 -19 6 -56 14 -82 21 -72 38 -145 43 -179 3 -16
7 -37 10 -45 9 -21 32 -115 43 -174 5 -27 14 -54 20 -60 5 -5 10 -21 10 -35 0
-15 6 -46 14 -71 8 -25 22 -72 32 -105 9 -33 20 -71 25 -85 4 -14 11 -44 14
-67 4 -24 11 -45 16 -49 5 -3 9 -17 9 -32 0 -15 7 -40 15 -56 8 -15 15 -40 15
-55 0 -14 7 -35 15 -45 8 -11 15 -30 15 -43 0 -12 6 -37 14 -55 8 -18 22 -60
31 -93 9 -33 20 -68 26 -77 5 -10 9 -26 9 -35 0 -10 7 -31 15 -47 8 -15 15
-38 15 -51 0 -12 7 -28 15 -35 8 -7 15 -27 15 -45 0 -20 6 -35 15 -39 8 -3 15
-16 15 -30 0 -13 7 -37 15 -52 8 -16 15 -37 15 -46 0 -9 5 -20 10 -23 6 -3 10
-16 10 -29 0 -12 7 -31 15 -42 8 -10 15 -26 15 -34 0 -8 7 -28 15 -44 8 -15
15 -37 15 -47 0 -10 4 -20 9 -24 5 -3 13 -20 17 -37 3 -18 10 -39 15 -48 4 -8
15 -33 24 -55 9 -22 23 -53 31 -68 8 -16 14 -35 14 -42 0 -7 8 -28 17 -47 9
-18 22 -45 30 -60 7 -14 13 -33 13 -42 0 -9 5 -16 10 -16 6 0 10 -8 10 -18 0
-10 7 -27 15 -38 8 -10 15 -29 15 -40 0 -12 7 -27 15 -34 8 -7 15 -20 15 -30
0 -10 7 -23 15 -30 8 -7 15 -23 15 -36 0 -13 4 -24 9 -24 5 0 14 -13 20 -30 5
-16 15 -30 20 -30 6 0 11 -11 11 -24 0 -14 5 -28 10 -31 17 -11 23 24 8 48 -8
12 -18 34 -22 50 -3 15 -11 27 -16 27 -6 0 -10 11 -10 25 0 14 -7 28 -15 31
-8 4 -15 15 -15 25 0 11 -4 27 -10 37 -5 9 -16 35 -25 57 -9 22 -23 56 -32 75
-27 62 -40 94 -58 140 -10 25 -24 59 -31 77 -8 17 -14 38 -14 46 0 9 -4 19
-10 22 -5 3 -10 15 -10 27 0 11 -6 32 -14 46 -7 15 -21 54 -30 87 -10 33 -22
74 -28 90 -5 17 -14 48 -18 70 -4 22 -12 53 -19 68 -6 16 -11 42 -11 58 0 16
-4 37 -9 47 -29 56 -51 336 -31 406 6 22 15 66 20 96 12 73 33 156 43 166 4 4
7 14 7 23 0 9 7 29 15 45 8 15 15 34 15 41 0 7 7 18 15 25 8 7 15 23 15 36 0
12 4 25 9 29 15 9 31 -30 37 -88 3 -29 10 -65 15 -82 5 -16 13 -57 18 -90 6
-33 17 -94 25 -135 9 -41 21 -102 26 -134 6 -32 15 -67 20 -77 6 -10 10 -33
10 -51 1 -18 7 -44 15 -58 8 -14 14 -38 15 -54 0 -15 7 -49 15 -75 8 -25 21
-73 30 -106 9 -33 20 -68 26 -77 5 -10 9 -30 9 -46 0 -15 7 -37 15 -48 8 -10
15 -28 15 -40 0 -11 7 -29 15 -40 8 -10 15 -29 15 -40 0 -12 7 -35 15 -50 8
-16 15 -37 15 -46 0 -9 5 -20 10 -23 6 -3 10 -13 10 -22 0 -15 19 -65 46 -116
8 -16 14 -33 14 -38 0 -5 14 -39 31 -76 52 -114 59 -131 59 -142 0 -6 5 -11
10 -11 6 0 10 -8 10 -19 0 -10 7 -24 15 -31 8 -7 15 -23 15 -36 0 -12 4 -25 9
-28 5 -3 26 -41 47 -83 21 -43 42 -79 46 -81 5 -2 8 -12 8 -22 0 -9 7 -23 15
-30 8 -7 15 -20 15 -30 0 -10 7 -23 15 -30 8 -7 15 -16 15 -21 0 -5 17 -37 38
-71 21 -35 41 -70 45 -78 4 -8 11 -22 17 -30 46 -71 150 -251 150 -259 0 -6 4
-11 10 -11 5 0 16 -16 25 -35 9 -19 23 -39 31 -46 8 -6 14 -17 14 -25 0 -7 6
-19 13 -26 6 -7 25 -33 41 -57 l29 -44 -87 -496 c-48 -273 -89 -497 -91 -499
-2 -2 -6 6 -10 17 -3 12 -10 21 -14 21 -4 0 -12 10 -18 23 -13 27 -159 223
-206 274 -178 198 -238 261 -395 413 -321 310 -866 854 -903 900 -20 25 -60
70 -88 100 -74 80 -135 215 -158 345 -2 17 -11 44 -19 62 -8 17 -14 39 -14 49
0 10 -4 31 -10 48 -5 17 -16 58 -25 91 -25 95 -42 156 -58 215 -9 30 -18 66
-21 80 -3 14 -12 52 -21 85 -22 83 -44 171 -56 230 -6 28 -15 54 -20 60 -5 5
-9 23 -9 40 0 16 -6 50 -14 75 -8 25 -22 81 -32 125 -9 44 -20 89 -24 100 -8
21 -26 100 -39 175 -4 25 -13 58 -20 73 -6 16 -11 42 -11 58 0 17 -5 40 -11
51 -6 11 -15 44 -20 72 -4 28 -15 85 -24 126 -9 41 -20 99 -25 128 -4 29 -13
74 -19 100 -19 92 -35 198 -40 287 -3 50 -9 95 -13 101 -10 16 -19 244 -10
244 20 0 115 -116 137 -167 14 -32 30 -66 35 -75 6 -10 10 -28 10 -40 1 -13 7
-34 15 -48 8 -14 14 -42 15 -62 0 -20 5 -49 11 -65 6 -15 15 -53 19 -83 11
-70 33 -156 43 -166 4 -4 7 -19 7 -33 0 -14 7 -39 15 -55 8 -15 15 -37 15 -48
0 -11 6 -34 14 -51 8 -18 16 -43 19 -57 3 -14 11 -41 17 -60 28 -77 42 -116
50 -130 4 -9 11 -30 15 -48 3 -18 11 -32 16 -32 5 0 9 -11 9 -24 0 -13 7 -29
15 -36 8 -7 15 -20 15 -29 0 -10 7 -26 15 -37 8 -10 15 -29 15 -40 0 -12 7
-27 15 -34 8 -7 15 -20 15 -29 0 -9 7 -25 15 -35 8 -11 15 -28 15 -38 0 -10 5
-18 10 -18 6 0 10 -11 10 -24 0 -13 7 -29 15 -36 8 -7 15 -18 15 -25 0 -8 6
-26 14 -42 17 -33 87 -191 100 -223 3 -8 10 -22 15 -30 26 -45 41 -80 41 -93
0 -9 3 -17 8 -19 8 -4 38 -63 47 -95 3 -13 11 -23 16 -23 5 0 9 -11 9 -24 0
-13 7 -26 15 -30 8 -3 15 -15 15 -26 0 -11 7 -23 15 -26 8 -4 15 -17 15 -30 0
-14 7 -27 15 -30 8 -4 15 -12 15 -20 0 -8 5 -14 10 -14 6 0 10 7 10 15 0 8 -4
15 -10 15 -5 0 -10 9 -10 19 0 11 -7 26 -15 35 -8 8 -15 24 -15 36 0 11 -7 23
-15 26 -8 4 -15 18 -15 34 0 16 -7 30 -16 34 -9 3 -14 13 -10 21 3 8 -1 20 -8
27 -7 7 -16 26 -20 41 -3 15 -11 27 -16 27 -6 0 -10 11 -10 24 0 13 -7 29 -15
36 -8 7 -15 19 -15 26 0 8 -4 22 -10 32 -5 9 -16 35 -25 57 -25 59 -55 128
-66 147 -5 10 -9 24 -9 32 0 8 -8 29 -17 48 -9 18 -22 45 -30 60 -7 14 -13 33
-13 41 0 8 -7 28 -15 43 -8 16 -15 37 -15 46 0 9 -4 19 -9 22 -5 3 -12 23 -16
43 -4 21 -10 43 -15 48 -4 6 -10 21 -13 35 -3 14 -10 39 -16 55 -5 17 -17 57
-26 90 -9 33 -20 68 -26 77 -5 10 -9 30 -9 46 0 15 -7 37 -15 48 -8 10 -15 30
-15 44 0 14 -7 38 -15 54 -8 15 -15 42 -15 58 0 16 -5 38 -10 49 -6 10 -15 38
-20 61 -5 24 -16 75 -25 113 -9 39 -20 97 -25 130 -6 33 -14 69 -19 80 -6 11
-12 56 -15 100 -3 44 -10 100 -15 125 -6 25 -10 99 -11 165 0 67 -4 125 -9
130 -5 6 -13 101 -17 213 -4 111 -11 205 -15 208 -12 7 -12 601 -1 608 5 3 12
44 16 92 3 47 11 94 16 104 6 10 10 35 10 54 0 19 6 50 14 68 8 18 23 61 32
96 20 70 34 80 34 24z m13770 18 c0 -10 6 -34 14 -52 27 -64 39 -104 47 -153
4 -27 12 -72 18 -100 5 -27 10 -70 10 -96 1 -25 6 -50 11 -55 22 -22 -7 -985
-30 -1026 -6 -10 -10 -71 -10 -135 -1 -65 -5 -138 -11 -163 -6 -25 -13 -81
-16 -125 -3 -44 -9 -88 -14 -98 -6 -9 -14 -45 -19 -80 -10 -72 -30 -160 -59
-271 -12 -44 -21 -89 -21 -100 0 -12 -7 -30 -15 -40 -8 -11 -15 -32 -15 -47 0
-15 -7 -40 -15 -55 -8 -16 -15 -41 -15 -56 0 -15 -4 -29 -9 -32 -5 -3 -12 -23
-16 -43 -4 -21 -10 -42 -15 -48 -4 -5 -10 -26 -13 -45 -5 -38 -22 -90 -43
-132 -8 -14 -14 -36 -14 -47 0 -12 -4 -29 -9 -39 -6 -9 -19 -45 -31 -80 -11
-34 -24 -70 -29 -80 -5 -9 -17 -37 -26 -62 -10 -25 -24 -60 -32 -77 -28 -67
-42 -99 -58 -138 -9 -22 -20 -48 -25 -57 -6 -10 -10 -24 -10 -32 0 -7 -7 -19
-15 -26 -8 -7 -15 -21 -15 -32 0 -11 -7 -26 -15 -34 -8 -9 -15 -24 -15 -35 0
-10 -4 -19 -10 -19 -5 0 -10 -11 -10 -24 0 -13 -7 -29 -15 -36 -8 -7 -15 -20
-15 -30 0 -10 -7 -23 -15 -30 -8 -7 -15 -23 -15 -36 0 -13 -4 -24 -8 -24 -8 0
-42 -68 -42 -83 0 -4 5 -7 10 -7 6 0 10 6 10 14 0 8 7 16 15 20 8 3 15 16 15
30 0 13 7 26 15 30 8 3 15 15 15 26 0 11 7 23 15 26 8 4 15 16 15 29 0 12 7
28 15 35 8 7 15 21 15 31 0 11 5 19 10 19 6 0 10 5 10 11 0 6 14 41 31 78 62
130 126 271 157 341 8 19 21 47 29 62 7 14 13 33 13 42 0 9 4 16 9 16 5 0 12
13 16 30 4 16 11 32 16 35 5 4 9 14 9 24 0 10 7 24 15 31 8 7 15 23 15 35 0
12 7 28 15 35 8 7 15 21 15 30 0 10 6 31 14 47 30 60 70 158 86 208 7 22 19
55 26 73 8 18 14 41 14 51 0 10 7 32 15 47 8 16 15 39 15 50 0 12 7 35 15 50
8 16 15 41 15 56 0 15 4 29 9 32 5 4 12 29 16 56 4 27 11 52 16 56 5 3 9 22 9
43 0 21 7 55 15 74 8 20 15 53 15 73 0 35 19 105 47 171 7 17 13 38 13 47 0 9
4 16 9 16 5 0 12 11 15 24 6 25 112 146 127 146 11 0 1 -230 -10 -244 -5 -6
-11 -54 -14 -106 -4 -92 -17 -186 -39 -280 -5 -25 -14 -72 -19 -105 -5 -33
-16 -91 -25 -130 -8 -38 -19 -92 -23 -120 -4 -27 -12 -60 -19 -72 -7 -12 -12
-35 -12 -52 0 -16 -5 -42 -11 -58 -6 -15 -15 -48 -20 -73 -18 -96 -32 -156
-39 -175 -4 -11 -15 -56 -24 -100 -10 -44 -22 -93 -28 -110 -6 -16 -13 -52
-17 -80 -4 -27 -11 -57 -16 -65 -5 -8 -12 -32 -17 -55 -4 -22 -14 -69 -23
-105 -9 -36 -20 -84 -25 -108 -5 -23 -14 -51 -20 -61 -5 -11 -10 -32 -10 -48
-1 -15 -7 -39 -15 -53 -8 -14 -14 -37 -15 -51 0 -15 -7 -43 -15 -62 -8 -20
-15 -49 -15 -65 0 -15 -4 -32 -9 -37 -5 -6 -13 -30 -19 -55 -6 -25 -18 -70
-27 -100 -9 -30 -20 -73 -24 -95 -4 -22 -13 -50 -19 -62 -7 -12 -12 -33 -12
-46 0 -14 -7 -38 -15 -53 -8 -16 -15 -36 -15 -46 0 -9 -3 -18 -7 -20 -5 -1
-17 -20 -27 -41 -11 -21 -54 -74 -95 -118 -42 -45 -80 -89 -84 -98 -5 -9 -164
-169 -353 -356 -741 -729 -923 -915 -974 -990 -8 -12 -48 -66 -87 -119 -40
-52 -73 -99 -73 -102 0 -3 -10 -20 -22 -37 -13 -17 -28 -41 -35 -52 -18 -33
-114 -228 -122 -250 -22 -58 -41 -125 -41 -143 0 -12 -7 -47 -15 -79 -17 -66
-19 -170 -4 -228 6 -22 13 -53 16 -70 2 -16 11 -44 19 -62 8 -17 14 -37 15
-45 0 -7 9 -26 20 -43 10 -16 22 -37 25 -45 4 -8 13 -22 20 -30 7 -8 14 -36
17 -62 3 -25 8 -51 12 -57 3 -6 3 -17 -2 -23 -4 -7 -9 -35 -11 -61 -2 -26 -10
-60 -18 -75 -8 -15 -14 -32 -14 -39 0 -6 -3 -13 -7 -15 -5 -1 -17 -21 -28 -43
-45 -91 -229 -235 -299 -235 -12 0 -34 -7 -50 -15 -15 -8 -49 -15 -75 -15
l-46 0 -33 106 -33 106 23 21 c13 12 39 45 58 72 19 28 37 52 40 55 11 11 40
72 40 85 0 7 7 18 15 25 8 7 15 27 15 44 0 18 6 38 13 44 17 18 23 414 6 485
-6 29 -15 75 -20 102 -4 28 -13 70 -19 95 -7 25 -18 70 -25 100 -7 30 -18 78
-25 105 -6 28 -14 86 -17 130 -2 44 -9 90 -15 102 -6 12 -8 34 -5 50 4 15 9
43 13 61 4 19 37 75 75 125 121 161 251 442 310 672 21 83 52 150 86 183 7 7
13 20 13 28 0 8 4 14 8 14 5 0 18 19 31 43 12 23 44 76 71 117 28 41 55 84 60
95 6 11 24 43 40 70 16 28 35 59 40 70 6 11 24 43 40 70 16 28 41 74 55 102
14 29 30 55 36 58 5 4 9 15 9 25 0 10 4 20 9 22 4 2 25 38 45 80 21 43 41 80
47 83 5 4 9 17 9 29 0 13 7 29 15 36 8 7 15 21 15 31 0 11 4 19 9 19 5 0 12
10 16 23 6 22 13 39 41 105 52 120 75 173 85 194 5 10 9 23 9 30 0 7 6 25 14
40 8 15 17 40 21 57 4 17 11 33 16 36 5 4 9 18 9 33 0 15 7 36 15 46 8 11 15
32 15 48 0 15 4 28 10 28 5 0 12 17 15 38 3 20 10 45 15 54 10 18 24 69 40
146 5 23 14 51 20 61 5 11 10 35 10 53 1 18 7 44 15 58 8 14 14 40 15 58 0 18
4 41 10 51 5 10 14 45 20 77 6 32 17 93 26 134 8 41 19 102 25 135 5 33 13 74
18 90 5 17 12 53 15 82 6 58 22 97 37 88 5 -4 9 -17 9 -29 0 -13 7 -29 15 -36
8 -7 15 -18 15 -25 0 -7 7 -26 15 -41 8 -16 15 -37 15 -46 0 -9 5 -20 10 -23
6 -3 10 -16 10 -28 0 -12 6 -42 14 -67 42 -132 57 -305 35 -411 -6 -30 -14
-79 -19 -109 -13 -82 -29 -152 -39 -175 -6 -11 -12 -36 -14 -55 -3 -19 -9 -48
-15 -65 -6 -16 -18 -57 -28 -90 -9 -33 -23 -74 -31 -92 -7 -17 -13 -35 -13
-41 0 -5 -7 -23 -15 -38 -8 -16 -15 -37 -15 -46 0 -9 -4 -20 -10 -23 -5 -3
-10 -15 -10 -25 0 -10 -6 -31 -14 -47 -15 -30 -35 -74 -61 -138 -18 -43 -43
-99 -56 -127 -5 -10 -9 -26 -9 -37 0 -10 -7 -21 -15 -25 -8 -3 -15 -16 -15
-30 0 -13 -7 -26 -15 -30 -8 -3 -15 -14 -15 -25 0 -10 -6 -31 -14 -46 -18 -34
-11 -61 11 -43 8 6 12 20 10 29 -3 10 1 20 9 23 8 3 14 15 14 26 0 11 7 23 15
26 8 4 15 16 15 29 0 12 7 28 15 35 8 7 15 20 15 29 0 9 7 25 15 35 8 11 15
27 15 37 0 9 7 22 15 29 8 7 15 23 15 36 0 13 5 24 10 24 6 0 10 11 10 24 0
13 7 29 15 36 8 7 15 20 15 29 0 10 7 26 15 37 8 10 15 27 15 36 0 9 6 29 14
45 8 15 22 46 32 68 9 22 21 48 25 57 5 10 9 26 9 36 0 10 7 27 15 38 8 10 15
28 15 39 0 11 7 29 15 39 8 11 15 30 15 42 0 13 4 25 9 29 5 3 13 20 17 37 3
18 10 39 14 48 25 50 40 94 40 114 0 13 7 29 15 36 8 7 15 25 15 40 0 15 7 33
15 40 8 7 15 24 15 39 0 14 7 35 15 45 8 11 15 30 15 42 0 12 7 35 15 50 8 16
15 36 15 44 0 8 11 47 25 85 13 39 25 79 25 90 0 11 7 29 15 39 8 11 15 32 15
47 0 15 7 40 15 55 8 16 15 41 15 56 0 15 5 30 10 33 6 3 10 14 10 24 0 10 7
43 16 72 8 30 22 79 30 109 9 30 22 75 30 100 8 25 14 56 14 71 0 14 5 30 10
35 6 6 15 33 19 60 11 59 47 211 67 276 8 26 14 55 14 65 0 10 7 36 15 58 8
22 14 56 15 76 0 19 4 39 9 45 6 5 14 34 20 64 5 30 17 87 26 125 9 39 20 93
24 121 5 28 14 61 20 72 6 11 11 36 11 55 0 19 7 51 15 70 8 20 15 53 15 72 0
20 5 45 10 56 6 10 15 47 20 82 5 34 16 98 25 142 9 44 20 103 25 130 4 28 13
63 19 78 6 16 11 45 11 66 0 21 7 55 15 74 8 20 15 55 15 77 0 23 4 49 9 58 9
16 15 50 42 232 6 36 15 69 20 75 5 5 9 26 9 47 0 21 5 38 10 38 6 0 10 -9 10
-20z m-16142 -86 c6 -38 34 -124 43 -130 5 -3 9 -16 9 -29 0 -13 7 -30 15 -39
8 -8 15 -23 15 -33 0 -11 7 -28 15 -39 8 -10 15 -27 15 -36 0 -16 19 -67 41
-110 5 -10 9 -23 9 -29 0 -12 22 -66 46 -112 8 -16 14 -36 14 -46 0 -9 7 -26
15 -37 8 -10 15 -28 15 -39 0 -11 7 -29 15 -39 8 -11 15 -28 15 -38 0 -10 4
-26 9 -36 23 -42 41 -86 41 -101 0 -9 6 -25 13 -36 8 -11 16 -29 20 -40 15
-54 66 -185 93 -238 8 -16 14 -36 14 -46 0 -9 7 -26 15 -37 8 -10 15 -27 15
-36 0 -9 7 -29 15 -45 8 -15 28 -64 45 -108 39 -100 48 -123 66 -158 8 -16 14
-37 14 -47 0 -9 7 -23 15 -30 8 -7 15 -21 15 -30 0 -10 6 -31 14 -47 8 -15 25
-53 39 -83 13 -30 33 -75 45 -100 11 -25 32 -72 47 -105 48 -109 85 -187 153
-320 16 -33 33 -67 36 -75 4 -8 22 -42 41 -75 19 -33 45 -82 59 -110 14 -27
36 -68 48 -90 29 -51 89 -154 105 -180 7 -11 17 -29 23 -40 6 -11 19 -33 29
-50 11 -16 29 -47 41 -69 11 -21 37 -64 58 -95 20 -31 45 -72 55 -91 11 -19
29 -48 41 -65 11 -16 26 -39 33 -50 6 -11 32 -52 56 -91 25 -39 48 -81 52 -95
4 -13 10 -26 14 -29 13 -10 41 -72 41 -90 0 -9 7 -23 15 -30 8 -7 15 -21 15
-31 0 -11 4 -19 8 -19 5 0 16 -19 26 -42 18 -44 50 -111 65 -138 5 -8 29 -56
54 -106 24 -49 49 -99 55 -110 6 -10 13 -26 16 -34 4 -8 15 -28 26 -45 11 -16
23 -37 26 -45 3 -8 8 -19 10 -25 2 -5 18 -32 34 -60 17 -27 35 -59 40 -70 6
-11 19 -33 30 -50 11 -16 23 -38 26 -47 4 -10 10 -18 15 -18 5 0 9 -6 9 -13 0
-8 9 -24 20 -37 11 -13 20 -29 20 -37 0 -7 4 -13 9 -13 5 0 11 -8 15 -17 6
-19 24 -49 41 -69 6 -6 17 -22 25 -34 8 -12 27 -39 41 -59 14 -20 28 -44 32
-53 3 -10 11 -18 17 -18 5 0 10 -7 10 -16 0 -13 -11 -15 -67 -12 -38 3 -94 11
-126 18 -31 7 -61 10 -65 6 -3 -4 2 -22 12 -39 10 -18 28 -50 39 -72 12 -22
23 -42 26 -45 4 -3 15 -23 26 -45 37 -74 192 -304 232 -343 7 -7 13 -16 13
-20 0 -4 21 -29 45 -57 67 -75 76 -85 130 -149 28 -33 78 -88 113 -124 40 -41
62 -72 62 -87 0 -13 -18 -58 -41 -102 -40 -76 -41 -81 -42 -183 -2 -120 9
-160 80 -275 71 -116 258 -291 426 -398 32 -21 35 -37 6 -37 -11 0 -33 -6 -47
-14 -33 -16 -101 -35 -162 -44 -55 -8 -61 -27 -30 -92 27 -59 85 -148 110
-170 3 -3 27 -32 52 -65 123 -160 391 -375 469 -375 10 0 20 -4 24 -9 3 -5 18
-12 34 -16 16 -3 38 -16 50 -29 l21 -22 -20 -42 c-14 -28 -42 -58 -85 -89 -73
-54 -84 -87 -42 -120 13 -10 29 -28 36 -41 6 -12 16 -22 21 -22 6 0 40 -25 77
-55 38 -30 73 -55 79 -55 6 0 17 -7 24 -15 7 -8 21 -15 31 -15 11 0 19 -4 19
-8 0 -5 19 -16 43 -26 23 -10 55 -25 71 -32 16 -8 38 -14 48 -14 11 0 32 -6
46 -14 37 -19 91 -37 127 -44 17 -2 39 -11 50 -18 11 -8 29 -14 41 -14 17 0
32 -19 69 -85 89 -159 258 -338 414 -442 87 -58 246 -137 356 -178 91 -34 316
-94 408 -110 42 -7 45 -13 20 -42 -10 -11 -44 -54 -76 -95 -71 -90 -280 -298
-402 -398 -49 -41 -101 -85 -115 -97 -14 -13 -28 -23 -32 -23 -3 0 -13 -6 -20
-13 -16 -17 -149 -113 -208 -152 -196 -128 -406 -210 -571 -222 l-65 -5 1 94
c1 93 15 169 41 220 8 14 14 31 14 37 0 13 70 129 114 189 57 79 165 217 203
261 21 24 47 58 58 75 10 17 22 33 25 36 14 11 186 247 199 272 20 39 4 49
-22 15 -35 -46 -237 -249 -291 -292 -27 -22 -56 -47 -65 -56 -32 -32 -252
-186 -301 -212 -8 -4 -28 -16 -45 -27 -47 -30 -207 -110 -220 -110 -7 0 -18
-7 -25 -15 -7 -8 -22 -15 -34 -15 -12 0 -26 -4 -31 -9 -6 -5 -44 -18 -85 -30
-41 -12 -83 -26 -92 -32 -35 -18 -39 -11 -32 54 4 34 10 67 15 73 8 10 18 59
39 199 5 33 6 106 3 161 -5 85 -3 106 12 130 29 49 257 204 300 204 7 0 18 7
25 15 7 8 23 15 36 15 15 0 24 6 24 16 0 10 5 14 15 10 9 -3 32 3 53 14 20 11
42 20 49 20 7 0 13 5 13 10 0 6 11 10 25 10 14 0 28 7 31 15 4 8 16 15 29 15
13 0 25 7 29 15 3 8 15 15 26 15 11 0 23 6 26 14 3 8 15 17 27 20 18 5 20 8 7
16 -11 7 -18 5 -26 -5 -6 -8 -21 -15 -33 -15 -12 0 -24 -7 -27 -15 -4 -8 -16
-15 -29 -15 -12 0 -28 -7 -35 -15 -7 -8 -21 -15 -31 -15 -11 0 -19 -4 -19 -10
0 -5 -11 -10 -24 -10 -13 0 -29 -7 -36 -15 -7 -8 -21 -15 -31 -15 -9 0 -24 -7
-33 -15 -8 -8 -26 -15 -39 -15 -14 0 -30 -7 -37 -15 -7 -8 -22 -15 -34 -15
-12 0 -27 -5 -33 -11 -10 -10 -37 -19 -133 -41 -25 -5 -49 -14 -55 -19 -5 -5
-24 -9 -41 -9 -18 0 -45 -5 -61 -11 -42 -17 -201 -31 -348 -33 l-130 -1 3 55
c2 30 10 63 18 74 8 11 14 30 14 43 0 12 4 24 9 28 5 3 12 19 16 35 4 17 10
30 15 30 4 0 11 12 15 27 9 36 157 181 215 211 25 12 52 27 60 31 8 5 26 13
40 19 74 31 111 47 166 73 33 16 63 29 67 29 9 0 148 87 175 109 28 25 28 31
-3 31 -14 0 -25 -4 -25 -9 0 -10 -182 -101 -202 -101 -8 0 -23 -7 -34 -15 -10
-8 -30 -15 -44 -15 -15 0 -30 -4 -36 -10 -14 -14 -93 -30 -196 -40 -49 -5 -93
-12 -100 -16 -7 -5 -58 -12 -113 -16 -55 -4 -125 -12 -155 -17 -72 -12 -419
-12 -495 1 -33 5 -116 13 -185 17 -69 4 -137 14 -152 21 -25 12 -27 16 -21 54
9 59 57 156 103 209 22 25 40 47 40 50 0 2 39 45 88 95 91 95 136 122 201 122
20 0 49 7 65 15 15 8 38 15 50 15 11 0 53 6 91 14 63 13 116 22 280 47 73 11
148 28 167 39 10 6 29 10 42 10 14 0 31 6 39 14 7 8 24 16 37 18 40 5 36 28
-4 28 -20 0 -36 -4 -36 -9 0 -9 -70 -26 -180 -41 -36 -6 -76 -14 -90 -19 -94
-35 -751 -32 -874 5 -27 7 -67 14 -88 14 -22 0 -47 4 -57 10 -10 5 -43 14 -72
19 -30 5 -81 17 -114 26 -33 9 -77 20 -97 24 -21 5 -43 13 -50 18 -7 6 -26 13
-43 16 -27 4 -60 15 -120 38 -11 4 -45 15 -75 24 -86 27 -100 34 -106 50 -6
15 -4 22 19 60 7 11 25 42 41 69 59 100 162 203 252 251 82 44 116 53 175 44
30 -5 79 -11 109 -15 30 -4 60 -11 67 -16 18 -14 588 -21 718 -9 121 11 231
28 247 37 28 18 -30 24 -252 25 -135 0 -250 5 -255 9 -6 5 -64 11 -130 15 -66
3 -142 10 -170 15 -27 5 -104 16 -170 25 -66 9 -142 23 -169 31 -26 8 -59 14
-71 14 -13 0 -36 5 -52 11 -15 6 -46 14 -68 19 -105 23 -141 33 -150 41 -5 5
-21 9 -35 9 -14 0 -35 7 -46 15 -10 8 -30 15 -44 15 -14 0 -34 7 -44 15 -11 8
-28 15 -37 15 -10 0 -30 6 -46 14 -15 8 -41 20 -58 26 -67 27 -95 40 -208 96
-65 32 -123 64 -129 71 -6 7 -18 13 -28 13 -10 0 -23 7 -30 15 -7 8 -18 15
-24 15 -6 0 -26 14 -45 30 -18 17 -39 30 -46 30 -11 0 -31 30 -23 34 41 23
196 96 204 96 6 0 17 7 24 15 7 8 21 15 31 15 11 0 27 4 37 9 46 25 87 41 106
41 12 0 34 7 50 15 38 20 183 20 210 0 11 -8 28 -15 38 -15 10 0 26 -4 36 -9
43 -24 86 -41 102 -41 9 0 25 -7 36 -15 10 -8 30 -15 44 -15 14 0 34 -7 44
-15 11 -8 32 -15 46 -15 15 0 30 -3 33 -6 11 -11 110 -43 133 -44 11 0 29 -7
40 -15 10 -8 33 -15 50 -15 17 0 48 -7 67 -15 20 -8 51 -15 70 -15 18 0 38 -5
44 -11 13 -13 97 -25 273 -39 69 -6 141 -14 161 -20 56 -15 332 -13 327 3 -3
8 -29 13 -73 14 -37 1 -93 7 -124 14 -31 6 -92 15 -136 20 -176 19 -213 25
-345 59 -25 7 -63 14 -85 17 -22 3 -45 9 -51 14 -6 5 -32 12 -58 15 -25 4 -46
10 -46 15 0 4 -17 11 -37 14 -21 4 -47 10 -58 15 -50 20 -112 40 -127 40 -8 0
-21 7 -28 15 -7 8 -25 15 -40 15 -15 0 -33 7 -40 15 -7 8 -23 15 -36 15 -13 0
-24 4 -24 9 0 5 -10 13 -22 16 -27 8 -72 27 -143 60 -27 13 -57 27 -65 30 -8
3 -31 15 -50 26 -19 12 -48 29 -65 38 -16 9 -49 29 -72 44 -24 15 -47 27 -53
27 -5 0 -10 4 -10 9 0 5 -10 13 -22 17 -12 3 -26 10 -32 15 -6 5 -56 42 -111
82 -169 122 -258 198 -433 370 -99 98 -277 286 -302 319 -27 36 -134 163 -142
169 -13 9 1 36 27 53 20 13 66 16 257 18 l233 3 105 -71 c213 -143 297 -199
316 -211 10 -7 57 -36 103 -65 46 -29 95 -61 110 -70 31 -20 60 -37 121 -68
25 -13 47 -27 50 -31 3 -3 15 -9 28 -13 12 -4 22 -12 22 -17 0 -5 9 -9 19 -9
11 0 22 -4 25 -9 3 -5 23 -18 43 -29 21 -11 60 -31 87 -46 27 -14 55 -26 63
-26 7 0 16 -7 19 -15 4 -8 14 -15 24 -15 11 0 21 -4 25 -9 3 -5 19 -12 35 -16
17 -4 30 -11 30 -16 0 -5 5 -9 12 -9 11 0 106 -42 171 -75 16 -8 36 -15 45
-15 9 0 26 -7 36 -15 11 -8 30 -15 43 -15 13 0 23 -4 23 -10 0 -5 17 -12 38
-16 20 -4 42 -10 47 -14 6 -4 26 -11 45 -15 19 -4 41 -11 50 -15 37 -17 120
-40 149 -40 17 0 31 -4 31 -9 0 -14 38 -24 66 -17 34 9 20 26 -21 26 -20 0
-35 6 -39 15 -3 9 -18 15 -39 15 -19 0 -40 7 -47 15 -7 8 -21 15 -31 15 -10 0
-35 7 -56 16 -21 9 -49 21 -63 26 -14 6 -38 16 -53 24 -16 8 -35 14 -42 14 -7
0 -26 6 -42 14 -15 8 -44 21 -63 29 -114 49 -303 140 -390 186 -19 11 -42 22
-50 25 -8 4 -28 15 -45 26 -16 11 -39 24 -50 30 -11 5 -42 23 -70 40 -27 16
-57 33 -65 37 -8 4 -49 31 -92 60 -43 29 -80 53 -84 53 -3 0 -23 14 -44 30
-21 17 -41 30 -44 30 -4 0 -12 5 -19 10 -45 38 -61 50 -67 50 -4 0 -20 12 -36
27 -16 15 -45 38 -64 51 -19 13 -48 36 -65 50 -16 15 -59 50 -95 77 -70 53
-467 445 -542 535 -75 90 -133 164 -154 195 -10 17 -24 34 -31 38 -7 4 -13 14
-13 22 0 7 -4 15 -8 17 -19 8 -190 286 -242 393 -18 39 -37 71 -42 73 -11 5
-10 42 1 42 6 0 13 -4 16 -10 3 -5 48 -10 98 -10 51 0 117 -7 147 -15 30 -8
69 -15 87 -15 49 0 133 -49 193 -114 107 -114 576 -582 638 -636 35 -30 78
-68 96 -85 101 -94 258 -225 366 -304 47 -34 98 -72 114 -84 16 -12 34 -24 40
-27 6 -3 38 -23 71 -45 79 -52 84 -54 273 -151 90 -46 172 -84 182 -84 10 0
23 -7 30 -15 15 -18 63 -20 58 -2 -3 6 -15 14 -29 15 -13 2 -28 10 -32 18 -4
8 -17 14 -27 14 -11 0 -20 4 -20 9 0 5 -10 13 -22 17 -13 4 -48 23 -78 43 -30
20 -59 38 -65 41 -22 11 -124 80 -136 92 -8 8 -30 23 -49 35 -19 12 -44 30
-55 40 -11 10 -38 30 -60 46 -38 26 -83 61 -170 132 -22 18 -67 54 -100 81
-33 26 -82 68 -109 93 -27 25 -62 57 -79 71 -45 38 -358 352 -389 391 -16 19
-45 53 -66 75 -22 23 -61 70 -88 105 -26 35 -51 66 -54 69 -4 3 -35 43 -69 90
-33 47 -65 90 -69 95 -26 36 -124 187 -142 220 -12 22 -30 54 -40 70 -18 29
-128 250 -155 310 -7 17 -24 55 -38 85 -13 30 -28 70 -31 87 -4 18 -12 35 -17
38 -5 4 -9 16 -9 28 0 12 -7 31 -15 41 -8 11 -15 31 -15 45 -1 14 -7 37 -15
51 -8 14 -14 37 -15 52 0 15 -4 30 -10 33 -5 3 -10 19 -10 34 0 16 -7 48 -15
71 -8 23 -15 55 -15 71 0 31 17 39 26 14 5 -11 22 -15 68 -15 59 0 133 -18
188 -46 14 -8 33 -14 42 -14 15 0 65 -20 121 -48 46 -23 92 -70 143 -147 44
-66 144 -206 178 -250 9 -11 28 -38 42 -60 15 -22 32 -44 38 -50 6 -5 26 -32
45 -60 19 -27 37 -52 40 -55 4 -3 19 -24 35 -46 39 -56 236 -318 243 -324 3
-3 11 -12 16 -21 6 -9 30 -41 54 -70 23 -30 57 -72 75 -93 17 -22 42 -51 56
-65 14 -14 43 -48 64 -76 43 -54 312 -324 364 -365 18 -14 45 -37 61 -51 16
-14 57 -48 92 -75 75 -57 85 -65 104 -81 7 -7 20 -13 29 -13 8 0 19 -8 25 -17
5 -10 12 -15 16 -11 9 8 -24 58 -39 58 -26 1 -370 340 -511 505 -27 32 -63 72
-78 89 -16 17 -50 58 -75 91 -25 33 -51 65 -58 70 -6 6 -30 35 -52 66 -22 31
-46 62 -54 70 -7 8 -17 22 -23 31 -10 16 -76 112 -135 196 -16 23 -30 45 -30
49 0 3 -11 20 -24 37 -13 17 -32 47 -43 66 -10 19 -34 59 -53 89 -35 57 -63
107 -127 231 -21 41 -41 76 -45 78 -5 2 -8 10 -8 18 0 16 -39 92 -51 100 -5 3
-9 16 -9 28 0 13 -7 29 -15 36 -8 7 -15 18 -15 25 0 12 -22 61 -66 148 -8 16
-14 37 -14 47 0 9 -7 23 -15 30 -8 7 -15 21 -15 31 0 11 -4 27 -9 37 -22 39
-40 84 -46 112 -4 16 -11 32 -16 35 -5 4 -9 16 -9 28 0 13 -6 31 -14 42 -7 11
-16 31 -19 45 -3 14 -11 41 -17 60 -7 19 -16 44 -20 55 -4 11 -15 47 -25 80
-9 33 -23 78 -31 100 -8 23 -14 49 -14 59 0 10 -6 32 -14 49 -8 18 -17 46 -20
62 -3 17 -12 59 -21 95 -26 104 -44 190 -55 258 -6 35 -15 72 -20 82 -6 10
-10 36 -10 57 0 21 -7 65 -15 96 -8 32 -15 81 -15 108 0 28 -4 59 -10 69 -5
10 -12 69 -16 131 -4 63 -10 121 -14 129 -4 8 -11 154 -15 324 -6 255 -4 307
7 304 7 -3 14 -13 16 -24z m18518 -276 c-4 -167 -11 -316 -16 -333 -5 -16 -14
-82 -20 -145 -15 -164 -27 -259 -39 -305 -6 -22 -11 -57 -11 -78 0 -21 -5 -47
-10 -57 -6 -10 -14 -45 -20 -77 -12 -75 -34 -181 -55 -263 -9 -36 -19 -81 -22
-100 -3 -19 -12 -44 -19 -55 -8 -11 -14 -33 -14 -50 -1 -16 -7 -41 -15 -55 -8
-14 -14 -35 -15 -48 0 -12 -4 -30 -9 -40 -5 -9 -16 -44 -26 -77 -9 -33 -23
-75 -31 -93 -8 -18 -14 -40 -14 -50 0 -9 -7 -26 -15 -36 -8 -11 -15 -30 -15
-42 0 -13 -4 -25 -9 -29 -5 -3 -13 -20 -17 -37 -3 -18 -10 -39 -14 -48 -21
-42 -40 -92 -40 -104 0 -8 -7 -19 -15 -26 -8 -7 -15 -21 -15 -30 0 -10 -6 -31
-14 -47 -44 -87 -66 -136 -66 -148 0 -7 -7 -18 -15 -25 -8 -7 -15 -23 -15 -35
0 -12 -7 -28 -15 -35 -8 -7 -15 -20 -15 -29 0 -9 -4 -21 -9 -27 -5 -5 -36 -61
-69 -124 -81 -156 -112 -212 -125 -229 -13 -15 -32 -48 -45 -76 -6 -11 -26
-44 -46 -74 -20 -29 -36 -55 -36 -57 0 -2 -12 -22 -27 -43 -16 -21 -35 -49
-43 -61 -8 -13 -34 -49 -57 -81 -24 -33 -43 -63 -43 -68 0 -5 -4 -11 -9 -13
-5 -1 -36 -39 -70 -83 -78 -103 -125 -162 -164 -205 -18 -19 -59 -66 -92 -105
-141 -166 -484 -504 -511 -505 -13 0 -48 -49 -41 -56 3 -3 12 2 20 11 9 8 22
15 30 15 8 0 26 11 40 24 14 13 53 45 88 71 34 27 74 60 90 74 16 14 46 40 66
56 56 45 335 326 369 371 16 21 44 55 63 74 18 19 54 62 79 95 25 33 56 71 69
84 13 13 23 27 23 32 0 4 6 14 13 21 7 7 42 51 77 98 36 47 70 91 77 98 7 7
13 17 13 21 0 5 11 20 25 35 14 15 44 54 67 87 71 99 88 123 109 145 10 11 19
24 19 28 0 8 48 76 65 91 6 6 20 26 32 45 12 19 30 44 40 55 10 11 49 67 87
124 66 98 160 191 193 191 7 0 27 6 45 14 122 52 208 76 271 76 42 0 63 5 75
17 16 16 17 15 20 -11 2 -15 -4 -48 -12 -73 -9 -26 -16 -56 -16 -67 0 -12 -12
-52 -25 -91 -14 -38 -25 -79 -25 -91 0 -11 -7 -29 -15 -40 -8 -10 -15 -29 -15
-41 0 -12 -4 -24 -9 -28 -5 -3 -13 -20 -17 -38 -3 -17 -17 -54 -29 -82 -12
-27 -31 -70 -41 -95 -10 -25 -24 -52 -31 -61 -7 -8 -13 -22 -13 -30 0 -8 -18
-45 -40 -83 -22 -37 -40 -74 -40 -80 0 -7 -5 -17 -11 -23 -12 -12 -21 -27 -58
-97 -14 -25 -28 -46 -32 -46 -3 0 -9 -9 -12 -19 -10 -41 -238 -352 -365 -500
-85 -98 -106 -122 -167 -185 -33 -34 -70 -73 -81 -87 -29 -32 -232 -222 -269
-251 -16 -13 -52 -44 -80 -70 -28 -26 -72 -63 -98 -83 -26 -20 -59 -47 -74
-61 -14 -13 -41 -34 -60 -45 -18 -11 -33 -25 -33 -30 0 -5 -7 -9 -15 -9 -8 0
-15 -4 -15 -9 0 -5 -17 -20 -37 -32 -21 -13 -47 -32 -58 -42 -11 -10 -36 -28
-55 -40 -19 -11 -37 -24 -40 -28 -7 -8 -140 -99 -146 -99 -3 0 -20 -11 -37
-24 -18 -13 -42 -27 -54 -31 -13 -3 -23 -10 -23 -15 0 -4 -11 -11 -25 -14 -14
-4 -25 -11 -25 -16 0 -6 -9 -10 -20 -10 -10 0 -23 -6 -27 -14 -4 -8 -19 -16
-32 -18 -14 -1 -26 -9 -29 -15 -5 -18 43 -16 58 2 7 8 20 15 30 15 9 0 66 24
126 54 60 29 116 57 124 60 17 7 50 26 165 97 44 27 89 55 100 62 11 6 41 29
67 49 26 21 50 38 55 38 4 0 23 14 42 30 18 17 37 30 40 30 3 0 17 10 31 22
37 34 118 100 149 123 16 11 68 56 116 100 49 44 113 102 144 130 31 27 198
192 372 367 321 323 375 368 443 368 17 1 58 7 91 15 33 8 99 15 147 15 48 0
90 5 93 10 3 6 10 10 16 10 12 0 12 -37 0 -45 -5 -3 -24 -36 -42 -73 -51 -104
-241 -411 -269 -432 -3 -3 -16 -21 -27 -40 -12 -19 -30 -44 -41 -56 -11 -11
-36 -42 -57 -70 -46 -60 -129 -150 -291 -314 -174 -177 -273 -265 -444 -395
-36 -27 -76 -60 -90 -72 -14 -13 -28 -23 -31 -23 -3 0 -22 -13 -40 -30 -19
-16 -38 -30 -43 -30 -4 0 -25 -13 -46 -30 -21 -16 -41 -30 -45 -30 -3 0 -21
-11 -39 -25 -18 -14 -36 -25 -41 -25 -4 0 -24 -13 -44 -28 -20 -16 -43 -32
-51 -35 -8 -4 -37 -21 -65 -37 -27 -17 -59 -35 -70 -40 -11 -6 -33 -19 -50
-30 -16 -11 -37 -22 -45 -26 -8 -3 -31 -14 -50 -25 -93 -51 -332 -164 -367
-174 -13 -4 -23 -11 -23 -16 0 -5 -9 -9 -21 -9 -11 0 -33 -6 -47 -14 -39 -21
-152 -66 -164 -66 -11 0 -66 -22 -111 -46 -16 -8 -42 -14 -58 -14 -17 0 -32
-6 -35 -15 -4 -9 -19 -15 -39 -15 -40 0 -54 -16 -24 -25 25 -8 69 2 69 15 0 6
14 10 32 10 18 0 50 6 73 14 22 8 67 22 100 32 33 10 65 21 70 25 6 3 27 9 48
13 20 4 37 11 37 16 0 6 10 10 23 10 13 0 32 7 43 15 10 8 29 15 40 15 12 0
27 7 34 15 7 8 20 15 29 15 9 0 43 14 76 30 33 16 66 30 73 30 6 0 12 4 12 9
0 5 13 12 30 16 16 4 32 11 35 16 4 5 14 9 25 9 10 0 20 7 24 15 3 8 14 15 24
15 11 0 25 7 32 15 7 8 19 15 26 15 13 0 40 14 109 57 11 7 40 23 65 35 25 13
51 29 58 36 7 6 18 12 23 12 7 0 94 49 159 90 8 5 53 33 98 62 46 29 91 58
100 63 30 18 227 150 232 155 3 3 46 32 95 65 l90 60 233 -2 c191 -2 237 -6
256 -19 39 -25 39 -42 -1 -85 -20 -22 -44 -49 -52 -61 -94 -124 -439 -481
-572 -590 -138 -114 -162 -132 -243 -190 -45 -31 -86 -62 -93 -67 -7 -6 -16
-11 -21 -11 -5 0 -27 -12 -49 -28 -53 -36 -68 -46 -138 -83 -33 -17 -67 -38
-76 -45 -8 -8 -20 -14 -26 -14 -6 0 -24 -6 -40 -14 -94 -48 -201 -96 -215 -96
-8 0 -21 -7 -28 -15 -7 -8 -25 -15 -40 -15 -15 0 -33 -7 -40 -15 -7 -8 -20
-15 -29 -15 -19 -1 -119 -34 -128 -44 -3 -3 -18 -6 -32 -6 -15 0 -35 -6 -46
-14 -11 -7 -40 -16 -65 -20 -24 -4 -49 -11 -55 -15 -5 -5 -28 -11 -50 -14 -22
-3 -60 -10 -85 -17 -132 -34 -169 -40 -345 -59 -44 -5 -105 -14 -136 -20 -31
-7 -87 -13 -124 -14 -44 -1 -70 -6 -73 -14 -5 -16 294 -19 330 -3 13 5 82 14
153 19 165 13 266 28 279 41 5 5 25 10 42 10 18 0 45 5 61 11 15 7 46 15 68
19 22 4 54 13 70 18 17 6 57 19 90 28 33 9 64 20 70 25 5 5 18 9 30 9 11 0 33
7 49 15 15 8 38 15 50 15 11 0 30 7 40 15 11 8 28 15 38 15 10 0 26 4 36 10
16 9 45 20 122 50 55 21 195 25 222 6 12 -9 33 -16 45 -16 13 0 31 -4 41 -9 9
-5 40 -17 67 -26 28 -9 106 -45 175 -78 69 -34 126 -62 128 -63 6 -3 -11 -34
-19 -34 -4 0 -28 -13 -52 -30 -25 -16 -49 -30 -55 -30 -5 0 -12 -7 -16 -15 -3
-8 -13 -15 -22 -15 -10 0 -25 -6 -33 -14 -9 -7 -68 -40 -131 -71 -113 -57
-135 -67 -215 -100 -22 -9 -48 -20 -57 -25 -10 -6 -26 -10 -36 -10 -10 0 -27
-7 -38 -15 -10 -8 -30 -15 -44 -15 -14 0 -34 -7 -44 -15 -11 -8 -32 -15 -47
-15 -15 0 -30 -4 -34 -9 -3 -6 -26 -13 -50 -17 -25 -3 -48 -10 -51 -15 -3 -5
-19 -9 -35 -9 -16 0 -46 -7 -66 -15 -19 -8 -50 -15 -67 -15 -17 0 -51 -6 -76
-14 -25 -8 -99 -22 -165 -31 -66 -9 -142 -20 -170 -25 -27 -5 -104 -12 -170
-16 -66 -3 -124 -10 -130 -14 -5 -5 -120 -9 -254 -9 -134 -1 -248 -4 -253 -7
-18 -12 8 -24 72 -35 228 -38 713 -38 945 0 134 22 167 24 221 11 30 -7 54
-16 54 -21 0 -4 10 -9 23 -13 32 -8 158 -118 207 -181 31 -40 110 -176 110
-189 0 -8 -6 -18 -12 -23 -14 -11 -154 -60 -207 -73 -18 -5 -38 -13 -44 -19
-6 -6 -22 -11 -35 -11 -13 0 -33 -5 -45 -12 -12 -6 -38 -15 -57 -19 -19 -4
-62 -15 -95 -24 -94 -26 -184 -45 -254 -55 -36 -5 -78 -14 -95 -19 -103 -33
-769 -33 -856 0 -14 5 -54 13 -90 19 -110 15 -180 32 -180 41 0 5 -16 9 -36 9
-40 0 -44 -23 -4 -28 13 -2 30 -10 37 -18 8 -8 27 -14 43 -14 16 0 31 -4 34
-9 4 -5 29 -12 56 -16 27 -4 52 -11 56 -16 3 -5 24 -9 47 -9 23 0 60 -5 82
-11 22 -6 76 -15 120 -20 97 -11 200 -31 238 -47 16 -7 43 -12 61 -12 62 0
108 -29 199 -123 48 -50 87 -93 87 -95 0 -2 18 -24 39 -50 52 -63 97 -150 105
-204 6 -42 5 -45 -21 -58 -17 -9 -76 -15 -153 -18 -69 -2 -131 -9 -138 -15
-20 -16 -439 -22 -532 -7 -41 6 -118 15 -170 20 -52 5 -113 13 -135 19 -22 6
-66 11 -97 11 -31 0 -60 5 -63 10 -3 6 -21 10 -38 10 -18 0 -45 7 -61 15 -15
8 -36 15 -46 15 -10 0 -31 6 -47 14 -15 8 -46 22 -68 31 -35 15 -69 31 -145
70 -11 5 -20 13 -20 17 0 5 -11 8 -25 8 -14 0 -25 -3 -25 -7 1 -9 82 -72 116
-89 13 -7 36 -19 51 -27 25 -14 138 -66 188 -87 22 -9 81 -34 105 -44 83 -34
187 -117 251 -198 56 -72 115 -218 121 -298 l3 -45 -130 1 c-147 2 -306 16
-348 33 -16 6 -43 11 -62 11 -19 0 -36 4 -39 9 -3 5 -23 12 -43 15 -66 12
-134 36 -206 72 -16 8 -38 14 -49 14 -10 0 -26 7 -34 15 -9 8 -24 15 -33 15
-10 0 -24 7 -31 15 -7 8 -23 15 -36 15 -13 0 -24 5 -24 10 0 6 -11 10 -24 10
-13 0 -26 7 -30 15 -3 8 -16 15 -30 15 -13 0 -26 7 -30 15 -3 8 -16 15 -30 15
-13 0 -26 5 -28 11 -2 6 -13 9 -23 6 -19 -5 -19 -5 2 -12 12 -4 24 -13 27 -21
3 -8 15 -14 26 -14 11 0 23 -7 26 -15 4 -8 16 -15 29 -15 13 0 25 -7 29 -15 3
-8 17 -15 31 -15 14 0 25 -4 25 -10 0 -5 6 -10 13 -10 7 0 29 -9 49 -20 21
-11 44 -17 53 -14 10 4 15 0 15 -10 0 -10 9 -16 24 -16 13 0 29 -7 36 -15 7
-8 18 -15 25 -15 43 0 271 -155 300 -203 15 -24 16 -45 11 -130 -3 -56 -2
-129 3 -162 16 -110 33 -190 42 -199 5 -6 9 -25 9 -42 0 -18 4 -44 10 -59 13
-33 -5 -41 -46 -20 -16 8 -41 15 -56 15 -15 0 -29 4 -33 9 -3 5 -20 13 -37 17
-18 3 -39 10 -48 14 -8 4 -31 14 -50 23 -72 31 -226 109 -255 127 -16 11 -37
23 -45 27 -8 4 -38 24 -67 45 -29 21 -55 38 -58 38 -6 0 -167 119 -175 129 -3
3 -32 29 -65 56 -33 27 -95 83 -138 124 -70 69 -75 76 -55 81 13 3 24 14 26
23 2 10 -22 99 -52 198 l-56 179 21 47 c18 40 20 57 14 117 -4 39 -10 76 -15
81 -4 6 -10 19 -12 30 -3 18 4 21 77 26 127 10 238 28 249 39 5 5 26 10 46 10
19 0 44 6 55 14 11 7 34 16 50 18 36 7 90 25 127 44 14 8 35 14 46 14 10 0 32
6 48 14 16 7 48 22 72 32 23 10 42 21 42 26 0 4 8 8 19 8 10 0 24 7 31 15 7 8
18 15 24 15 6 0 41 25 79 55 37 30 70 55 75 56 16 1 82 92 82 112 -1 15 -20
36 -63 67 -40 29 -70 61 -85 89 l-23 44 22 23 c13 13 30 24 39 24 9 0 25 7 36
15 10 8 26 15 35 15 20 0 118 52 179 94 63 43 233 209 288 281 25 33 49 62 52
65 25 22 83 111 110 170 31 66 25 84 -30 90 -25 3 -55 11 -67 18 -12 7 -34 12
-50 12 -15 0 -37 7 -47 15 -11 8 -30 15 -43 15 -31 0 -29 16 5 37 15 10 32 21
37 26 6 4 46 34 91 66 92 67 232 203 272 265 15 22 29 43 32 46 6 6 42 83 61
130 9 23 14 71 13 140 -2 102 -3 107 -43 185 -22 44 -41 90 -41 103 0 15 32
57 98 125 53 56 113 122 132 146 19 24 52 61 73 82 20 22 37 43 37 47 0 5 8
17 18 28 28 31 112 142 112 149 0 3 5 11 11 18 18 21 93 141 114 182 11 22 23
42 28 43 4 2 7 8 7 14 0 6 16 37 36 70 47 77 39 87 -53 64 -88 -21 -173 -22
-173 -1 0 8 5 15 10 15 6 0 14 8 17 18 4 9 24 40 45 69 21 29 38 57 38 62 0 6
6 14 13 18 6 4 21 24 31 43 11 19 26 41 33 48 7 7 13 20 13 28 0 8 4 14 8 14
5 0 14 10 20 23 6 12 25 45 41 72 17 28 35 59 41 70 5 11 23 43 40 70 16 28
32 57 36 65 3 8 9 22 14 30 46 77 190 364 190 377 0 7 4 13 9 13 5 0 13 10 16
23 10 35 65 146 75 152 6 4 10 15 10 26 0 11 11 37 25 59 14 22 25 43 25 47 1
16 36 80 84 153 89 135 116 178 116 183 0 2 22 37 48 78 27 41 59 94 73 119
13 25 29 52 35 60 7 8 33 51 57 95 24 44 55 98 67 120 13 22 38 69 57 105 19
36 50 92 68 125 19 33 37 67 40 75 4 8 13 26 20 40 7 14 25 47 39 74 14 27 26
55 26 61 0 7 7 18 15 25 8 7 15 23 15 36 0 13 4 24 8 24 5 0 16 19 26 43 45
104 103 232 122 269 8 14 14 33 14 42 0 9 4 16 9 16 5 0 11 10 14 23 10 40 33
97 45 109 7 7 12 21 12 31 0 10 6 31 14 45 19 38 32 68 56 132 24 65 37 95 56
133 8 16 14 37 14 47 0 10 4 21 9 24 5 3 16 29 26 58 9 29 22 67 30 83 14 33
39 98 62 160 8 22 21 52 29 67 8 14 14 33 14 41 0 13 18 58 41 99 5 10 9 26 9
36 0 10 7 27 15 38 8 10 15 27 15 36 0 9 8 31 17 50 9 18 22 45 30 60 7 14 13
35 13 46 0 12 4 23 9 27 5 3 13 20 17 37 3 18 10 39 14 48 22 45 40 93 40 108
0 9 7 26 15 36 8 11 15 29 15 40 0 12 7 30 15 40 8 11 15 27 15 37 0 9 6 22
14 28 8 6 16 24 19 39 22 105 24 112 38 112 9 0 10 -76 5 -302z m-2362 -1942
c-9 -14 -21 -26 -28 -26 -8 0 -8 3 1 8 6 4 17 21 24 37 6 17 13 25 16 18 2 -6
-3 -23 -13 -37z m-13810 9 c4 -14 11 -25 16 -25 6 0 10 -4 10 -10 0 -5 -4 -10
-8 -10 -8 0 -16 14 -40 63 -2 4 1 7 6 7 5 0 13 -11 16 -25z m4816 13 c0 -2 -7
-41 -15 -88 -8 -47 -15 -87 -16 -90 -1 -7 -59 162 -59 172 0 4 20 8 45 8 25 0
45 -1 45 -2z m318 -31 c-66 -51 -94 -116 -125 -292 -38 -218 -22 -283 82 -335
43 -21 64 -25 145 -24 77 0 105 4 145 22 66 30 119 83 146 146 20 48 69 291
69 346 0 49 -22 104 -55 137 l-33 33 50 0 51 0 -8 -320 c-6 -248 -4 -324 5
-335 10 -12 41 -15 156 -15 79 0 144 -2 144 -5 0 -37 -719 -4048 -740 -4131
-60 -231 -154 -426 -259 -533 -166 -171 -459 -266 -756 -247 -325 21 -507 143
-570 381 -19 72 -21 287 -5 439 13 110 714 4084 723 4093 3 3 71 5 151 4 79
-1 147 3 150 7 3 5 13 56 23 112 l17 104 36 -110 37 -109 100 -3 c72 -2 103 1
111 10 7 9 122 622 122 654 0 2 30 4 66 4 l66 0 -44 -33z m338 4 c53 -24 76
-59 82 -124 5 -66 -33 -286 -60 -349 -43 -101 -140 -153 -276 -146 -134 6
-192 56 -192 163 0 59 35 258 55 316 21 59 51 96 100 125 80 46 204 53 291 15z
m416 -116 c-26 -79 -48 -143 -50 -141 -2 2 0 68 4 145 l7 141 42 0 42 0 -45
-145z m363 114 c-4 -16 -24 -81 -45 -142 l-38 -112 -1 60 c-1 33 2 97 6 143
l6 82 39 0 c39 0 39 -1 33 -31z m569 -36 c-7 -38 -14 -79 -16 -93 -2 -19 -10
-5 -31 53 -15 43 -31 85 -34 93 -4 11 5 14 44 14 l50 0 -13 -67z m472 50 c-5
-19 -96 -533 -96 -546 0 -4 -52 -7 -116 -7 l-116 0 4 28 c2 15 24 143 49 284
l44 258 118 0 c108 0 118 -2 113 -17z m539 -110 c-13 -71 -35 -199 -50 -285
-16 -87 -31 -158 -34 -158 -4 0 -18 38 -32 85 l-26 84 23 22 c35 33 65 115 71
194 7 87 1 114 -33 154 l-26 31 65 0 64 0 -22 -127z m285 120 c1 -5 -21 -131
-47 -282 -44 -254 -57 -300 -79 -278 -3 3 15 121 40 264 25 142 46 269 46 281
0 15 6 22 20 22 11 0 20 -3 20 -7z m570 -10 c-1 -10 -22 -137 -48 -283 -47
-265 -47 -265 -73 -268 l-26 -3 24 49 c23 46 73 283 73 346 0 50 -23 109 -57
143 l-34 33 71 0 c60 0 70 -2 70 -17z m526 -10 c-4 -16 -26 -142 -51 -282 -25
-140 -48 -257 -51 -260 -4 -3 -4 10 -1 29 9 67 2 70 -144 70 -100 0 -130 3
-127 13 3 8 40 14 117 17 73 3 114 9 119 17 5 7 14 47 21 88 17 103 15 105
-110 105 -99 0 -99 0 -99 25 l0 25 134 0 c99 0 136 3 145 13 6 8 16 48 23 90
6 43 16 77 21 77 5 0 6 -12 3 -27z m950 -3 c23 -10 50 -30 60 -45 21 -32 24
-109 5 -142 -10 -21 -19 -23 -84 -23 l-73 0 4 38 c5 48 -14 65 -71 65 -57 0
-87 -17 -87 -50 0 -42 26 -61 122 -90 138 -41 178 -95 157 -207 -11 -58 -32
-92 -77 -121 -17 -11 -31 -23 -32 -26 0 -3 78 -9 173 -12 523 -19 925 -158
1176 -407 255 -252 366 -613 321 -1038 -16 -148 -157 -920 -195 -1067 -44
-170 -85 -285 -150 -423 -148 -310 -402 -589 -668 -735 -46 -26 -57 -36 -53
-52 3 -11 179 -577 391 -1257 212 -681 385 -1242 385 -1248 0 -7 -280 -9 -872
-8 l-871 3 -348 1115 c-192 613 -356 1139 -364 1168 l-16 52 -269 0 -270 0 -5
-22 c-2 -13 -81 -529 -175 -1148 -93 -619 -172 -1135 -175 -1147 l-5 -23 -830
0 -830 0 5 23 c17 69 325 1843 322 1852 -2 5 -7 -6 -12 -25 -13 -62 -96 -312
-135 -410 -202 -506 -488 -870 -886 -1130 -391 -255 -871 -388 -1522 -421
-640 -33 -1231 69 -1591 274 -407 232 -630 586 -696 1107 -21 163 -16 536 10
720 14 101 726 4179 740 4238 5 19 12 22 54 22 l49 0 -33 33 c-53 53 -54 81
-11 337 21 124 41 231 43 237 7 18 153 18 153 1 0 -7 -16 -105 -36 -219 -22
-120 -34 -218 -30 -233 14 -55 109 -58 149 -4 19 26 28 67 82 371 l17 97 79 0
c77 0 79 -1 74 -22 -2 -13 -21 -115 -41 -227 -45 -261 -65 -310 -142 -351
l-37 -19 110 -1 110 0 54 310 54 310 81 0 82 0 48 -147 c27 -82 52 -152 56
-156 4 -5 13 22 19 60 7 37 19 107 28 156 l16 87 78 0 c77 0 79 -1 74 -22 -3
-13 -25 -140 -50 -283 -25 -143 -48 -272 -51 -287 -6 -28 -5 -28 50 -28 50 0
56 2 60 23 3 12 26 144 51 292 26 149 49 278 51 288 5 14 17 17 80 17 87 0 83
12 54 -145 -11 -60 -20 -110 -20 -112 0 -2 13 -3 29 -3 26 0 36 13 111 130
l82 130 80 0 c60 0 79 -3 75 -12 -2 -7 -46 -78 -96 -157 -50 -79 -91 -148 -91
-153 0 -5 18 -72 40 -148 22 -76 40 -143 40 -149 0 -7 -24 -11 -60 -11 -33 0
-60 -4 -60 -9 0 -5 -159 -908 -354 -2008 -195 -1099 -359 -2047 -365 -2107
-16 -155 -14 -367 4 -451 49 -233 212 -374 495 -426 87 -16 347 -16 440 0 432
76 663 317 789 823 17 67 194 1037 392 2153 343 1923 362 2040 373 2217 6 103
8 184 5 180 -3 -4 -20 -59 -38 -122 -18 -63 -42 -145 -53 -182 l-20 -68 -129
0 -129 0 0 315 0 315 87 0 86 0 -7 -240 c-4 -154 -4 -240 3 -240 7 0 106 289
156 458 6 21 12 22 92 22 l86 0 -8 -240 c-5 -163 -4 -240 3 -240 6 0 15 15 21
33 5 17 40 125 76 240 l66 207 85 0 c46 0 84 -1 84 -2 0 -2 -47 -140 -105
-307 -58 -168 -105 -306 -105 -308 0 -2 39 -3 88 -3 l87 0 22 128 c12 70 36
209 54 310 l32 182 81 0 82 0 48 -147 c27 -82 52 -151 55 -156 4 -4 18 52 30
125 13 73 25 143 28 156 5 21 10 22 85 22 71 0 79 -2 74 -17 -3 -10 -26 -137
-51 -283 -25 -146 -48 -277 -51 -292 l-6 -28 154 0 153 0 22 128 c12 70 36
209 54 310 l32 183 166 -3 c188 -3 214 -11 246 -70 18 -34 18 -42 6 -115 -15
-88 -39 -142 -75 -171 l-25 -19 37 -122 37 -121 33 0 c27 0 32 4 32 23 0 12
23 148 50 302 27 154 50 283 50 288 0 4 36 7 80 7 78 0 80 -1 75 -22 -3 -13
-25 -142 -51 -288 -25 -146 -48 -275 -51 -287 -5 -22 -2 -23 51 -23 50 0 56 2
60 23 3 12 26 141 51 287 25 146 48 275 51 288 l5 23 162 -3 c140 -3 167 -6
201 -24 49 -25 76 -74 76 -137 0 -61 -37 -271 -56 -317 -20 -47 -70 -98 -119
-121 l-40 -19 117 0 c114 0 118 1 123 23 2 12 23 128 45 257 22 129 45 259 51
288 l10 52 220 0 219 0 -5 -22 c-3 -13 -9 -43 -13 -68 l-8 -45 -141 -3 -141
-3 -6 -37 c-4 -20 -9 -45 -12 -54 -5 -16 5 -18 110 -18 132 0 125 5 105 -90
l-11 -50 -114 0 c-83 0 -116 -3 -119 -12 -2 -7 -6 -30 -10 -50 l-6 -38 142 0
142 0 -6 -27 c-3 -16 -8 -45 -12 -65 l-7 -38 44 0 44 0 54 310 54 310 149 0
c84 0 167 -5 188 -11 82 -25 103 -86 74 -216 -15 -65 -24 -84 -55 -115 l-38
-38 38 -117 37 -118 67 -3 67 -3 -33 30 c-31 28 -33 33 -33 98 l0 68 78 3 77
3 0 -30 c0 -39 32 -61 89 -61 49 0 81 21 81 53 0 34 -28 55 -109 82 -138 46
-174 80 -173 168 0 28 6 66 12 82 25 66 97 114 195 129 53 8 158 -4 201 -24z
m-5438 -92 c22 -62 45 -132 52 -156 7 -23 15 -40 18 -37 3 2 17 71 31 152 l26
148 78 3 c58 2 77 0 77 -10 -1 -7 -25 -148 -54 -313 l-52 -300 -80 -3 -79 -3
-54 168 c-62 193 -56 195 -93 -29 l-22 -138 -78 0 c-44 0 -78 4 -78 10 0 14
100 582 106 603 5 14 18 17 84 17 l78 0 40 -112z m-296 -222 l-46 -268 -40
140 -39 139 83 132 c46 72 84 130 86 128 2 -1 -18 -123 -44 -271z m2018 18
c-22 -126 -40 -232 -40 -236 0 -5 -21 -8 -46 -8 -33 0 -45 4 -42 13 3 6 40
117 84 244 43 128 80 229 82 224 2 -5 -15 -112 -38 -237z m7350 222 c0 -3 -4
-8 -10 -11 -5 -3 -10 -1 -10 4 0 6 5 11 10 11 6 0 10 -2 10 -4z m-13753 -93
c-3 -10 -5 -2 -5 17 0 19 2 27 5 18 2 -10 2 -26 0 -35z m13709 -32 c-8 -20
-17 -45 -19 -56 -4 -16 -5 -15 -5 5 -1 14 5 36 13 50 8 14 15 39 16 55 1 26 2
27 6 6 3 -13 -2 -40 -11 -60z m-4019 -76 c15 -27 52 -60 88 -79 30 -16 29 -16
-46 -16 -96 0 -104 -8 -104 -101 0 -37 -3 -65 -7 -61 -4 4 -17 42 -29 84 l-23
76 32 36 c31 36 44 71 59 156 l7 45 6 -60 c4 -33 11 -69 17 -80z m308 125 c3
-6 3 -19 0 -30 -8 -26 -46 -26 -76 0 -21 17 -22 21 -9 30 20 13 77 13 85 0z
m-9965 -95 c0 -14 -2 -25 -4 -25 -2 0 -6 11 -8 25 -3 14 -1 25 3 25 5 0 9 -11
9 -25z m30 -96 c0 -11 -4 -17 -10 -14 -5 3 -10 15 -10 26 0 11 5 17 10 14 6
-3 10 -15 10 -26z m13601 -12 c-8 -8 -11 -5 -11 9 0 27 14 41 18 19 2 -9 -1
-22 -7 -28z m-3711 -73 c10 -11 7 -15 -12 -23 -13 -5 -36 -7 -50 -4 -21 4 -27
12 -30 38 l-4 32 43 -14 c23 -8 47 -21 53 -29z m-12595 -41 c19 -81 61 -211
121 -373 65 -173 190 -421 312 -618 29 -46 52 -86 52 -88 0 -2 -28 10 -61 27
-73 36 -126 48 -274 59 -60 5 -125 11 -142 15 l-33 7 0 521 c0 286 3 518 6
515 3 -4 12 -32 19 -65z m2735 41 c0 -8 -4 -12 -10 -9 -5 3 -10 13 -10 21 0 8
5 12 10 9 6 -3 10 -13 10 -21z m13546 -1 c-10 -10 -19 5 -10 18 6 11 8 11 12
0 2 -7 1 -15 -2 -18z m2734 -502 l0 -509 -27 -7 c-16 -4 -75 -11 -133 -14
-136 -10 -211 -26 -282 -62 -32 -16 -58 -27 -58 -24 0 3 19 35 43 72 81 126
254 453 272 513 4 14 19 50 34 80 15 30 33 75 40 100 8 25 26 81 42 125 25 71
34 109 54 208 3 15 8 27 10 27 3 0 5 -229 5 -509z m-17170 319 c0 -16 5 -32
10 -35 6 -3 10 -15 10 -25 0 -10 7 -25 15 -34 8 -8 15 -20 15 -26 0 -7 6 -24
14 -38 8 -15 17 -34 20 -42 3 -8 10 -22 14 -30 5 -8 16 -31 24 -50 27 -59 227
-462 259 -520 17 -30 50 -86 73 -125 23 -38 45 -77 49 -85 12 -24 30 -53 55
-87 12 -17 22 -34 22 -37 0 -3 20 -35 44 -70 24 -35 45 -68 47 -73 2 -6 14
-23 26 -39 12 -16 57 -76 100 -133 116 -155 114 -153 147 -192 17 -20 58 -66
91 -104 33 -37 65 -75 72 -85 14 -19 250 -252 497 -489 267 -256 573 -580 756
-801 61 -74 119 -144 129 -155 32 -37 157 -210 191 -265 19 -30 37 -57 40 -60
3 -3 10 -16 16 -30 9 -20 3 -69 -27 -240 -57 -318 -80 -503 -86 -715 -9 -294
21 -538 91 -747 18 -54 33 -98 32 -98 -1 0 -19 7 -41 15 -22 8 -57 14 -77 15
-20 0 -40 5 -43 10 -3 6 -19 10 -34 10 -15 0 -36 7 -47 15 -10 8 -26 15 -34
15 -18 0 -140 60 -158 78 -7 6 -18 12 -23 12 -19 0 -149 118 -149 135 0 8 15
22 33 34 46 28 104 90 127 136 38 74 19 154 -40 168 -84 19 -260 103 -368 176
-46 31 -93 61 -105 68 -31 18 -167 163 -167 179 0 7 -6 17 -13 21 -17 11 -66
111 -69 142 -3 23 2 25 62 37 36 7 81 13 100 13 67 2 230 75 230 104 0 7 -30
27 -67 45 -263 124 -463 292 -529 441 -14 31 -30 65 -35 77 -6 11 -9 66 -6
125 3 97 13 138 45 197 l13 22 32 -22 c18 -13 34 -25 37 -28 5 -5 55 -29 112
-54 116 -50 233 -49 141 1 -18 10 -49 32 -70 50 -21 17 -101 83 -178 146 -231
189 -563 536 -608 634 -6 13 -14 23 -18 23 -4 0 -18 20 -30 45 -12 25 -26 45
-31 45 -4 0 -8 8 -8 19 0 10 -7 24 -15 31 -8 7 -15 18 -15 25 0 7 -7 18 -15
25 -8 7 -15 16 -15 21 0 12 43 12 55 0 6 -5 44 -15 85 -21 167 -26 168 -26
130 23 -11 14 -20 30 -20 36 0 6 -4 11 -9 11 -5 0 -12 11 -15 25 -4 14 -11 25
-16 25 -6 0 -10 6 -10 13 0 8 -12 32 -27 54 -38 54 -51 75 -63 98 -5 11 -23
43 -40 70 -16 28 -33 57 -37 65 -4 8 -31 55 -60 103 -29 48 -53 90 -53 92 0 3
-18 34 -40 70 -22 36 -40 69 -40 74 0 5 -6 16 -12 23 -12 12 -36 57 -52 98 -4
8 -20 38 -36 65 -16 28 -52 97 -80 155 -55 113 -58 119 -82 165 -17 34 -76
160 -89 190 -40 98 -51 122 -59 137 -6 10 -10 24 -10 32 0 8 -6 27 -14 43 -17
35 -37 91 -43 123 -2 14 -8 34 -13 45 -27 61 -61 351 -47 389 10 25 27 9 27
-24z m15334 -98 c-3 -70 -7 -134 -11 -142 -3 -8 -11 -40 -18 -70 -25 -104 -48
-176 -71 -222 -8 -14 -14 -33 -14 -42 0 -9 -4 -24 -10 -34 -5 -9 -16 -35 -25
-57 -48 -117 -234 -501 -318 -655 -19 -36 -43 -81 -53 -100 -11 -19 -21 -37
-24 -40 -3 -3 -13 -21 -24 -40 -34 -66 -79 -145 -103 -182 -12 -21 -23 -42
-23 -47 0 -5 -7 -14 -15 -21 -8 -7 -15 -20 -15 -30 0 -10 -7 -20 -15 -24 -8
-3 -15 -12 -15 -21 0 -15 -6 -25 -37 -60 -7 -7 -13 -20 -13 -28 0 -8 -7 -20
-15 -27 -8 -7 -15 -16 -15 -21 0 -5 -13 -28 -30 -51 -16 -22 -30 -47 -30 -54
0 -7 -4 -14 -8 -16 -9 -3 -82 -122 -82 -133 0 -4 17 -5 38 -2 114 15 188 30
197 38 12 12 55 12 55 0 0 -5 -7 -14 -15 -21 -8 -7 -15 -18 -15 -25 0 -7 -7
-18 -15 -25 -8 -7 -15 -21 -15 -31 0 -11 -4 -19 -8 -19 -5 0 -19 -20 -31 -45
-12 -25 -26 -45 -31 -45 -5 0 -10 -6 -12 -14 -7 -31 -170 -226 -288 -346 -123
-123 -268 -257 -296 -273 -8 -4 -26 -20 -42 -34 -15 -14 -53 -45 -85 -70 -31
-24 -72 -58 -89 -74 -18 -16 -47 -36 -65 -44 -32 -15 -41 -29 -25 -39 15 -9
165 29 170 43 2 6 14 11 27 11 12 0 28 7 35 15 7 8 21 15 31 15 11 0 19 4 19
9 0 5 10 13 22 17 13 4 28 13 34 22 9 12 13 10 27 -12 10 -14 20 -40 24 -56 3
-17 10 -33 14 -36 16 -9 11 -209 -6 -240 -8 -16 -15 -36 -15 -46 0 -9 -3 -18
-7 -20 -5 -1 -17 -20 -27 -40 -18 -37 -129 -158 -192 -210 -27 -22 -108 -77
-169 -115 -11 -6 -64 -34 -117 -60 -54 -26 -98 -53 -98 -60 0 -29 163 -102
230 -103 19 0 53 -5 75 -11 22 -6 50 -10 63 -10 18 1 22 -5 22 -28 0 -33 -40
-118 -84 -176 -41 -54 -149 -165 -161 -165 -6 0 -22 -11 -37 -25 -15 -14 -29
-25 -32 -25 -2 0 -31 -17 -63 -38 -93 -61 -268 -142 -343 -159 -57 -14 -78
-94 -42 -163 33 -64 47 -80 104 -122 32 -23 58 -47 58 -53 0 -17 -131 -135
-149 -135 -5 0 -16 -6 -23 -12 -20 -18 -77 -48 -93 -48 -7 0 -18 -7 -25 -15
-7 -8 -22 -15 -34 -15 -11 0 -30 -7 -40 -15 -11 -8 -32 -15 -47 -15 -15 0 -31
-4 -34 -10 -3 -5 -23 -10 -43 -10 -20 -1 -55 -7 -77 -15 -22 -8 -66 -15 -97
-15 -31 0 -67 -5 -80 -10 -13 -6 -109 -14 -214 -18 l-191 -7 -33 108 c-18 59
-31 109 -29 110 17 12 71 31 104 37 98 19 255 96 330 162 60 54 125 144 125
175 0 10 7 27 15 37 8 11 15 31 15 45 0 14 7 48 15 75 8 27 15 80 15 118 0 66
-2 72 -43 126 -42 56 -77 119 -77 141 0 6 -4 19 -9 29 -23 43 -33 179 -21 273
7 52 16 103 21 114 5 11 18 48 30 83 28 85 145 303 190 355 5 7 44 59 87 116
104 139 128 170 165 211 18 19 54 62 81 95 28 33 57 67 65 76 9 9 52 56 96
105 197 217 338 360 734 744 264 256 364 361 469 493 18 23 42 53 53 65 11 13
54 70 95 125 41 56 78 107 82 112 20 25 132 197 132 201 0 3 10 20 23 37 26
38 38 58 68 112 11 22 24 42 28 45 6 5 18 26 75 135 17 33 33 62 36 65 10 9
228 457 244 500 3 8 10 22 15 30 15 24 41 87 41 99 0 6 4 11 9 11 5 0 12 13
16 30 4 16 11 32 16 35 5 4 9 19 9 34 0 15 3 31 6 34 18 18 23 -15 18 -131z
m-11990 36 c-7 -40 -96 -552 -199 -1138 -102 -586 -189 -1073 -193 -1083 -8
-19 -23 1 -127 172 l-55 90 0 1016 0 1015 294 0 293 0 -13 -72z m9186 -345 l0
-418 -33 80 c-148 365 -427 597 -867 721 l-115 33 508 0 507 1 0 -417z m1172
25 c-9 -9 -12 -7 -12 12 0 19 3 21 12 12 9 -9 9 -15 0 -24z m-12082 1 c0 -6
-4 -7 -10 -4 -5 3 -10 11 -10 16 0 6 5 7 10 4 6 -3 10 -11 10 -16z m17 -71
c-3 -7 -5 -2 -5 12 0 14 2 19 5 13 2 -7 2 -19 0 -25z m12040 0 c-3 -8 -6 -5
-6 6 -1 11 2 17 5 13 3 -3 4 -12 1 -19z m-14346 -145 c27 -40 45 -73 41 -73
-4 0 -23 24 -42 53 -19 28 -49 69 -67 89 -20 24 -30 44 -26 54 5 12 10 9 26
-18 11 -18 42 -66 68 -105z m16662 -2 c-26 -39 -52 -71 -56 -71 -4 0 10 26 33
58 22 31 46 65 52 74 7 10 14 16 15 14 2 -2 -18 -36 -44 -75z m-15883 -127 c0
-8 -4 -12 -10 -9 -5 3 -10 10 -10 16 0 5 5 9 10 9 6 0 10 -7 10 -16z m15110 7
c0 -6 -4 -13 -10 -16 -5 -3 -10 1 -10 9 0 9 5 16 10 16 6 0 10 -4 10 -9z
m-15086 -67 c3 -8 2 -12 -4 -9 -6 3 -10 10 -10 16 0 14 7 11 14 -7z m15048 -6
c-7 -7 -12 -8 -12 -2 0 14 12 26 19 19 2 -3 -1 -11 -7 -17z m-15019 -58 c3
-11 1 -18 -4 -14 -5 3 -9 12 -9 20 0 20 7 17 13 -6z m14989 -12 c-8 -8 -9 -4
-5 13 4 13 8 18 11 10 2 -7 -1 -18 -6 -23z m-14962 -39 c0 -6 -4 -7 -10 -4 -5
3 -10 11 -10 16 0 6 5 7 10 4 6 -3 10 -11 10 -16z m14942 -1 c-7 -7 -12 -8
-12 -2 0 14 12 26 19 19 2 -3 -1 -11 -7 -17z m-14917 -58 c3 -5 1 -10 -4 -10
-6 0 -11 5 -11 10 0 6 2 10 4 10 3 0 8 -4 11 -10z m14895 0 c0 -5 -5 -10 -11
-10 -5 0 -7 5 -4 10 3 6 8 10 11 10 2 0 4 -4 4 -10z m-14860 -60 c0 -5 -4 -10
-10 -10 -5 0 -10 5 -10 10 0 6 5 10 10 10 6 0 10 -4 10 -10z m14830 0 c0 -5
-4 -10 -10 -10 -5 0 -10 5 -10 10 0 6 5 10 10 10 6 0 10 -4 10 -10z m-30 -54
c0 -3 -4 -8 -10 -11 -5 -3 -10 -1 -10 4 0 6 5 11 10 11 6 0 10 -2 10 -4z
m-14720 -117 c0 -6 -4 -7 -10 -4 -5 3 -10 11 -10 16 0 6 5 7 10 4 6 -3 10 -11
10 -16z m14662 -1 c-7 -7 -12 -8 -12 -2 0 14 12 26 19 19 2 -3 -1 -11 -7 -17z
m-16733 -198 c149 -226 290 -399 495 -607 l120 -122 -65 0 c-35 0 -127 -3
-204 -8 -123 -7 -146 -11 -190 -35 -35 -18 -56 -37 -68 -62 -38 -81 -24 -105
244 -411 93 -106 288 -300 404 -401 132 -114 377 -291 497 -358 l33 -18 -40
-18 c-22 -10 -67 -26 -100 -35 -33 -10 -137 -55 -232 -100 l-172 -83 -11 -42
c-13 -50 0 -102 33 -126 62 -45 260 -155 392 -219 138 -67 365 -155 475 -184
25 -7 59 -17 75 -23 17 -6 49 -16 73 -22 l42 -12 -37 -18 c-61 -29 -175 -121
-215 -173 -20 -26 -60 -88 -90 -138 -46 -78 -53 -97 -52 -141 0 -62 20 -96 66
-113 181 -67 312 -109 443 -143 22 -6 56 -17 75 -24 38 -16 121 -32 215 -44
33 -3 80 -15 105 -25 30 -12 65 -18 105 -17 117 4 118 3 19 -100 -103 -109
-135 -151 -180 -240 -81 -161 -75 -240 22 -295 33 -19 54 -23 142 -23 57 0
113 -5 124 -11 13 -7 114 -13 272 -15 222 -3 317 1 500 22 l48 6 -40 -51 c-58
-73 -116 -184 -141 -271 -13 -41 -29 -94 -37 -118 -12 -38 -12 -48 1 -78 24
-58 59 -66 254 -60 91 3 192 8 223 11 l57 7 -9 -32 c-5 -18 -7 -89 -3 -159 5
-108 3 -131 -12 -160 -9 -19 -21 -59 -26 -90 -16 -98 -26 -145 -40 -179 -12
-29 -12 -37 6 -70 12 -23 35 -44 59 -56 38 -19 42 -19 85 -2 25 9 69 24 96 33
130 41 339 138 450 208 99 62 99 62 34 -44 -33 -55 -76 -144 -95 -197 -30 -87
-34 -109 -34 -201 0 -157 28 -193 152 -193 174 0 432 105 696 283 61 42 112
75 112 73 0 -2 -9 -23 -20 -47 -15 -34 -20 -66 -20 -144 0 -90 3 -106 30 -163
l29 -62 -2649 0 -2650 0 0 3178 0 3177 47 -80 c25 -44 62 -105 82 -135z
m18911 -1330 l0 -1520 -465 0 -465 0 0 -1645 0 -1645 -2179 0 -2178 0 21 43
c28 56 36 248 13 325 l-15 50 111 -76 c185 -125 377 -221 512 -254 22 -5 54
-14 71 -19 50 -15 171 -11 205 7 47 24 57 59 51 192 -2 64 -8 125 -13 134 -5
9 -9 28 -9 42 0 29 -73 172 -132 259 l-39 57 53 -33 c144 -92 362 -197 493
-237 33 -11 81 -27 106 -36 43 -17 47 -17 85 2 25 12 45 32 56 54 15 33 15 40
-1 115 -10 45 -23 90 -30 102 -6 12 -11 35 -11 51 0 16 -4 42 -10 58 -5 16
-10 105 -12 197 l-3 169 50 -7 c102 -14 388 -16 417 -4 49 20 69 77 49 143 -5
17 -14 52 -20 78 -16 70 -86 210 -142 284 l-50 66 48 -6 c176 -21 238 -24 403
-24 102 0 228 4 280 9 52 6 147 13 210 17 144 9 178 25 211 93 l22 49 -29 88
c-35 107 -95 197 -215 325 l-90 96 36 10 c24 6 46 6 66 -1 32 -11 36 -10 119
21 30 12 72 21 94 21 22 0 53 4 70 9 17 5 54 14 81 19 28 5 64 14 80 20 17 6
50 16 75 23 25 6 110 33 190 60 137 45 175 58 244 82 37 14 66 62 66 113 0 31
-12 61 -53 130 -102 171 -138 210 -292 311 -30 20 -42 33 -32 33 10 0 39 8 65
19 26 10 76 26 112 34 157 38 491 181 665 285 233 139 246 153 226 228 -6 21
-14 44 -18 50 -18 25 -330 172 -413 194 -25 7 -64 19 -87 28 l-43 15 88 54
c103 65 222 148 312 217 180 139 447 397 597 576 39 47 96 115 127 152 31 37
64 83 73 103 16 34 16 37 -5 80 -17 35 -33 50 -74 72 -47 24 -69 28 -198 36
-80 5 -171 9 -203 10 l-58 1 119 120 c126 129 213 226 305 342 69 88 233 330
272 402 15 28 30 52 32 52 1 0 3 -684 3 -1520z m-16810 1480 c0 -5 -4 -10 -10
-10 -5 0 -10 5 -10 10 0 6 5 10 10 10 6 0 10 -4 10 -10z m14610 1 c0 -6 -4
-13 -10 -16 -5 -3 -10 1 -10 9 0 9 5 16 10 16 6 0 10 -4 10 -9z m-14580 -61
c0 -5 -2 -10 -4 -10 -3 0 -8 5 -11 10 -3 6 -1 10 4 10 6 0 11 -4 11 -10z
m14550 6 c0 -3 -4 -8 -10 -11 -5 -3 -10 -1 -10 4 0 6 5 11 10 11 6 0 10 -2 10
-4z m-14506 -93 c20 -37 33 -69 31 -72 -3 -2 -6 -2 -7 0 -16 25 -50 94 -58
114 -17 45 -2 27 34 -42z m14484 60 c-14 -28 -63 -129 -65 -132 -2 -2 -5 -2
-8 0 -5 6 63 139 71 139 3 0 4 -3 2 -7z m-14418 -173 c0 -5 -4 -10 -10 -10 -5
0 -10 5 -10 10 0 6 5 10 10 10 6 0 10 -4 10 -10z m14330 0 c0 -5 -4 -10 -10
-10 -5 0 -10 5 -10 10 0 6 5 10 10 10 6 0 10 -4 10 -10z m-14290 -80 c11 -22
19 -40 16 -40 -4 0 -46 68 -46 76 0 13 12 -1 30 -36z m14218 -43 c-24 -43 -47
-77 -52 -77 -5 0 -4 6 1 13 5 6 27 43 47 80 21 38 40 67 42 64 2 -2 -15 -38
-38 -80z m-14169 -42 c11 -19 17 -35 13 -35 -5 0 -16 16 -25 35 -9 19 -15 35
-13 35 2 0 13 -16 25 -35z m15421 9 c0 -8 -5 -12 -10 -9 -6 4 -8 11 -5 16 9
14 15 11 15 -7z m-14860 -144 c35 -41 69 -78 75 -82 5 -4 6 -8 1 -8 -15 0
-176 178 -185 204 -4 13 21 -13 109 -114z m13064 43 c-59 -71 -119 -133 -128
-133 -4 0 7 15 24 33 17 17 56 62 88 99 31 36 59 65 61 62 2 -2 -18 -29 -45
-61z m1698 5 c-7 -7 -12 -8 -12 -2 0 14 12 26 19 19 2 -3 -1 -11 -7 -17z
m-16446 -45 c65 -57 91 -80 160 -138 39 -33 84 -70 100 -82 34 -25 116 -101
94 -86 -40 26 -152 113 -211 162 -197 166 -209 178 -209 193 0 7 7 5 18 -5 9
-9 31 -29 48 -44z m1178 41 c5 -14 4 -15 -9 -4 -17 14 -19 20 -6 20 5 0 12 -7
15 -16z m14025 -19 c-12 -19 -23 -35 -25 -35 -2 0 4 16 13 35 9 19 20 35 25
35 4 0 -2 -16 -13 -35z m-13994 -37 l16 -33 -20 25 c-20 24 -26 40 -16 40 2 0
12 -15 20 -32z m11825 -275 c-16 -26 -30 -43 -30 -38 0 6 12 82 27 169 l28
160 3 -122 c3 -120 2 -122 -28 -169z m3324 249 c-10 -9 -39 -33 -64 -52 -24
-19 -56 -46 -70 -59 -23 -22 -166 -132 -200 -154 -19 -12 55 55 94 85 15 13
74 62 130 110 55 48 107 88 115 88 11 0 10 -5 -5 -18z m-14459 -191 c-6 -5
-25 10 -25 20 0 5 6 4 14 -3 8 -7 12 -15 11 -17z m-1475 -118 c0 -7 -39 17
-46 28 -3 6 5 3 20 -6 14 -10 26 -19 26 -22z m15580 33 c0 -2 -8 -10 -17 -17
-16 -13 -17 -12 -4 4 13 16 21 21 21 13z m-40 -30 c0 -2 -8 -10 -17 -17 -16
-13 -17 -12 -4 4 13 16 21 21 21 13z m728 -166 c-3 -9 -198 -143 -198 -135 0
2 25 24 56 47 30 24 72 55 91 71 37 27 57 35 51 17z m-16937 -31 c13 -12 48
-39 77 -61 79 -59 62 -54 -33 10 -78 52 -99 72 -77 72 5 0 20 -10 33 -21z
m14059 -352 c0 -2 -10 -12 -22 -23 l-23 -19 19 23 c18 21 26 27 26 19z
m-12080 -227 c-1 -12 -63 48 -98 95 -4 6 -27 33 -52 60 -24 28 0 7 53 -45 53
-52 97 -101 97 -110z m13059 153 c-55 -60 -58 -64 -93 -107 -15 -20 -35 -36
-44 -36 -10 0 23 39 78 95 102 102 129 124 59 48z m-12040 -122 c-6 -2 -22 11
-37 29 -15 18 -41 48 -59 67 -61 64 -34 48 37 -22 39 -39 65 -72 59 -74z
m10994 127 c-4 -7 -34 -41 -66 -74 -32 -34 -65 -71 -73 -83 -9 -12 -20 -18
-26 -15 -6 4 29 46 78 95 87 88 103 101 87 77z m-11688 -418 c3 -5 -1 -10 -10
-10 -9 0 -13 5 -10 10 3 6 8 10 10 10 2 0 7 -4 10 -10z m-1675 -340 c0 -5 -7
-10 -15 -10 -8 0 -15 5 -15 10 0 6 7 10 15 10 8 0 15 -4 15 -10z m12009 -27
c7 -21 17 -69 21 -108 14 -115 42 -255 61 -300 21 -51 31 -152 36 -365 3 -147
1 -221 -8 -260 -13 -53 -76 -181 -103 -208 -10 -11 -43 85 -177 515 l-165 528
70 43 c75 47 177 125 215 166 14 14 27 26 30 26 3 0 12 -17 20 -37z m3631 27
c0 -5 -7 -10 -15 -10 -8 0 -15 5 -15 10 0 6 7 10 15 10 8 0 15 -4 15 -10z
m-15570 -30 c0 -5 -7 -7 -15 -4 -8 4 -15 8 -15 10 0 2 7 4 15 4 8 0 15 -4 15
-10z m15500 0 c0 -5 -7 -10 -15 -10 -8 0 -15 5 -15 10 0 6 7 10 15 10 8 0 15
-4 15 -10z m-1460 -153 c0 -2 -27 -29 -60 -61 -33 -32 -60 -54 -60 -48 0 15
92 112 107 112 7 0 13 -1 13 -3z m-1530 -162 c0 -8 -4 -15 -10 -15 -5 0 -10 7
-10 15 0 8 5 15 10 15 6 0 10 -7 10 -15z m-10843 -31 c-3 -3 -12 -4 -19 -1 -8
3 -5 6 6 6 11 1 17 -2 13 -5z m12153 2 c0 -3 -4 -8 -10 -11 -5 -3 -10 -1 -10
4 0 6 5 11 10 11 6 0 10 -2 10 -4z m-1344 -53 c-11 -11 -19 6 -11 24 8 17 8
17 12 0 3 -10 2 -21 -1 -24z m-2363 -1106 c185 -595 337 -1093 337 -1107 0
-14 6 -34 14 -45 8 -11 16 -43 18 -70 2 -28 8 -58 12 -67 8 -17 -111 -18
-2420 -17 -1336 1 -2420 3 -2409 6 144 32 321 79 407 108 561 190 967 524
1269 1047 32 57 59 100 59 96 0 -4 -43 -249 -95 -545 -52 -296 -95 -558 -95
-583 0 -25 5 -51 12 -58 9 -9 218 -12 878 -12 823 0 868 1 883 18 12 14 59
295 187 1138 93 615 173 1131 176 1147 l6 27 211 0 212 0 338 -1083z m-8336
947 c-3 -3 -12 -4 -19 -1 -8 3 -5 6 6 6 11 1 17 -2 13 -5z m12128 -114 c3 -5
1 -10 -4 -10 -6 0 -11 5 -11 10 0 6 2 10 4 10 3 0 8 -4 11 -10z m-1395 -146
c0 -8 -4 -14 -10 -14 -5 0 -10 9 -10 21 0 11 5 17 10 14 6 -3 10 -13 10 -21z
m44 -87 c16 -23 21 -37 13 -37 -7 0 -19 15 -27 33 -7 17 -16 37 -18 42 -8 17
6 1 32 -38z m1016 -170 c-47 -43 -149 -107 -155 -97 -3 6 -2 10 4 10 5 0 16 6
23 14 8 7 32 23 54 35 21 11 50 29 64 40 34 28 41 26 10 -2z m-11542 -74 c7
-7 18 -13 23 -13 6 0 8 -4 4 -10 -6 -10 -131 68 -139 87 -5 13 88 -41 112 -64z
m10564 -48 c-2 -14 -6 -25 -8 -25 -2 0 -4 11 -4 25 0 14 4 25 9 25 4 0 6 -11
3 -25z m-10346 -55 c15 -6 24 -13 22 -16 -8 -7 -88 27 -88 37 0 6 8 5 19 -1
11 -5 32 -15 47 -20z m11049 21 c-15 -15 -85 -42 -85 -34 0 5 17 15 38 25 44
19 60 22 47 9z m-869 -259 c-10 -16 -76 -52 -76 -42 0 6 4 10 9 10 4 0 20 11
36 26 26 24 44 27 31 6z m-10189 -19 c-9 -9 -20 -13 -24 -9 -4 4 1 14 11 22
25 18 35 8 13 -13z m11018 6 c12 -19 -5 -23 -22 -6 -16 16 -16 17 -1 17 9 0
20 -5 23 -11z m-1075 -585 c0 -4 6 -15 14 -23 14 -15 25 -115 15 -126 -3 -3
-17 35 -32 83 -14 49 -29 97 -33 108 -5 13 -1 11 14 -8 12 -14 22 -30 22 -34z
m-937 -665 c9 -17 17 -37 17 -44 0 -17 33 -75 43 -75 4 0 7 -6 7 -13 0 -7 14
-27 30 -45 17 -18 30 -36 30 -40 0 -8 72 -85 234 -252 240 -248 305 -355 322
-527 5 -56 3 -78 -10 -104 -9 -17 -16 -40 -16 -51 0 -14 -8 -18 -37 -18 -21 1
-56 7 -78 15 -22 8 -52 15 -66 15 -15 0 -32 7 -39 15 -7 8 -28 15 -46 15 -19
0 -34 4 -34 9 0 5 -14 12 -31 16 -17 4 -65 25 -107 46 -42 21 -79 39 -83 39
-18 0 -229 149 -278 196 -31 30 -61 54 -66 54 -6 0 -26 18 -45 41 -19 22 -56
65 -82 94 -26 30 -60 74 -75 97 -16 24 -36 52 -46 63 -11 11 -23 29 -28 40 -5
11 -23 43 -39 70 -17 28 -33 57 -37 65 -3 8 -18 42 -32 75 -35 76 -51 121 -61
165 -4 19 -11 43 -15 53 -7 16 12 17 321 17 l329 0 18 -31z m1068 -66 c40 -54
76 -99 81 -101 4 -2 8 -9 8 -15 0 -7 33 -51 73 -99 39 -47 95 -117 122 -153
28 -37 57 -75 65 -85 17 -20 25 -31 82 -125 71 -115 101 -214 104 -343 l2 -94
-67 5 c-71 5 -155 22 -183 37 -10 6 -24 10 -33 10 -20 0 -174 71 -285 131 -65
36 -317 216 -359 257 -8 7 -46 39 -85 70 -95 76 -360 341 -421 422 -27 36 -55
71 -62 78 -7 7 -13 20 -13 28 0 8 -4 14 -9 14 -5 0 -14 14 -20 30 l-10 30 468
0 469 0 73 -97z m-7673 -19 c162 -5 230 -10 222 -18 -5 -5 -10 -17 -10 -25 0
-8 -14 -44 -31 -80 -28 -61 -37 -79 -73 -144 -25 -46 -104 -164 -140 -207 -91
-112 -148 -173 -203 -218 -15 -12 -50 -42 -78 -67 -27 -24 -54 -45 -59 -45 -4
0 -25 -13 -46 -30 -21 -16 -41 -30 -45 -30 -5 0 -23 -11 -41 -25 -18 -14 -39
-25 -47 -25 -8 0 -20 -7 -27 -15 -7 -8 -18 -15 -24 -15 -6 0 -33 -11 -61 -25
-27 -13 -57 -25 -66 -25 -8 0 -24 -7 -35 -15 -10 -8 -30 -15 -44 -15 -14 0
-34 -7 -44 -15 -11 -8 -29 -15 -40 -15 -12 0 -39 -7 -61 -15 -22 -8 -57 -14
-77 -15 -30 0 -38 4 -38 18 0 11 -7 33 -16 51 -13 25 -14 48 -9 116 4 47 11
88 16 91 5 3 9 12 9 21 0 41 107 207 190 294 8 8 88 91 178 182 89 92 162 171
162 176 0 6 14 25 30 43 17 18 30 38 30 45 0 7 3 13 8 13 4 0 15 15 25 33 l18
33 97 -13 c53 -7 202 -15 330 -19z m5907 -110 c74 -190 239 -440 385 -584 177
-176 389 -310 640 -406 52 -20 97 -38 99 -40 2 -2 -264 -4 -592 -4 l-597 0 0
561 c0 519 1 560 17 557 10 -2 28 -33 48 -84z m-5555 -479 l0 -555 -597 0
c-349 0 -592 4 -583 9 8 5 62 27 120 49 121 47 310 146 390 205 193 142 314
271 451 479 59 90 143 254 168 331 9 26 18 37 32 37 19 0 19 -14 19 -555z
m7484 469 c3 -8 2 -12 -4 -9 -6 3 -10 10 -10 16 0 14 7 11 14 -7z m-9469 -4
c-3 -5 -12 -10 -18 -10 -7 0 -6 4 3 10 19 12 23 12 15 0z m8763 -366 c-6 -5
-68 56 -68 67 0 3 16 -9 36 -28 20 -19 34 -36 32 -39z m-8029 28 c-19 -21 -36
-34 -38 -29 -3 7 56 65 68 67 2 0 -12 -17 -30 -38z"/>
<path d="M6206 10071 c-8 -12 3 -41 15 -41 5 0 9 11 9 25 0 25 -14 34 -24 16z"/>
<path d="M6230 10003 c1 -18 18 -35 24 -24 4 6 4 16 1 21 -7 12 -25 13 -25 3z"/>
<path d="M17307 10073 c-10 -9 -9 -43 2 -43 5 0 11 6 14 13 6 17 -7 40 -16 30z"/>
<path d="M17272 9994 c4 -21 22 -23 26 -1 2 10 -3 17 -13 17 -10 0 -15 -6 -13
-16z"/>
<path d="M10128 12210 c-32 -25 -43 -54 -63 -170 -22 -127 -18 -161 19 -179
37 -17 99 -1 121 33 16 24 55 217 55 271 0 18 -8 39 -18 48 -25 23 -84 21
-114 -3z m87 -26 c8 -9 14 -24 11 -33 -2 -9 -12 -63 -22 -120 -12 -69 -24
-111 -36 -123 -19 -19 -73 -25 -83 -8 -7 12 32 235 46 262 9 17 39 35 61 37 4
1 14 -6 23 -15z"/>
<path d="M12316 12159 c-4 -33 -10 -67 -13 -75 -4 -11 6 -14 46 -14 63 0 101
30 101 80 0 56 -14 70 -74 70 l-53 0 -7 -61z m92 14 c15 -28 -3 -63 -33 -63
-22 0 -25 4 -25 33 0 19 3 37 7 40 12 13 42 7 51 -10z"/>
<path d="M13150 12218 c0 -2 -14 -79 -30 -173 -16 -93 -30 -171 -30 -173 0 -2
30 -2 67 0 63 3 69 5 89 35 14 21 27 69 39 143 18 110 18 112 -2 138 -17 23
-29 27 -77 30 -31 2 -56 2 -56 0z m98 -40 c16 -16 15 -46 -4 -152 -18 -99 -37
-126 -84 -126 -26 0 -30 3 -25 23 7 32 45 249 45 259 0 12 55 9 68 -4z"/>
<path d="M14247 12213 c-3 -5 -8 -38 -12 -75 l-7 -68 44 0 c61 0 98 29 98 76
0 59 -14 74 -70 74 -27 0 -51 -3 -53 -7z m88 -43 c9 -29 -12 -60 -40 -60 -20
0 -25 5 -25 24 0 39 11 56 35 56 15 0 26 -8 30 -20z"/>
<path d="M8337 12050 c-8 -22 -56 -304 -53 -308 2 -1 39 -2 83 0 l80 3 -52
160 c-29 88 -55 153 -58 145z m47 -227 c7 -21 4 -23 -24 -23 -30 0 -31 1 -25
38 4 20 9 46 12 57 6 20 11 10 37 -72z"/>
<path d="M11507 12050 c-8 -22 -57 -304 -53 -307 2 -2 39 -3 83 -1 l79 3 -52
160 c-28 88 -54 153 -57 145z m47 -227 c7 -21 4 -23 -24 -23 l-31 0 7 48 c11
79 16 77 48 -25z"/>
<path d="M12285 11958 c-2 -7 -9 -49 -15 -93 -6 -44 -14 -90 -17 -102 -5 -22
-3 -23 77 -23 62 0 81 3 77 13 -2 6 -18 58 -36 115 -29 94 -34 102 -57 102
-13 0 -27 -6 -29 -12z m64 -145 c1 -8 -11 -13 -25 -13 -26 0 -27 1 -20 46 3
26 6 54 7 63 1 17 37 -74 38 -96z"/>
<path d="M14206 11958 c-3 -7 -9 -48 -15 -92 -6 -43 -14 -89 -17 -102 -6 -24
-5 -24 75 -24 45 0 81 3 81 8 0 4 -16 54 -34 112 -31 95 -37 105 -60 108 -15
2 -28 -2 -30 -10z m43 -70 c5 -13 12 -38 16 -55 6 -31 5 -33 -21 -33 -25 0
-26 2 -20 38 3 20 6 45 6 55 0 24 9 21 19 -5z"/>
<path d="M8897 11858 c-10 -57 -17 -106 -17 -110 0 -5 39 -8 86 -8 78 0 85 2
79 18 -3 9 -18 59 -32 110 l-27 92 -36 0 -36 0 -17 -102z m88 -26 c6 -31 6
-32 -28 -32 l-34 0 9 53 c15 81 19 86 33 47 7 -20 16 -50 20 -68z"/>
<path d="M13719 10388 c-12 -57 -225 -1505 -222 -1510 6 -12 636 -9 752 2 312
32 506 149 615 371 75 152 89 222 90 434 1 154 -3 193 -21 267 -45 176 -129
297 -251 361 -129 68 -144 70 -574 75 -214 2 -388 2 -389 0z m832 -96 c221
-73 324 -243 336 -557 9 -227 -32 -383 -138 -534 -101 -144 -260 -224 -501
-251 -46 -6 -217 -10 -381 -10 l-297 0 5 23 c3 12 48 312 100 667 52 355 98
655 101 668 l5 24 352 -4 c329 -4 356 -6 418 -26z"/>
</g>
</svg>
