<?xml version="1.0" standalone="no"?>
<!DOCTYPE svg PUBLIC "-//W3C//DTD SVG 20010904//EN"
 "http://www.w3.org/TR/2001/REC-SVG-20010904/DTD/svg10.dtd">
<svg version="1.0" xmlns="http://www.w3.org/2000/svg"
 width="2362.000000pt" height="1772.000000pt" viewBox="0 0 2362.000000 1772.000000"
 preserveAspectRatio="xMidYMid meet">
<metadata>
Created by potrace 1.15, written by Peter Selinger 2001-2017
</metadata>
<g transform="translate(0.000000,1772.000000) scale(0.100000,-0.100000)"
fill="#000000" stroke="none">
<path d="M4845 14746 c-42 -18 -50 -30 -85 -131 -33 -93 -45 -149 -59 -270 -4
-38 -15 -84 -24 -102 -15 -28 -17 -68 -13 -355 2 -178 4 -340 4 -360 1 -21 7
-48 14 -60 8 -15 15 -85 20 -198 3 -96 9 -202 13 -235 l7 -60 -55 57 c-29 32
-70 65 -90 73 -34 14 -40 14 -75 -4 -21 -11 -43 -31 -50 -46 -17 -37 -15 -252
3 -334 8 -36 19 -104 25 -151 6 -47 15 -114 20 -150 5 -36 13 -97 19 -137 5
-39 15 -82 22 -95 7 -13 16 -45 21 -73 16 -106 26 -161 37 -188 6 -16 9 -32 6
-37 -3 -4 2 -27 11 -51 17 -44 23 -71 44 -188 6 -35 16 -73 22 -85 7 -12 16
-41 20 -66 23 -117 27 -138 33 -175 4 -22 15 -62 25 -90 10 -27 23 -77 29
-110 7 -33 19 -80 27 -105 19 -54 32 -108 44 -175 9 -49 28 -120 48 -180 22
-65 32 -102 32 -124 0 -12 7 -38 16 -59 15 -35 24 -66 40 -137 l6 -30 -26 30
c-38 44 -223 322 -307 460 -159 265 -376 712 -490 1012 -8 23 -75 63 -104 63
-57 0 -121 -81 -103 -130 5 -13 7 -45 5 -70 -2 -25 1 -54 7 -65 6 -11 13 -51
17 -90 3 -38 9 -79 13 -90 14 -37 -29 24 -82 114 -145 252 -204 356 -257 456
-85 160 -225 443 -225 456 0 6 -13 36 -29 67 -57 109 -108 227 -231 532 -12
30 -33 80 -46 110 -13 31 -32 83 -43 115 -11 33 -43 116 -71 185 -28 69 -58
148 -67 175 -8 28 -22 64 -31 80 -8 17 -27 64 -42 105 -73 199 -100 271 -109
287 -6 10 -17 38 -25 63 -8 25 -31 85 -50 135 -20 49 -36 96 -36 103 0 7 -8
27 -17 45 -23 42 -43 98 -43 119 0 36 -33 86 -67 102 -69 33 -135 10 -152 -52
-14 -47 -14 -266 -1 -311 5 -19 10 -112 10 -208 1 -136 5 -182 18 -211 9 -20
19 -82 24 -137 7 -96 15 -171 36 -335 5 -42 15 -87 23 -100 7 -14 17 -50 21
-80 13 -97 24 -154 41 -205 18 -55 27 -92 52 -205 9 -41 21 -83 27 -94 6 -11
19 -51 29 -90 20 -78 95 -294 128 -369 11 -27 21 -54 21 -60 0 -6 13 -40 29
-76 16 -36 40 -93 54 -126 13 -33 36 -86 51 -117 14 -32 24 -58 22 -58 -2 0
-15 18 -29 39 -15 22 -47 53 -71 70 -48 33 -217 108 -276 121 -19 5 -64 15
-100 23 -36 9 -78 20 -93 26 -62 24 -125 3 -153 -50 -34 -67 3 -233 132 -579
65 -173 190 -421 312 -618 29 -46 52 -86 52 -88 0 -2 -28 10 -61 27 -72 36
-125 47 -274 59 -60 5 -129 12 -153 16 -78 12 -122 -25 -122 -100 0 -47 46
-149 132 -296 181 -306 335 -505 592 -767 l120 -122 -65 0 c-35 0 -127 -3
-204 -8 -123 -7 -146 -11 -190 -35 -35 -18 -56 -37 -68 -62 -38 -81 -24 -105
244 -411 93 -106 288 -300 404 -401 132 -114 377 -291 497 -358 l33 -18 -40
-18 c-22 -10 -67 -26 -100 -35 -33 -10 -137 -55 -232 -100 l-172 -83 -11 -42
c-13 -50 0 -102 33 -126 62 -45 260 -155 392 -219 138 -67 365 -155 475 -184
25 -7 59 -17 75 -23 17 -6 49 -16 73 -22 l42 -12 -37 -18 c-61 -29 -175 -121
-215 -173 -20 -26 -60 -88 -90 -138 -46 -78 -53 -97 -52 -141 0 -62 20 -96 66
-113 181 -67 312 -109 443 -143 22 -6 56 -17 75 -24 38 -16 121 -32 215 -44
33 -3 80 -15 105 -25 30 -12 65 -18 105 -17 117 4 118 3 19 -100 -103 -109
-135 -151 -180 -240 -81 -161 -75 -240 22 -295 33 -19 54 -23 142 -23 57 0
113 -5 124 -11 13 -7 114 -13 272 -15 222 -3 317 1 500 22 l48 6 -40 -51 c-58
-73 -116 -184 -141 -271 -13 -41 -29 -94 -37 -118 -12 -38 -12 -48 1 -78 24
-58 59 -66 254 -60 91 3 192 8 223 11 l57 7 -9 -32 c-5 -18 -7 -89 -3 -159 5
-108 3 -131 -12 -160 -9 -19 -21 -59 -26 -90 -16 -98 -26 -145 -40 -179 -12
-29 -12 -37 6 -70 12 -23 35 -44 59 -56 38 -19 42 -19 85 -2 25 9 69 24 96 33
130 41 339 138 450 208 99 62 99 62 34 -44 -33 -55 -76 -144 -95 -197 -30 -87
-34 -109 -34 -201 0 -157 28 -193 152 -193 174 0 432 105 696 283 61 42 112
75 112 73 0 -2 -9 -23 -20 -47 -15 -34 -20 -66 -20 -144 0 -90 3 -106 30 -163
46 -98 79 -106 280 -64 123 26 440 176 560 265 193 142 314 271 451 479 59 89
143 254 168 329 l12 36 152 6 c158 7 415 36 552 63 792 156 1315 515 1686
1156 32 57 59 100 59 96 0 -4 -43 -249 -95 -545 -52 -296 -95 -558 -95 -583 0
-25 5 -51 12 -58 9 -9 218 -12 878 -12 823 0 868 1 883 18 12 14 59 295 187
1138 93 615 173 1131 176 1147 l6 27 211 0 212 0 338 -1083 c185 -595 337
-1094 337 -1108 0 -14 7 -34 15 -45 8 -10 15 -37 15 -58 0 -42 5 -62 52 -196
70 -197 242 -466 398 -620 177 -175 386 -307 640 -406 95 -37 128 -46 251 -66
58 -10 70 -9 105 8 61 30 78 75 82 215 3 83 -1 131 -11 167 l-15 50 111 -76
c185 -125 377 -221 512 -254 22 -5 54 -14 71 -19 50 -15 171 -11 205 7 47 24
57 59 51 192 -2 64 -8 125 -13 134 -5 9 -9 28 -9 42 0 29 -73 172 -132 259
l-39 57 53 -33 c144 -92 362 -197 493 -237 33 -11 81 -27 106 -36 43 -17 47
-17 85 2 25 12 45 32 56 54 15 33 15 40 -1 115 -10 45 -23 90 -30 102 -6 12
-11 35 -11 51 0 16 -4 42 -10 58 -5 16 -10 105 -12 197 l-3 169 50 -7 c102
-14 388 -16 417 -4 49 20 69 77 49 143 -5 17 -14 52 -20 78 -16 70 -86 210
-142 284 l-50 66 48 -6 c176 -21 238 -24 403 -24 102 0 228 4 280 9 52 6 147
13 210 17 144 9 178 25 211 93 l22 49 -29 88 c-35 107 -95 197 -215 325 l-90
96 36 10 c24 6 46 6 66 -1 32 -11 36 -10 119 21 30 12 72 21 94 21 22 0 53 4
70 9 17 5 54 14 81 19 28 5 64 14 80 20 17 6 50 16 75 23 25 6 110 33 190 60
137 45 175 58 244 82 37 14 66 62 66 113 0 31 -12 61 -53 130 -102 171 -138
210 -292 311 -30 20 -42 33 -32 33 10 0 39 8 65 19 26 10 76 26 112 34 157 38
491 181 665 285 233 139 246 153 226 228 -6 21 -14 44 -18 50 -18 25 -330 172
-413 194 -25 7 -64 19 -87 28 l-43 15 88 54 c103 65 222 148 312 217 180 139
447 397 597 576 39 47 96 115 127 152 31 37 64 83 73 103 16 34 16 37 -5 80
-17 35 -33 50 -74 72 -47 24 -69 28 -198 36 -80 5 -171 9 -203 10 l-58 1 119
120 c287 292 463 532 674 916 52 95 62 139 42 188 -19 49 -55 67 -116 57 -24
-3 -90 -10 -148 -14 -138 -10 -211 -26 -282 -62 -32 -16 -58 -27 -58 -24 0 3
19 35 43 72 81 126 254 453 272 513 4 14 19 50 34 80 15 30 33 75 40 100 8 25
24 74 37 110 28 76 54 173 54 199 0 10 10 40 21 66 35 79 14 157 -52 191 -36
18 -73 13 -289 -44 -174 -46 -303 -118 -368 -207 -22 -30 -21 -24 12 50 136
312 247 614 297 805 11 41 26 95 33 120 44 148 66 239 66 275 0 14 8 38 17 52
10 15 21 58 26 97 4 39 12 98 17 131 5 33 15 103 23 155 7 52 17 102 22 109
11 19 25 193 33 431 4 102 11 191 16 199 14 22 14 322 0 352 -40 82 -173 55
-202 -41 -23 -76 -62 -182 -93 -251 -16 -36 -29 -73 -29 -82 0 -9 -12 -42 -26
-74 -14 -32 -32 -78 -40 -103 -8 -25 -22 -58 -29 -75 -17 -35 -97 -245 -175
-460 -18 -49 -41 -103 -52 -120 -10 -16 -18 -37 -18 -46 0 -9 -17 -59 -39
-110 -21 -52 -44 -112 -51 -134 -7 -22 -19 -49 -26 -61 -8 -11 -22 -45 -33
-75 -34 -98 -116 -287 -263 -609 -70 -154 -258 -513 -360 -690 -91 -157 -156
-264 -173 -285 -15 -20 -16 -20 -5 2 6 13 15 71 20 130 6 60 13 126 16 149 9
62 -11 121 -49 144 -41 26 -63 25 -112 -3 -31 -18 -43 -32 -54 -67 -60 -195
-347 -770 -539 -1080 -110 -179 -261 -394 -270 -385 -2 2 3 23 11 47 8 24 20
70 27 103 6 33 18 75 26 94 14 32 20 54 44 166 8 39 15 65 45 170 26 92 35
132 35 154 0 12 7 32 15 45 15 22 24 61 45 181 7 45 19 91 48 195 19 65 32
130 32 155 0 14 8 37 17 52 9 14 21 49 25 77 17 112 27 164 42 221 8 33 20 83
26 110 6 28 15 69 20 93 6 23 10 60 10 82 0 23 8 53 17 67 11 16 21 59 26 103
21 215 28 298 35 430 10 177 5 203 -49 231 l-40 20 -45 -21 c-26 -13 -63 -45
-89 -77 l-45 -55 0 40 c0 22 6 55 13 73 9 23 14 94 16 211 2 98 7 195 12 215
11 48 4 698 -8 813 -5 47 -15 95 -21 107 -7 12 -12 30 -12 41 0 41 -64 229
-87 254 -38 42 -119 38 -149 -7 -20 -30 -33 -81 -43 -160 -5 -34 -13 -71 -20
-83 -11 -20 -20 -75 -40 -227 -4 -33 -15 -75 -25 -93 -9 -19 -19 -55 -21 -80
-2 -26 -8 -78 -14 -117 -7 -38 -15 -95 -19 -125 -4 -30 -13 -65 -20 -77 -7
-13 -17 -55 -23 -95 -6 -40 -14 -95 -18 -123 -4 -27 -13 -61 -21 -75 -8 -14
-18 -49 -22 -77 -4 -29 -12 -77 -18 -105 -5 -29 -13 -78 -19 -109 -5 -31 -14
-65 -20 -76 -5 -11 -15 -49 -21 -84 -18 -100 -27 -138 -50 -224 -13 -44 -26
-100 -31 -125 -16 -87 -27 -135 -43 -180 -8 -25 -20 -72 -27 -105 -6 -33 -17
-78 -24 -100 -16 -50 -40 -136 -55 -195 -6 -25 -16 -58 -21 -75 -21 -59 -41
-131 -49 -170 -7 -40 -33 -116 -46 -137 -11 -17 -24 13 -24 56 0 22 -8 58 -18
80 -10 23 -24 64 -31 91 -7 28 -31 93 -55 145 -46 102 -83 140 -136 140 -30 0
-74 -30 -92 -63 -6 -12 -15 -58 -19 -102 -10 -110 -27 -202 -40 -228 -7 -12
-16 -51 -21 -87 -4 -36 -11 -87 -14 -115 -4 -27 -14 -61 -22 -74 -9 -12 -20
-48 -25 -80 -21 -133 -35 -194 -57 -256 -10 -27 -25 -79 -34 -115 -18 -77 -58
-198 -97 -295 -15 -38 -39 -99 -53 -135 -13 -36 -39 -96 -56 -135 -17 -38 -37
-83 -43 -100 -20 -52 -183 -377 -222 -445 -21 -36 -55 -94 -75 -130 -109 -192
-145 -251 -148 -242 -2 6 17 122 42 259 66 367 70 401 70 608 -1 157 -5 208
-23 292 -89 419 -334 709 -738 875 -188 77 -484 137 -750 154 l-111 6 14 40
c17 48 18 125 3 165 -5 15 -22 40 -37 56 l-26 27 32 0 c60 0 90 60 79 157 -11
96 -83 145 -224 151 -165 8 -282 -49 -317 -153 l-13 -38 -7 47 c-8 54 -45 102
-96 124 -49 22 -357 30 -382 10 -13 -10 -30 -82 -68 -297 -27 -156 -53 -287
-56 -290 -4 -3 -4 10 -1 29 9 67 2 70 -144 70 -100 0 -130 3 -127 13 3 8 40
14 117 17 73 3 114 9 119 17 5 7 14 47 21 88 17 103 15 105 -110 105 -99 0
-99 0 -99 25 l0 25 134 0 c99 0 136 3 145 13 6 8 16 48 23 90 17 113 30 107
-241 107 -124 0 -232 -4 -240 -9 -10 -6 -31 -104 -65 -298 l-51 -288 -26 -3
-26 -3 24 49 c28 58 77 309 70 367 -10 99 -69 158 -173 175 -93 15 -310 13
-326 -4 -8 -8 -34 -132 -63 -296 -46 -263 -59 -310 -81 -287 -3 3 15 121 40
264 50 280 52 303 34 321 -19 19 -182 16 -198 -3 -10 -12 -109 -527 -110 -572
0 -35 -18 -4 -41 72 l-26 84 23 22 c39 37 66 116 71 209 5 77 3 88 -19 120
-42 62 -80 73 -268 78 -129 3 -169 1 -183 -10 -14 -11 -29 -74 -68 -293 -27
-154 -49 -283 -49 -287 0 -10 -230 -10 -230 0 0 4 21 130 47 280 35 204 45
277 37 290 -16 25 -185 30 -205 6 -7 -9 -20 -57 -29 -107 l-16 -91 -33 95
c-18 51 -40 100 -49 107 -22 17 -172 16 -197 -2 -16 -11 -21 -11 -33 0 -21 22
-195 19 -213 -2 -8 -9 -35 -80 -61 -158 l-48 -141 6 141 c6 178 9 174 -120
174 -71 0 -97 -4 -106 -15 -7 -8 -34 -81 -61 -163 l-48 -147 6 146 c7 181 8
179 -113 179 -47 0 -93 -4 -103 -10 -17 -9 -19 -36 -26 -335 -5 -252 -4 -329
5 -340 10 -12 41 -15 156 -15 79 0 144 -2 144 -5 0 -37 -719 -4048 -740 -4131
-60 -231 -154 -426 -259 -533 -166 -171 -459 -266 -756 -247 -325 21 -507 143
-570 381 -19 72 -21 287 -5 439 13 110 714 4084 723 4093 3 3 71 5 151 4 79
-1 147 3 150 7 3 5 13 56 23 112 l17 104 36 -110 37 -109 100 -3 c72 -2 103 1
111 10 7 9 122 622 122 653 0 2 -7 11 -16 19 -18 18 -162 23 -194 6 -12 -7
-21 -30 -29 -77 -24 -140 -20 -139 -57 -29 -19 55 -39 103 -46 108 -18 11
-180 10 -198 -2 -9 -5 -19 -5 -26 1 -7 5 -54 8 -105 7 l-94 -3 -74 -113 c-41
-61 -76 -110 -78 -108 -2 2 3 41 11 86 20 102 20 105 0 124 -21 21 -176 23
-196 2 -8 -8 -35 -130 -64 -296 -45 -262 -59 -309 -80 -287 -3 3 15 122 40
265 50 283 52 302 34 320 -19 19 -182 16 -198 -3 -7 -9 -21 -57 -30 -108 l-16
-92 -33 98 c-20 60 -40 101 -51 107 -27 15 -173 13 -193 -2 -13 -10 -29 -81
-67 -296 -28 -156 -50 -285 -50 -287 0 -3 -13 -5 -29 -5 l-30 0 21 47 c19 43
98 448 98 503 0 42 -17 50 -111 50 -65 0 -90 -4 -99 -15 -7 -8 -30 -113 -51
-232 -21 -119 -46 -227 -55 -240 -12 -19 -23 -23 -47 -21 -28 3 -32 7 -35 34
-2 17 13 119 32 227 20 108 36 201 36 206 0 29 -33 41 -113 41 -45 0 -88 -4
-95 -9 -17 -10 -22 -35 -66 -293 -28 -162 -34 -216 -27 -252 7 -40 6 -46 -9
-46 -9 0 -24 -8 -33 -17 -11 -13 -75 -358 -217 -1168 -110 -632 -204 -1158
-208 -1168 -8 -20 -26 5 -158 223 -191 317 -422 772 -494 975 -12 33 -25 64
-29 70 -4 5 -13 28 -20 50 -7 22 -25 74 -41 115 -15 41 -33 95 -40 120 -6 25
-20 68 -30 95 -18 49 -23 68 -39 150 -7 36 -16 66 -51 181 -6 17 -10 45 -10
63 0 18 -4 40 -9 49 -5 9 -11 40 -14 68 -3 29 -11 62 -18 75 -13 24 -22 73
-38 199 -4 36 -12 74 -18 85 -6 11 -14 52 -18 90 -14 135 -68 182 -159 138
-31 -14 -40 -29 -77 -117 -23 -56 -50 -119 -60 -141 -9 -22 -22 -71 -29 -110
-6 -38 -16 -84 -21 -101 -5 -17 -9 -44 -10 -60 l-1 -29 -8 30 c-5 17 -18 68
-30 115 -12 47 -28 96 -35 110 -7 14 -21 61 -31 105 -9 44 -23 94 -30 110 -6
17 -17 48 -22 70 -6 22 -19 76 -30 120 -11 44 -24 94 -30 110 -6 17 -16 57
-22 90 -6 33 -18 83 -27 110 -9 28 -20 70 -25 95 -5 25 -13 68 -19 95 -5 28
-13 73 -17 101 -4 28 -15 63 -25 77 -9 15 -17 38 -17 52 0 13 -4 44 -10 67 -5
24 -14 66 -20 93 -6 28 -18 77 -27 110 -17 70 -31 145 -41 231 -4 33 -14 71
-23 85 -9 13 -19 49 -22 79 -16 130 -25 188 -32 200 -15 25 -43 172 -63 335
-5 39 -15 81 -22 95 -14 24 -17 44 -38 210 -22 175 -82 253 -167 216z m48
-108 c9 -51 27 -138 39 -188 6 -25 15 -70 19 -100 16 -108 34 -199 42 -206 4
-4 7 -28 7 -53 1 -25 7 -64 15 -86 8 -22 15 -54 15 -71 0 -17 7 -51 15 -74 8
-23 15 -58 15 -77 0 -19 4 -43 10 -53 5 -10 14 -47 20 -82 23 -142 31 -184 39
-203 5 -11 12 -44 15 -74 3 -30 10 -59 16 -65 5 -5 10 -21 10 -36 0 -26 22
-130 46 -214 8 -26 14 -61 14 -75 0 -15 3 -31 7 -35 5 -4 14 -38 21 -74 21
-113 29 -146 41 -175 6 -16 11 -43 11 -61 0 -17 5 -37 10 -42 6 -6 15 -33 20
-60 15 -77 34 -158 41 -169 4 -5 10 -31 13 -57 4 -26 11 -50 17 -53 5 -4 9
-21 9 -38 1 -18 7 -43 15 -57 8 -14 14 -39 15 -57 0 -17 4 -35 10 -38 5 -3 12
-28 16 -56 4 -27 11 -52 15 -55 5 -3 9 -17 9 -32 0 -15 7 -40 15 -56 8 -15 15
-38 15 -50 0 -11 7 -34 15 -50 8 -15 15 -38 15 -50 0 -12 7 -31 15 -42 8 -10
15 -32 15 -49 0 -16 7 -39 15 -49 8 -11 15 -32 15 -47 0 -15 4 -30 9 -33 5 -4
12 -24 16 -46 4 -22 11 -42 16 -46 5 -3 9 -15 9 -27 0 -12 7 -35 15 -51 8 -15
15 -38 15 -51 0 -12 7 -28 15 -35 8 -7 15 -22 15 -34 0 -12 7 -31 15 -42 8
-10 15 -27 15 -37 0 -9 4 -25 9 -35 5 -9 18 -44 31 -77 12 -33 26 -68 31 -77
5 -10 9 -26 9 -36 0 -10 7 -27 15 -38 8 -10 15 -27 15 -36 0 -9 8 -31 17 -50
27 -54 30 -62 38 -96 3 -18 11 -32 16 -32 5 0 9 -11 9 -24 0 -14 7 -31 15 -40
8 -8 15 -23 15 -34 0 -11 7 -25 15 -32 8 -7 15 -23 15 -37 0 -13 7 -26 15 -29
9 -4 15 -19 15 -35 0 -16 5 -29 10 -29 6 0 10 -11 10 -24 0 -13 7 -29 15 -36
8 -7 15 -20 15 -30 0 -10 7 -23 15 -30 8 -7 15 -23 15 -37 0 -13 7 -26 15 -29
8 -4 15 -17 15 -30 0 -13 5 -24 10 -24 6 0 10 11 10 25 0 14 -4 25 -10 25 -5
0 -10 11 -10 25 0 14 -7 28 -15 31 -9 4 -15 19 -15 35 0 17 -6 32 -15 35 -8 4
-15 15 -15 25 0 11 -4 27 -10 37 -5 9 -16 35 -25 57 -9 22 -23 53 -31 68 -8
16 -14 35 -14 42 0 7 -6 26 -14 42 -8 15 -22 48 -31 73 -9 25 -21 52 -25 60
-4 9 -11 30 -15 49 -4 18 -13 44 -21 59 -8 15 -14 37 -14 49 0 12 -4 25 -10
28 -5 3 -10 18 -10 33 -1 15 -7 38 -15 52 -8 14 -15 39 -15 55 0 17 -7 41 -15
55 -8 14 -14 44 -15 67 0 23 -4 45 -10 48 -5 3 -10 21 -10 39 0 18 -7 55 -15
82 -18 58 -20 271 -4 324 5 19 14 58 19 85 17 96 30 149 40 159 6 6 10 19 10
31 0 12 7 30 15 41 8 10 15 26 15 35 0 9 7 22 15 29 8 7 15 23 15 36 0 24 23
33 35 14 3 -6 10 -40 15 -78 13 -94 29 -178 46 -238 8 -28 14 -64 14 -79 0
-16 4 -42 9 -59 5 -17 17 -67 26 -111 9 -44 22 -102 30 -130 27 -102 36 -141
44 -180 4 -22 13 -50 19 -62 7 -12 12 -33 12 -47 0 -14 4 -27 9 -30 5 -3 12
-26 15 -51 4 -24 11 -47 17 -50 5 -4 9 -16 9 -29 0 -12 7 -31 15 -42 8 -10 15
-31 15 -45 0 -14 7 -34 15 -45 8 -10 15 -27 15 -36 0 -10 7 -34 16 -55 9 -21
21 -49 26 -63 6 -14 16 -38 24 -53 8 -16 14 -35 14 -42 0 -7 6 -26 14 -42 14
-26 34 -70 99 -213 14 -30 28 -62 31 -70 3 -8 10 -22 15 -30 5 -8 19 -35 31
-60 11 -25 41 -81 65 -125 24 -44 54 -100 66 -125 13 -25 46 -83 74 -130 28
-47 54 -92 58 -100 4 -8 16 -28 27 -45 11 -16 23 -37 27 -45 3 -8 16 -28 27
-45 22 -31 41 -61 52 -83 4 -8 35 -57 70 -109 35 -53 64 -101 64 -107 0 -6
-39 -235 -87 -508 l-87 -497 -34 57 c-19 31 -39 61 -46 67 -7 5 -21 23 -31 39
-77 125 -301 360 -955 1003 -286 281 -432 431 -531 543 -40 46 -80 91 -87 99
-12 12 -43 77 -71 146 -12 28 -31 102 -40 153 -4 24 -13 48 -19 54 -7 7 -12
26 -12 44 0 17 -7 45 -15 60 -8 16 -15 43 -15 61 0 17 -4 35 -10 38 -5 3 -10
16 -10 28 0 12 -6 42 -14 67 -8 25 -21 68 -30 96 -9 29 -16 59 -16 69 0 10 -7
40 -16 69 -33 104 -38 122 -45 161 -16 84 -30 141 -39 157 -6 10 -10 31 -10
48 0 17 -7 47 -15 67 -8 19 -15 46 -15 58 0 12 -7 39 -15 58 -8 20 -15 51 -15
70 0 18 -4 37 -9 43 -5 5 -13 34 -19 64 -6 30 -18 84 -27 120 -9 36 -20 88
-24 116 -5 28 -14 61 -20 72 -6 11 -11 34 -11 51 0 16 -5 42 -11 58 -6 15 -15
51 -19 78 -5 28 -16 88 -24 135 -9 47 -21 120 -26 162 -6 42 -14 88 -20 103
-5 14 -10 48 -10 74 0 26 -7 92 -15 147 -15 100 -20 236 -9 247 12 11 113
-106 139 -161 46 -98 75 -187 75 -230 0 -16 7 -49 15 -72 8 -23 15 -55 15 -70
0 -15 7 -44 15 -63 8 -20 15 -47 15 -61 0 -13 7 -37 15 -52 8 -16 15 -41 15
-56 0 -15 5 -30 10 -33 6 -3 10 -18 10 -32 0 -14 6 -39 14 -56 8 -18 16 -43
19 -57 6 -33 26 -88 43 -123 8 -16 14 -40 14 -53 0 -13 4 -24 9 -24 5 0 12
-14 16 -31 4 -17 13 -42 21 -57 8 -15 14 -33 14 -39 0 -7 5 -13 10 -13 6 0 10
-7 10 -16 0 -9 6 -28 13 -42 8 -15 21 -42 30 -60 9 -19 17 -42 17 -52 0 -9 7
-23 15 -30 8 -7 15 -19 15 -26 0 -8 4 -22 9 -32 17 -34 69 -148 86 -187 9 -22
27 -62 41 -88 13 -27 24 -55 24 -62 0 -7 7 -18 15 -25 8 -7 15 -21 15 -32 0
-10 7 -21 15 -24 8 -4 15 -17 15 -29 0 -22 27 -84 42 -95 3 -3 10 -18 13 -33
4 -15 11 -27 16 -27 16 0 10 50 -7 57 -8 3 -13 11 -10 18 2 7 -2 21 -9 32 -8
10 -15 25 -15 34 0 9 -7 22 -15 29 -8 7 -15 23 -15 35 0 12 -7 28 -15 35 -8 7
-15 23 -15 36 0 12 -4 25 -9 29 -5 3 -12 19 -16 35 -4 17 -10 30 -15 30 -5 0
-12 14 -15 32 -4 18 -11 39 -15 48 -4 8 -17 38 -29 65 -12 28 -26 58 -32 67
-5 10 -9 26 -9 35 0 10 -7 27 -15 37 -8 11 -15 29 -15 40 0 12 -7 30 -15 40
-8 11 -15 32 -15 47 0 15 -4 31 -10 34 -5 3 -10 16 -10 29 0 12 -7 31 -15 42
-8 10 -15 33 -15 49 0 17 -7 41 -15 55 -8 14 -14 39 -15 57 0 17 -4 34 -9 37
-5 4 -12 24 -16 46 -4 22 -11 42 -16 46 -5 3 -9 17 -9 32 0 15 -7 40 -15 56
-8 15 -15 39 -15 52 0 14 -7 41 -15 61 -8 19 -15 46 -15 60 0 13 -5 34 -11 45
-6 11 -15 44 -20 72 -25 150 -35 195 -41 202 -5 4 -8 31 -8 60 0 29 -7 88 -15
131 -8 43 -15 108 -15 144 0 37 -7 129 -15 205 -8 77 -17 198 -20 269 -4 72
-10 171 -15 220 -11 123 -11 373 1 470 5 44 12 112 15 150 3 39 12 87 20 108
8 20 14 51 14 67 0 16 6 44 14 62 8 18 20 53 26 78 7 25 14 51 16 58 6 23 22
12 27 -20z m13782 -25 c9 -32 23 -73 31 -91 8 -18 14 -45 14 -61 0 -16 6 -46
14 -68 7 -21 17 -73 20 -114 4 -40 11 -108 16 -149 11 -94 11 -345 0 -465 -5
-49 -12 -148 -15 -220 -3 -71 -12 -195 -20 -274 -8 -79 -15 -171 -15 -205 0
-33 -7 -96 -15 -139 -8 -43 -15 -102 -15 -131 0 -29 -3 -56 -7 -60 -7 -7 -14
-41 -41 -196 -5 -25 -13 -61 -19 -80 -17 -55 -34 -122 -40 -160 -3 -19 -12
-44 -19 -55 -8 -11 -14 -34 -14 -52 0 -17 -4 -34 -9 -37 -5 -4 -12 -24 -16
-46 -4 -22 -11 -42 -16 -46 -5 -3 -9 -20 -9 -38 0 -18 -7 -41 -15 -52 -8 -10
-15 -36 -15 -56 0 -20 -4 -40 -10 -43 -5 -3 -10 -14 -10 -23 0 -9 -7 -30 -15
-46 -8 -15 -15 -36 -15 -45 0 -9 -7 -29 -15 -45 -8 -15 -15 -34 -15 -42 0 -7
-7 -30 -16 -51 -9 -21 -23 -51 -29 -68 -25 -59 -34 -81 -54 -127 -12 -26 -21
-54 -21 -62 0 -8 -4 -18 -10 -21 -5 -3 -10 -14 -10 -24 0 -10 -7 -24 -15 -31
-8 -7 -15 -23 -15 -35 0 -12 -7 -28 -15 -35 -8 -7 -15 -23 -15 -36 0 -13 -4
-24 -10 -24 -5 0 -13 -12 -16 -27 -4 -16 -13 -36 -22 -45 -14 -17 -11 -48 5
-48 11 1 43 72 43 97 0 12 7 23 15 27 8 3 15 14 15 24 0 11 7 25 15 32 8 7 15
17 15 23 0 6 13 38 29 71 29 63 40 88 86 191 14 33 30 68 35 77 6 10 10 24 10
32 0 7 7 19 15 26 8 7 15 22 15 34 0 11 7 30 15 40 8 11 15 26 15 34 0 7 7 20
15 28 8 9 15 26 15 40 0 13 5 24 10 24 6 0 10 7 10 16 0 9 6 28 13 42 8 15 21
42 30 60 9 19 17 41 17 51 0 9 7 26 15 37 8 10 15 29 15 41 0 12 6 37 14 55
24 57 46 132 46 155 0 12 5 25 10 28 6 3 10 18 10 33 0 15 7 40 15 56 8 15 15
40 15 55 0 14 7 39 15 55 8 15 15 43 15 61 0 18 7 52 15 75 8 23 15 56 15 72
0 26 12 71 40 153 35 101 162 268 176 231 8 -21 -3 -218 -15 -276 -6 -25 -10
-73 -11 -108 0 -35 -4 -72 -10 -82 -5 -10 -14 -53 -20 -97 -9 -71 -18 -123
-50 -295 -5 -31 -15 -69 -20 -83 -6 -15 -10 -40 -10 -56 0 -17 -5 -40 -11 -51
-6 -11 -15 -44 -20 -72 -4 -28 -15 -80 -24 -116 -9 -36 -21 -87 -26 -115 -5
-27 -13 -59 -18 -70 -8 -19 -21 -76 -40 -170 -4 -22 -13 -50 -19 -62 -7 -12
-12 -38 -12 -57 0 -20 -4 -44 -10 -54 -9 -17 -24 -76 -40 -166 -5 -27 -14 -54
-20 -60 -5 -5 -10 -23 -10 -38 0 -16 -7 -45 -15 -65 -8 -19 -15 -46 -15 -60 0
-13 -5 -34 -12 -46 -6 -12 -15 -40 -19 -62 -11 -57 -30 -127 -40 -147 -5 -10
-9 -28 -9 -40 0 -21 -13 -68 -42 -153 -6 -16 -14 -48 -18 -70 -20 -97 -31
-131 -74 -227 -35 -79 -219 -280 -592 -648 -751 -740 -906 -902 -1031 -1079
-88 -126 -112 -166 -176 -296 -73 -149 -91 -195 -107 -290 -32 -180 -33 -187
-20 -254 6 -36 14 -79 17 -96 2 -16 11 -44 19 -62 8 -17 14 -36 14 -42 0 -10
54 -116 70 -136 4 -5 11 -30 15 -55 4 -25 11 -50 17 -57 5 -7 5 -13 -1 -17 -5
-3 -12 -33 -16 -67 -11 -97 -72 -205 -160 -287 -80 -74 -179 -132 -224 -132
-17 0 -33 -4 -36 -10 -3 -5 -32 -10 -63 -10 l-57 0 -33 106 -33 105 48 57 c54
64 60 73 103 157 57 110 74 222 66 432 -5 142 -14 222 -38 318 -5 22 -13 63
-18 92 -4 28 -12 58 -16 65 -5 7 -11 33 -15 58 -4 25 -12 63 -18 85 -17 67
-33 247 -25 295 5 30 19 60 44 90 142 171 272 438 345 707 34 122 61 175 166
325 10 15 19 31 19 36 0 5 6 15 14 21 8 7 22 26 31 44 9 18 25 46 35 62 11 17
24 39 30 50 6 11 19 34 29 50 11 17 31 51 45 76 167 309 172 317 180 339 3 8
10 22 15 30 5 8 12 22 15 30 3 8 10 22 15 30 15 25 59 123 66 148 4 12 11 22
16 22 5 0 9 9 9 19 0 11 6 32 14 48 16 32 29 62 81 188 9 22 23 55 31 73 8 18
14 41 14 51 0 10 7 24 15 31 8 7 15 23 15 35 0 13 7 36 15 51 8 16 15 39 15
51 0 12 4 24 9 27 5 4 12 25 16 48 4 23 11 49 15 58 15 32 40 119 40 141 1 13
7 35 15 49 8 14 14 38 15 54 0 15 7 49 15 75 8 25 21 82 30 126 9 44 20 96 25
115 15 62 32 153 41 217 4 35 13 72 19 82 5 11 10 39 11 63 1 60 12 92 32 96
12 3 17 -3 17 -21 0 -14 7 -30 15 -37 8 -7 15 -20 15 -29 0 -9 7 -25 15 -35 8
-11 15 -27 15 -37 0 -9 7 -30 15 -45 8 -16 15 -38 15 -48 0 -11 4 -33 9 -50
39 -129 55 -354 31 -436 -10 -32 -17 -70 -39 -203 -4 -26 -13 -53 -19 -59 -7
-7 -12 -25 -12 -41 0 -28 -23 -112 -41 -148 -4 -9 -11 -33 -14 -53 -4 -20 -11
-39 -16 -42 -5 -3 -9 -14 -9 -26 0 -20 -17 -65 -46 -121 -8 -16 -14 -39 -14
-52 0 -12 -7 -28 -15 -35 -8 -7 -15 -23 -15 -35 0 -12 -7 -28 -15 -35 -8 -7
-15 -21 -15 -31 0 -11 -4 -27 -9 -37 -24 -43 -41 -87 -41 -102 0 -10 -7 -20
-15 -24 -9 -3 -15 -18 -15 -35 0 -16 -6 -31 -15 -35 -8 -3 -15 -16 -15 -30 0
-13 -4 -26 -9 -28 -15 -5 -17 -40 -3 -45 7 -3 12 5 12 20 0 14 7 27 15 31 8 3
15 17 15 31 0 14 4 25 10 25 5 0 13 12 16 28 4 15 13 36 20 47 8 11 14 26 14
33 0 7 7 20 15 28 8 8 11 22 8 31 -4 9 1 19 10 25 10 5 17 19 17 32 0 13 7 29
15 36 8 7 15 21 15 32 0 11 7 26 15 34 8 9 15 26 15 40 0 13 4 24 9 24 5 0 13
14 16 32 4 18 11 39 16 48 22 42 39 85 39 99 0 9 7 25 15 35 8 11 15 29 15 41
0 12 4 25 9 30 5 6 19 42 31 80 13 39 27 74 32 80 4 5 8 18 8 30 0 11 7 29 15
39 8 11 15 29 15 40 0 12 7 30 15 40 8 11 15 27 15 37 0 9 7 30 15 45 8 16 15
36 15 45 0 9 7 30 15 45 8 16 15 39 15 51 0 12 5 25 10 28 6 3 10 19 10 34 0
15 7 36 15 47 8 10 15 30 15 44 0 14 7 36 15 50 8 14 14 35 15 46 0 12 7 35
15 50 8 16 15 39 15 50 0 12 7 35 15 50 8 16 15 41 15 56 0 15 5 30 10 33 6 3
10 20 10 37 0 16 6 44 14 61 15 36 38 118 70 252 8 33 15 60 16 60 2 0 29 109
39 160 4 22 12 56 18 75 14 45 32 114 43 165 4 22 13 56 19 75 6 19 11 49 11
66 0 17 3 34 8 38 7 8 25 84 41 181 5 28 14 63 20 78 6 16 11 41 11 56 0 16 7
45 15 64 8 20 15 54 15 75 0 21 4 42 9 47 9 10 19 58 42 204 6 36 15 73 20 82
5 10 9 33 9 52 0 19 7 54 15 77 8 23 15 57 15 75 0 18 7 49 15 68 8 20 15 58
15 85 0 27 3 52 8 56 7 7 24 91 42 211 5 33 13 73 19 88 6 16 11 46 11 68 0
22 7 56 15 76 8 19 15 46 15 59 0 43 18 25 35 -33z m-16174 -13 c11 -7 19 -22
19 -38 1 -15 7 -38 15 -52 8 -14 14 -35 15 -47 0 -13 4 -23 9 -23 5 0 13 -14
16 -32 4 -18 11 -39 15 -48 22 -46 39 -87 43 -105 10 -39 28 -87 71 -187 9
-20 16 -41 16 -47 0 -11 4 -20 33 -79 9 -19 17 -41 17 -51 0 -9 7 -26 15 -37
8 -10 15 -27 15 -36 0 -9 8 -31 17 -50 29 -59 33 -68 33 -79 0 -6 7 -27 16
-47 9 -21 22 -52 30 -70 8 -18 14 -40 14 -50 0 -9 7 -26 15 -36 8 -11 15 -30
15 -43 0 -13 4 -23 10 -23 5 0 12 -12 16 -27 6 -29 28 -85 44 -115 6 -10 10
-26 10 -36 0 -10 7 -27 15 -38 8 -10 15 -27 15 -36 0 -9 6 -29 14 -45 14 -27
18 -36 51 -118 9 -22 23 -53 31 -68 8 -16 14 -37 14 -47 0 -9 7 -23 15 -30 8
-7 15 -21 15 -30 0 -10 6 -31 14 -47 8 -15 19 -39 24 -53 17 -41 72 -163 88
-192 8 -14 14 -33 14 -41 0 -8 7 -20 15 -27 8 -7 15 -23 15 -35 0 -13 3 -25 8
-27 4 -1 14 -19 23 -38 40 -85 144 -295 149 -300 3 -3 13 -23 24 -45 10 -22
22 -47 27 -55 4 -8 19 -35 31 -60 13 -25 26 -47 30 -50 4 -3 11 -17 17 -30 6
-14 24 -47 41 -75 16 -27 33 -57 37 -65 4 -8 30 -53 58 -100 28 -47 54 -92 58
-100 4 -8 16 -28 27 -45 11 -16 23 -38 26 -47 4 -10 10 -18 13 -18 4 0 17 -19
30 -42 25 -49 27 -52 99 -160 28 -44 52 -82 52 -84 0 -2 14 -23 30 -46 17 -22
30 -47 30 -54 0 -15 32 -78 43 -82 4 -2 7 -14 7 -27 0 -12 7 -28 15 -35 8 -7
15 -20 15 -30 0 -10 7 -23 15 -30 8 -7 15 -18 15 -24 0 -17 230 -469 291 -571
16 -27 34 -59 39 -70 16 -33 61 -107 91 -153 16 -24 29 -46 29 -49 0 -3 11
-21 25 -39 14 -18 25 -36 25 -39 0 -4 14 -24 30 -45 17 -21 30 -41 30 -45 0
-5 11 -23 25 -41 14 -18 25 -37 25 -43 0 -6 9 -15 21 -22 61 -32 -76 -42 -178
-13 -63 18 -80 12 -59 -21 8 -13 29 -49 47 -82 55 -101 70 -127 90 -158 10
-16 22 -37 26 -45 3 -8 9 -17 12 -20 3 -3 28 -39 56 -80 27 -41 54 -79 60 -85
6 -5 31 -37 55 -70 24 -33 49 -64 55 -70 6 -5 38 -41 70 -80 33 -38 96 -109
142 -156 46 -48 83 -95 83 -105 -1 -11 -12 -37 -25 -59 -14 -22 -27 -47 -31
-55 -3 -8 -12 -27 -20 -43 -21 -39 -20 -241 1 -273 8 -13 15 -32 15 -42 0 -11
7 -25 15 -32 8 -7 15 -16 15 -21 0 -18 69 -108 140 -182 65 -67 185 -169 238
-202 56 -34 102 -69 102 -76 0 -5 -9 -9 -21 -9 -11 0 -33 -6 -47 -14 -36 -18
-107 -37 -164 -43 -54 -6 -66 -28 -42 -74 7 -15 14 -33 14 -38 0 -12 31 -57
119 -172 64 -83 273 -299 289 -299 8 0 23 -11 69 -50 7 -5 17 -10 22 -10 5 0
16 -6 23 -12 19 -19 86 -48 108 -48 10 0 21 -4 24 -9 3 -5 18 -12 33 -16 28
-7 63 -36 63 -53 0 -38 -85 -142 -115 -142 -13 0 -55 -45 -55 -59 0 -30 167
-186 230 -214 14 -7 27 -14 30 -18 3 -3 37 -20 75 -38 39 -17 83 -38 98 -46
16 -8 39 -15 51 -15 12 0 31 -7 42 -15 10 -8 30 -15 44 -15 14 0 34 -7 44 -15
11 -8 32 -15 47 -15 15 0 30 -4 34 -9 3 -5 18 -12 35 -16 23 -5 36 -20 65 -73
159 -290 449 -521 817 -650 81 -29 287 -82 371 -97 45 -7 47 -22 7 -61 -16
-16 -30 -33 -30 -39 0 -18 -169 -196 -340 -359 -19 -18 -62 -55 -95 -81 -33
-26 -76 -62 -95 -79 -19 -17 -47 -39 -61 -48 -14 -9 -32 -23 -40 -30 -8 -8
-35 -28 -61 -45 -26 -17 -59 -40 -75 -51 -56 -38 -142 -92 -147 -92 -4 0 -24
-11 -46 -25 -22 -14 -46 -25 -53 -25 -7 0 -18 -5 -25 -12 -12 -12 -71 -36
-112 -45 -14 -3 -31 -10 -38 -16 -23 -18 -242 -50 -255 -37 -12 11 -2 195 13
250 16 54 40 108 80 175 16 28 33 57 37 65 8 19 94 131 283 370 36 45 76 99
90 119 14 21 36 51 50 68 14 17 32 40 40 53 8 12 21 28 28 36 6 7 12 22 12 34
0 18 -9 12 -49 -32 -102 -111 -148 -157 -211 -207 -36 -29 -81 -67 -100 -84
-19 -18 -51 -43 -70 -57 -19 -13 -37 -27 -40 -30 -3 -4 -52 -38 -110 -76 -130
-85 -227 -138 -365 -199 -16 -7 -46 -20 -67 -29 -20 -9 -44 -16 -55 -16 -10 0
-27 -7 -37 -15 -11 -8 -32 -15 -47 -15 -15 0 -31 -5 -34 -10 -3 -6 -18 -10
-32 -10 -21 0 -24 3 -19 22 3 13 9 41 12 63 3 22 8 47 12 55 20 52 35 167 41
312 l6 167 30 33 c37 41 109 98 124 98 6 0 11 4 11 9 0 5 10 13 23 17 12 4 39
18 59 30 21 13 44 24 52 24 8 0 21 6 29 14 7 8 24 16 37 18 13 1 25 9 28 16 5
17 -43 15 -58 -3 -7 -8 -23 -15 -37 -15 -13 0 -31 -7 -39 -15 -9 -8 -25 -15
-37 -15 -12 -1 -33 -7 -47 -15 -14 -8 -39 -14 -57 -15 -17 0 -35 -4 -38 -10
-3 -5 -20 -10 -37 -10 -17 0 -54 -6 -82 -14 -73 -21 -232 -36 -370 -36 l-118
0 7 28 c4 15 11 43 15 62 30 133 121 291 207 355 21 16 44 35 50 41 7 7 31 20
53 30 22 10 40 21 40 26 0 4 6 8 14 8 8 0 27 6 43 14 15 8 44 21 63 29 127 54
262 119 284 138 85 71 76 87 -19 29 -36 -22 -70 -40 -76 -40 -6 0 -23 -6 -37
-13 -15 -8 -42 -21 -60 -30 -19 -9 -44 -17 -56 -17 -12 0 -27 -5 -34 -12 -17
-17 -212 -50 -406 -68 -59 -6 -116 -15 -125 -20 -23 -12 -548 -11 -580 2 -14
5 -80 12 -146 15 -74 4 -131 11 -149 20 -27 14 -28 17 -21 61 6 42 56 159 73
172 4 3 20 23 36 45 50 67 219 235 237 235 10 0 20 4 23 9 3 4 31 11 63 15 31
4 62 11 69 17 13 11 67 21 214 39 47 6 101 15 120 20 19 6 51 10 71 10 20 0
53 7 72 15 20 8 50 15 66 15 16 0 33 4 36 10 3 6 18 10 33 10 15 0 41 9 57 20
17 11 38 20 48 20 10 0 15 5 12 10 -9 15 -53 12 -62 -4 -4 -8 -28 -16 -53 -19
-25 -3 -81 -13 -125 -21 -125 -25 -205 -35 -273 -36 -34 0 -71 -5 -82 -12 -15
-9 -64 -9 -227 1 -343 22 -387 26 -400 34 -7 4 -40 12 -75 17 -131 19 -176 28
-196 39 -11 6 -33 11 -49 11 -15 1 -39 7 -53 15 -14 8 -36 15 -50 15 -14 0
-34 7 -44 15 -11 8 -32 15 -47 15 -15 0 -31 5 -34 10 -3 6 -15 10 -27 10 -11
0 -34 6 -51 14 -18 8 -57 22 -87 31 -99 31 -100 32 -100 65 0 16 4 30 9 30 5
0 14 12 20 28 23 57 142 222 160 222 5 0 19 10 32 21 104 93 226 136 313 110
125 -37 221 -45 566 -44 289 0 354 3 399 17 30 9 72 16 93 16 21 0 38 5 38 10
0 6 -8 10 -17 10 -236 0 -484 9 -495 17 -7 6 -57 11 -111 12 -54 1 -122 7
-150 12 -29 6 -86 15 -127 19 -77 9 -162 23 -240 42 -25 6 -65 14 -90 19 -25
4 -72 15 -105 24 -33 9 -80 21 -105 26 -24 5 -49 14 -54 19 -6 6 -21 10 -36
10 -14 0 -34 7 -44 15 -11 8 -32 15 -47 15 -15 0 -30 4 -34 9 -3 5 -20 13 -37
17 -18 3 -39 10 -48 15 -8 4 -33 15 -55 24 -119 49 -289 133 -370 186 -16 10
-37 22 -45 26 -8 4 -33 19 -54 35 -21 15 -45 28 -53 28 -19 0 -16 40 5 46 9 3
24 9 32 14 17 11 131 66 175 85 81 36 104 45 118 45 9 0 18 4 21 9 4 5 24 12
46 16 22 4 42 11 46 16 7 12 191 12 199 -1 3 -5 15 -10 27 -10 20 0 65 -17
121 -46 16 -8 36 -14 45 -14 9 0 26 -7 36 -15 11 -8 31 -15 45 -15 14 0 35 -7
45 -15 11 -8 32 -15 47 -15 15 0 31 -4 34 -10 3 -5 16 -10 29 -10 12 0 31 -7
42 -15 10 -8 35 -15 55 -15 20 0 42 -7 49 -15 8 -9 29 -15 56 -15 23 0 45 -4
48 -9 4 -5 30 -12 59 -16 28 -4 57 -11 62 -15 6 -4 35 -10 65 -13 30 -3 80
-10 110 -16 144 -27 563 -51 575 -32 2 5 -32 12 -78 16 -45 4 -95 9 -112 12
-16 2 -68 9 -115 14 -47 5 -104 13 -127 19 -23 5 -58 10 -78 10 -19 0 -52 7
-72 15 -19 8 -52 15 -72 15 -20 1 -47 7 -61 15 -14 8 -42 14 -62 15 -20 0 -40
4 -43 10 -3 6 -18 10 -33 10 -15 0 -40 7 -56 15 -15 8 -40 15 -55 15 -15 0
-36 7 -47 15 -10 8 -30 15 -44 15 -14 0 -34 7 -44 15 -11 8 -30 15 -42 15 -12
0 -27 7 -34 15 -7 8 -25 15 -41 15 -16 0 -29 4 -29 9 0 5 -10 12 -22 16 -28 8
-41 13 -152 65 -49 23 -98 46 -110 51 -12 4 -43 22 -71 39 -27 16 -62 35 -77
41 -16 6 -28 15 -28 20 0 5 -6 9 -13 9 -15 0 -302 189 -317 210 -3 3 -27 23
-55 44 -162 122 -511 471 -641 640 -18 24 -49 61 -69 81 -19 21 -35 44 -35 51
0 8 17 25 38 39 37 24 40 25 267 25 197 1 231 -1 241 -14 6 -9 15 -16 19 -16
4 0 24 -13 45 -30 21 -16 40 -30 43 -30 4 0 68 -42 145 -92 76 -51 147 -99
157 -105 73 -46 192 -121 214 -135 14 -10 35 -22 46 -28 11 -6 43 -24 70 -40
28 -16 60 -34 72 -39 11 -5 24 -15 28 -20 3 -6 15 -11 26 -11 10 0 19 -4 19
-9 0 -5 12 -14 28 -20 15 -6 63 -31 107 -55 44 -25 87 -48 95 -52 23 -9 181
-83 213 -100 16 -8 34 -14 42 -14 7 0 18 -7 25 -15 7 -8 23 -15 35 -15 13 0
36 -6 52 -14 41 -21 71 -32 133 -51 30 -10 70 -24 88 -31 18 -8 42 -14 53 -14
11 0 34 -7 50 -16 32 -16 84 -16 84 1 0 6 -17 11 -37 13 -21 2 -38 7 -38 12 0
5 -14 11 -31 15 -17 4 -42 13 -57 21 -15 8 -35 14 -44 14 -9 0 -20 5 -23 10
-3 6 -17 10 -29 10 -13 0 -29 7 -36 15 -7 8 -21 15 -30 15 -10 0 -31 6 -47 14
-25 13 -97 45 -178 81 -80 35 -376 185 -385 196 -3 3 -18 12 -35 21 -71 36
-100 54 -108 66 -4 6 -17 12 -27 12 -11 0 -20 3 -20 8 0 4 -20 18 -45 32 -25
14 -45 27 -45 30 0 3 -17 14 -37 25 -21 11 -42 25 -46 32 -4 7 -12 13 -18 13
-9 0 -278 195 -289 210 -3 3 -27 23 -55 44 -77 58 -207 177 -350 320 -186 187
-296 314 -423 491 -40 55 -75 105 -80 110 -4 6 -11 17 -15 25 -10 21 -30 52
-44 68 -7 7 -13 20 -13 28 0 8 -4 14 -10 14 -5 0 -10 6 -10 13 0 8 -13 33 -30
55 -16 23 -30 48 -30 55 0 7 -4 17 -10 23 -18 18 -70 127 -70 147 0 16 3 17
15 7 8 -6 67 -16 132 -20 181 -13 279 -35 332 -74 9 -6 58 -56 111 -110 406
-422 790 -780 1010 -942 30 -23 61 -48 69 -57 7 -10 18 -17 23 -17 5 0 33 -18
62 -40 29 -22 58 -40 64 -40 7 0 12 -4 12 -9 0 -5 19 -19 43 -31 23 -12 44
-25 47 -29 3 -3 16 -12 30 -18 14 -7 50 -27 80 -44 97 -56 242 -129 256 -129
8 0 14 -4 14 -10 0 -5 11 -10 25 -10 30 0 33 20 5 27 -11 3 -20 9 -20 14 0 5
-5 9 -12 9 -6 0 -44 20 -84 45 -39 25 -75 45 -78 45 -7 0 -20 10 -51 38 -7 6
-16 12 -19 12 -5 0 -106 70 -141 98 -5 4 -57 43 -115 87 -58 44 -121 94 -140
111 -19 18 -58 49 -86 71 -72 54 -327 284 -414 374 -73 76 -161 171 -205 223
-27 32 -57 66 -66 75 -29 29 -133 162 -173 220 -21 31 -41 58 -45 61 -8 6
-124 181 -130 195 -2 5 -14 24 -26 40 -13 17 -26 40 -30 53 -3 12 -11 22 -16
22 -5 0 -9 9 -9 19 0 11 -4 22 -9 26 -11 6 -22 27 -88 160 -50 101 -64 132
-88 190 -9 22 -20 47 -24 55 -5 9 -12 30 -15 48 -4 17 -12 34 -17 37 -5 4 -9
16 -9 29 0 12 -7 31 -15 42 -8 10 -15 30 -15 44 0 14 -7 36 -15 50 -8 14 -14
35 -15 48 0 12 -4 30 -10 40 -24 44 -49 212 -32 212 6 0 13 -4 16 -9 3 -5 36
-12 73 -15 66 -7 135 -25 200 -53 17 -7 36 -13 42 -13 6 0 19 -4 29 -10 9 -5
37 -18 62 -29 48 -21 134 -104 166 -161 10 -19 24 -40 29 -46 6 -6 17 -22 25
-34 8 -13 116 -160 239 -329 204 -278 255 -346 295 -391 7 -8 22 -28 32 -45
10 -16 33 -46 50 -65 17 -19 53 -62 80 -95 161 -202 327 -376 493 -519 57 -49
115 -100 129 -112 13 -13 28 -24 33 -24 4 0 21 -14 37 -30 28 -28 62 -40 62
-22 0 4 -23 28 -52 52 -66 57 -373 363 -384 383 -5 8 -29 37 -54 64 -50 53
-151 172 -190 224 -14 18 -33 40 -42 48 -10 9 -18 20 -18 26 0 5 -18 30 -40
55 -22 25 -40 48 -40 51 0 3 -13 24 -30 45 -16 22 -33 44 -37 49 -27 35 -193
293 -213 330 -6 11 -24 43 -41 70 -16 28 -35 62 -40 78 -6 15 -15 27 -20 27
-5 0 -9 9 -9 19 0 11 -4 22 -10 26 -5 3 -37 63 -70 133 -34 70 -66 134 -71
142 -5 8 -12 22 -15 30 -3 8 -12 27 -20 42 -8 14 -14 33 -14 42 0 9 -4 16 -10
16 -5 0 -10 8 -10 18 0 10 -7 27 -15 38 -8 10 -15 27 -15 36 0 9 -8 31 -17 50
-9 18 -22 45 -30 60 -7 14 -13 33 -13 41 0 9 -8 30 -17 49 -30 61 -33 68 -33
84 0 9 -6 28 -14 42 -16 31 -35 84 -45 127 -4 17 -13 40 -19 52 -7 12 -12 33
-12 47 0 14 -4 28 -10 31 -5 3 -10 16 -10 28 0 12 -7 35 -15 51 -8 15 -15 40
-15 55 0 14 -7 39 -15 55 -8 15 -15 39 -15 52 0 14 -7 41 -15 61 -8 19 -15 46
-15 60 0 13 -5 34 -11 45 -6 11 -15 44 -20 72 -4 28 -15 87 -24 131 -9 44 -20
107 -25 140 -5 33 -14 78 -19 100 -6 22 -11 59 -11 82 0 23 -6 68 -14 100 -8
32 -17 96 -20 143 -2 47 -9 119 -14 160 -6 41 -11 185 -12 319 0 140 -5 252
-11 262 -11 22 -6 23 22 9z m18549 -9 c-6 -12 -10 -115 -11 -263 0 -134 -4
-274 -10 -313 -5 -38 -12 -110 -15 -160 -3 -49 -12 -116 -20 -148 -7 -32 -14
-77 -14 -100 0 -23 -5 -60 -11 -82 -5 -22 -14 -67 -19 -100 -5 -33 -16 -96
-25 -140 -9 -44 -19 -100 -24 -125 -4 -25 -12 -61 -18 -80 -16 -49 -33 -119
-40 -155 -2 -16 -11 -44 -19 -62 -8 -17 -14 -44 -14 -60 0 -15 -7 -37 -15 -47
-8 -11 -15 -32 -15 -47 0 -15 -4 -31 -10 -34 -5 -3 -10 -18 -10 -33 0 -15 -6
-36 -14 -47 -7 -11 -16 -33 -18 -50 -7 -36 -25 -90 -44 -127 -8 -14 -14 -33
-14 -42 0 -9 -4 -24 -9 -34 -22 -40 -41 -86 -41 -98 0 -7 -7 -30 -16 -51 -9
-21 -23 -51 -30 -68 -7 -16 -24 -57 -39 -90 -33 -73 -51 -115 -59 -135 -3 -8
-10 -22 -15 -30 -5 -8 -42 -82 -82 -165 -41 -82 -79 -156 -86 -163 -7 -7 -13
-18 -13 -23 0 -5 -17 -37 -38 -71 -21 -35 -41 -70 -45 -78 -4 -8 -15 -27 -25
-42 -9 -14 -39 -62 -67 -105 -27 -43 -69 -105 -92 -138 -23 -33 -63 -90 -88
-126 -24 -36 -54 -74 -65 -84 -11 -10 -20 -23 -20 -29 0 -7 -8 -18 -17 -27
-10 -8 -29 -30 -43 -48 -29 -38 -87 -107 -180 -216 -65 -75 -349 -365 -450
-460 -40 -37 -49 -51 -37 -53 9 -2 31 10 48 27 17 17 34 31 37 31 4 0 18 10
32 23 14 12 72 63 130 112 197 169 431 425 613 668 21 28 41 54 46 57 4 3 35
43 69 90 34 47 66 90 72 97 5 6 93 125 195 265 102 139 188 258 193 263 4 6
23 35 42 65 50 79 127 157 179 181 26 12 53 25 61 29 9 4 30 11 48 14 17 4 34
12 37 17 4 5 17 9 31 9 14 0 35 6 47 14 12 8 57 17 99 21 43 4 80 11 84 16 3
5 10 9 16 9 17 0 -12 -193 -33 -214 -5 -6 -9 -21 -9 -35 -1 -15 -7 -37 -15
-51 -8 -14 -15 -36 -15 -50 0 -14 -7 -34 -15 -44 -8 -11 -15 -30 -15 -42 0
-13 -4 -25 -9 -29 -5 -3 -13 -20 -17 -37 -3 -18 -10 -39 -15 -48 -9 -17 -27
-61 -55 -132 -11 -27 -22 -48 -26 -48 -5 0 -8 -6 -8 -12 0 -20 -97 -205 -111
-214 -5 -3 -9 -14 -9 -25 0 -10 -4 -19 -9 -19 -5 0 -12 -9 -16 -20 -3 -11 -25
-48 -47 -82 -23 -35 -62 -94 -87 -133 -25 -38 -49 -72 -52 -75 -4 -3 -24 -30
-45 -61 -41 -59 -149 -197 -168 -214 -6 -5 -50 -55 -97 -110 -107 -125 -274
-291 -404 -404 -55 -47 -109 -95 -120 -107 -11 -11 -42 -38 -70 -58 -27 -21
-66 -52 -85 -70 -19 -17 -82 -67 -140 -111 -58 -44 -109 -83 -115 -87 -34 -27
-136 -98 -140 -98 -6 0 -20 -11 -50 -38 -7 -6 -17 -12 -20 -12 -4 0 -46 -24
-93 -53 -48 -29 -95 -56 -104 -60 -10 -3 -18 -11 -18 -17 0 -13 25 -13 48 -1
9 5 44 23 77 39 52 25 103 52 265 138 19 11 37 22 40 25 3 4 24 17 48 29 23
12 42 26 42 30 0 4 8 10 18 13 42 15 384 279 467 362 11 11 74 68 140 126 120
106 426 408 626 618 78 82 114 113 137 117 18 4 32 10 32 15 0 5 15 9 33 9 17
0 50 5 72 11 22 6 94 15 160 19 74 4 121 12 123 19 2 6 8 11 13 11 15 0 9 -43
-12 -75 -10 -16 -22 -37 -25 -45 -17 -41 -41 -88 -60 -115 -12 -16 -25 -40
-29 -52 -3 -13 -10 -23 -15 -23 -4 0 -11 -11 -14 -25 -4 -14 -11 -25 -16 -25
-6 0 -10 -4 -10 -9 0 -18 -105 -166 -253 -359 -85 -111 -343 -377 -509 -526
-93 -83 -138 -119 -323 -257 -66 -49 -125 -93 -132 -99 -7 -5 -14 -10 -17 -10
-7 0 -96 -61 -114 -77 -7 -7 -20 -13 -28 -13 -8 0 -14 -3 -14 -8 0 -4 -17 -16
-37 -27 -20 -11 -66 -39 -102 -62 -36 -24 -71 -43 -77 -43 -7 0 -14 -3 -16 -7
-4 -11 -282 -154 -383 -198 -81 -36 -153 -68 -178 -81 -16 -8 -37 -14 -47 -14
-9 0 -23 -7 -30 -15 -7 -8 -23 -15 -36 -15 -12 0 -26 -4 -29 -10 -3 -5 -14
-10 -23 -10 -9 0 -29 -6 -44 -14 -15 -8 -40 -17 -57 -21 -17 -4 -31 -10 -31
-15 0 -5 -17 -10 -37 -12 -21 -2 -38 -7 -38 -13 0 -17 55 -17 90 -1 18 9 41
16 50 16 9 0 26 5 38 12 12 6 35 15 52 19 49 12 135 43 178 65 16 8 35 14 44
14 8 0 27 6 41 14 15 7 43 21 62 29 58 26 214 99 230 108 8 4 49 25 90 46 41
21 77 41 80 44 3 3 12 8 20 12 8 4 22 11 30 16 8 5 22 12 30 15 8 4 29 15 45
26 17 11 37 23 45 27 16 7 135 77 160 94 8 5 23 12 33 15 9 4 17 10 17 14 0 5
10 12 23 16 12 4 24 10 27 13 8 11 120 83 150 97 8 4 17 10 20 13 10 11 214
146 232 153 10 4 18 12 18 18 0 5 5 10 11 10 6 0 29 14 50 31 l39 31 219 -1
c228 -1 239 -2 284 -33 35 -25 34 -37 -6 -79 -17 -19 -48 -54 -67 -79 -140
-181 -481 -525 -630 -635 -15 -11 -45 -34 -66 -52 -85 -69 -325 -228 -374
-248 -8 -3 -37 -19 -65 -34 -56 -33 -110 -60 -205 -103 -87 -40 -101 -46 -127
-53 -13 -4 -23 -11 -23 -16 0 -5 -10 -9 -23 -9 -13 0 -32 -7 -43 -15 -10 -8
-31 -15 -45 -15 -15 0 -32 -7 -39 -15 -7 -8 -23 -15 -35 -15 -13 0 -36 -7 -51
-15 -16 -8 -39 -15 -50 -15 -12 0 -35 -7 -50 -15 -16 -8 -41 -15 -56 -15 -15
0 -30 -4 -33 -10 -3 -6 -23 -10 -43 -10 -20 -1 -48 -7 -62 -15 -14 -8 -42 -14
-63 -15 -21 0 -48 -5 -60 -12 -21 -11 -41 -14 -252 -39 -55 -6 -107 -14 -115
-17 -8 -3 -22 -6 -30 -7 -110 -7 -199 -19 -195 -25 12 -20 428 3 575 31 30 6
80 13 110 16 30 3 60 9 65 13 6 4 34 11 62 15 29 4 55 11 59 16 3 5 22 9 43 9
20 0 46 7 57 15 10 8 33 15 50 15 16 0 39 7 50 15 10 8 31 15 46 15 15 0 30 5
33 10 3 6 16 10 28 10 12 0 35 7 51 15 15 8 38 15 50 15 12 0 31 7 42 15 10 8
28 15 40 15 11 0 24 3 27 6 11 12 121 54 139 54 9 0 20 5 23 10 8 13 192 13
199 1 4 -5 24 -12 46 -16 22 -4 42 -11 46 -16 3 -5 15 -9 28 -9 12 0 31 -7 42
-15 10 -8 26 -15 34 -15 13 0 98 -40 198 -94 15 -8 35 -17 45 -20 30 -9 19
-33 -29 -63 -26 -15 -58 -36 -73 -45 -14 -10 -35 -22 -46 -28 -11 -6 -42 -24
-70 -40 -46 -27 -107 -58 -145 -74 -8 -3 -22 -10 -30 -15 -17 -10 -65 -31
-125 -56 -22 -9 -48 -20 -57 -25 -10 -6 -26 -10 -36 -10 -10 0 -27 -7 -38 -15
-10 -8 -31 -15 -45 -15 -14 0 -34 -7 -45 -15 -10 -8 -30 -15 -44 -15 -15 0
-31 -5 -38 -12 -6 -6 -30 -14 -54 -19 -24 -4 -70 -15 -103 -24 -33 -9 -82 -20
-110 -24 -27 -4 -63 -13 -78 -19 -16 -7 -41 -12 -57 -12 -16 0 -55 -7 -87 -15
-31 -8 -75 -15 -98 -15 -22 0 -72 -7 -111 -15 -39 -8 -115 -15 -170 -16 -54 0
-105 -6 -112 -12 -11 -8 -252 -17 -495 -17 -10 0 -15 -4 -12 -10 3 -5 20 -10
37 -10 16 0 58 -7 92 -16 50 -14 120 -17 401 -17 340 -1 435 7 561 44 94 28
210 -16 328 -123 11 -10 23 -18 26 -18 25 0 180 -237 180 -275 0 -27 -4 -30
-100 -60 -30 -9 -69 -23 -87 -31 -17 -8 -40 -14 -51 -14 -12 0 -24 -4 -27 -10
-3 -6 -16 -10 -28 -10 -12 0 -35 -7 -51 -15 -15 -8 -38 -15 -50 -15 -11 -1
-32 -7 -46 -15 -14 -8 -38 -14 -53 -15 -16 0 -38 -5 -49 -11 -20 -11 -65 -20
-190 -38 -31 -5 -62 -12 -69 -16 -13 -9 -104 -16 -422 -36 -146 -9 -203 -10
-216 -2 -10 6 -45 12 -77 12 -65 0 -157 13 -279 37 -44 8 -100 18 -125 21 -25
3 -49 11 -53 19 -9 16 -53 19 -62 4 -3 -6 2 -10 12 -10 10 0 32 -9 48 -20 17
-11 42 -20 57 -20 15 0 30 -4 33 -10 3 -6 21 -10 38 -10 18 -1 43 -7 57 -15
14 -8 45 -14 70 -15 25 0 61 -4 80 -10 19 -5 73 -14 120 -20 146 -18 201 -28
213 -39 7 -5 37 -13 67 -17 30 -4 69 -13 85 -20 31 -13 189 -170 240 -239 17
-22 33 -42 37 -45 17 -13 67 -129 73 -171 10 -66 -8 -74 -167 -82 -70 -3 -135
-10 -145 -16 -23 -12 -561 -13 -584 0 -9 5 -66 13 -125 19 -194 18 -389 51
-406 68 -7 7 -22 12 -34 12 -12 0 -35 6 -51 14 -37 19 -100 46 -107 46 -3 0
-35 18 -71 40 -95 58 -104 42 -19 -29 13 -11 119 -66 144 -75 8 -3 22 -10 30
-15 8 -5 29 -14 45 -21 70 -29 94 -39 165 -74 79 -40 112 -58 120 -67 3 -3 22
-18 43 -34 39 -29 127 -135 127 -153 0 -5 7 -15 15 -22 8 -7 15 -23 15 -36 0
-13 4 -24 8 -24 8 0 30 -67 43 -130 4 -19 10 -45 14 -57 7 -23 7 -23 -115 -23
-132 0 -266 13 -370 36 -36 8 -75 14 -87 14 -12 0 -25 4 -28 10 -3 6 -21 10
-38 10 -18 1 -43 7 -57 15 -14 8 -35 14 -47 15 -12 0 -28 7 -37 15 -8 8 -28
15 -44 15 -17 0 -32 6 -36 15 -7 18 -60 21 -54 3 3 -7 15 -15 28 -16 13 -2 30
-10 37 -18 8 -8 21 -14 29 -14 8 0 31 -11 52 -24 20 -12 46 -26 57 -29 11 -4
33 -18 49 -32 16 -14 32 -25 36 -25 4 0 30 -23 59 -51 l51 -52 0 -156 c0 -110
5 -168 15 -196 8 -22 14 -57 15 -77 0 -20 4 -39 9 -42 4 -3 11 -27 14 -53 3
-27 9 -58 12 -71 6 -19 4 -22 -18 -22 -14 0 -29 5 -32 10 -3 6 -19 10 -34 10
-15 0 -36 7 -47 15 -10 8 -27 15 -37 15 -11 0 -35 7 -55 16 -82 36 -100 44
-162 74 -108 52 -161 82 -244 138 -43 28 -82 52 -85 52 -3 0 -26 18 -51 40
-25 22 -48 40 -51 40 -3 0 -19 12 -35 26 -16 14 -63 53 -104 87 -41 34 -103
91 -138 127 -59 61 -62 65 -40 70 13 3 24 14 26 23 2 10 -22 99 -53 199 -53
171 -62 228 -35 228 17 0 12 157 -6 191 -26 51 -14 64 63 65 80 1 220 21 245
34 10 6 30 10 45 10 16 0 41 7 57 15 15 8 38 15 50 15 12 0 31 7 42 15 10 8
30 15 44 15 14 0 34 7 44 15 11 8 30 15 42 15 12 0 35 6 51 14 15 8 53 27 83
41 117 58 153 78 169 94 9 9 35 30 59 47 50 37 122 117 122 136 0 14 -42 58
-56 58 -28 0 -114 108 -114 142 0 15 39 47 65 54 14 3 28 10 31 15 3 5 15 9
28 9 12 0 31 7 42 15 10 8 27 15 37 15 9 0 17 3 17 8 0 4 20 18 45 32 25 14
45 28 45 32 0 5 6 8 14 8 22 0 245 224 312 314 91 122 114 156 114 167 0 5 7
23 16 40 23 46 11 66 -44 72 -57 6 -128 25 -164 43 -14 8 -36 14 -47 14 -12 0
-21 4 -21 9 0 7 45 41 101 76 55 34 184 143 244 206 77 82 165 207 165 236 0
10 7 27 15 37 11 15 15 49 15 136 0 87 -4 121 -15 136 -8 10 -15 25 -15 32 0
7 -11 30 -25 51 -48 77 -47 82 47 179 46 48 111 119 143 157 33 39 70 81 82
95 42 49 93 116 150 200 32 47 60 87 64 90 3 3 9 12 12 20 4 8 16 29 26 45 20
31 35 57 90 158 18 33 39 69 47 82 21 33 4 39 -59 21 -102 -29 -239 -19 -178
13 12 7 21 17 21 23 0 6 11 26 25 44 14 18 25 36 25 39 0 4 12 24 28 44 15 20
32 45 39 56 7 11 39 63 71 115 32 52 62 102 65 110 4 8 11 22 17 30 29 45 90
154 120 215 19 39 37 72 40 75 11 10 180 355 180 366 0 6 7 17 15 24 8 7 15
20 15 30 0 10 7 23 15 30 8 7 15 23 15 35 0 13 3 25 8 27 10 4 42 67 42 82 0
7 14 32 30 54 17 23 30 44 30 46 0 2 24 40 53 84 28 43 58 87 65 98 6 10 16
28 21 39 5 11 24 43 43 71 19 28 38 58 42 65 3 8 15 28 26 44 11 17 23 37 27
45 6 13 63 111 93 160 5 8 21 38 36 65 15 28 40 73 55 100 15 28 40 74 54 102
14 29 30 55 36 58 5 4 9 15 9 25 0 10 3 20 8 22 7 3 119 224 148 296 10 23 21
42 26 42 4 0 8 11 8 24 0 13 7 29 15 36 8 7 15 19 15 27 0 8 14 41 30 75 17
33 30 66 30 74 0 8 5 14 10 14 6 0 10 7 10 16 0 9 6 28 13 42 8 15 21 42 30
60 9 19 17 42 17 52 0 9 7 23 15 30 8 7 15 21 15 30 0 10 6 31 14 47 8 15 22
46 31 68 9 22 20 48 25 57 6 10 10 24 10 32 0 8 8 29 17 48 9 18 22 45 30 60
7 14 13 33 13 41 0 9 8 30 17 49 30 61 33 68 33 86 0 10 7 27 15 38 8 10 15
27 15 36 0 9 6 29 14 45 8 15 22 48 32 73 9 25 23 59 30 77 8 17 14 36 14 42
0 11 4 20 33 79 9 19 17 40 17 47 0 7 6 26 14 42 8 15 22 48 31 73 9 25 21 52
25 60 4 9 11 30 14 48 4 17 12 34 17 37 5 4 9 17 9 29 0 13 6 29 14 35 8 6 16
24 19 39 6 36 36 116 67 182 4 9 11 30 15 48 3 18 11 32 15 32 5 0 12 16 16
35 3 19 10 38 15 41 5 3 9 20 9 39 0 22 6 38 18 44 26 16 34 13 22 -8z m-6053
-2236 c87 -26 129 -101 104 -186 l-12 -39 -79 0 -79 0 6 36 c8 47 -13 64 -78
64 -53 0 -79 -18 -79 -55 0 -32 29 -50 127 -80 93 -29 137 -60 153 -111 25
-76 -16 -191 -80 -225 l-35 -18 35 -1 c274 -4 588 -51 795 -117 454 -146 729
-430 826 -853 26 -110 36 -361 20 -495 -15 -129 -154 -900 -185 -1030 -62
-253 -185 -537 -307 -709 -131 -184 -351 -388 -510 -474 -38 -20 -69 -39 -68
-42 0 -3 176 -572 393 -1265 l392 -1260 -870 -3 c-478 -1 -873 1 -877 5 -4 5
-171 531 -370 1171 l-363 1162 -267 0 -267 0 -10 -57 c-5 -32 -85 -559 -178
-1170 l-169 -1113 -832 0 c-458 0 -833 1 -833 3 0 1 74 420 165 932 90 511
163 931 161 932 -1 1 -17 -48 -35 -110 -242 -830 -704 -1378 -1391 -1650 -452
-179 -1037 -256 -1645 -217 -884 58 -1410 350 -1657 921 -49 114 -93 283 -114
437 -21 158 -21 473 1 667 9 83 181 1091 383 2240 l367 2090 50 5 c49 5 49 5
28 21 -33 23 -53 68 -53 119 0 25 17 143 37 263 l38 217 81 0 81 0 -23 -127
c-58 -326 -59 -331 -39 -353 22 -24 90 -27 122 -5 28 20 37 50 68 230 14 83
30 174 36 203 l10 52 80 0 c43 0 79 -3 79 -7 0 -5 -18 -106 -39 -225 -46 -252
-67 -310 -132 -358 l-43 -31 104 3 104 3 37 215 c21 118 45 257 54 308 l17 92
83 0 83 0 53 -157 53 -158 18 105 c10 58 23 129 29 158 l10 52 80 0 c43 0 79
-1 79 -3 0 -10 -99 -567 -105 -589 -7 -28 -7 -28 47 -28 l55 0 33 188 c18 103
42 241 54 307 l21 120 83 3 c76 3 83 1 78 -15 -3 -10 -12 -61 -21 -113 -9 -52
-18 -103 -21 -112 -4 -14 1 -18 23 -18 25 0 36 13 107 126 44 69 85 128 91
130 7 3 46 4 87 2 l75 -3 -99 -157 -99 -156 44 -154 44 -153 -61 -3 -61 -3
-350 -1972 c-192 -1085 -355 -2010 -361 -2057 -7 -47 -16 -166 -20 -265 -6
-150 -4 -194 10 -265 45 -219 182 -359 413 -421 111 -30 399 -38 533 -15 348
61 572 244 701 574 82 211 43 4 589 3087 133 748 243 1378 245 1400 2 22 6 99
9 170 l6 130 -54 -180 -53 -180 -138 -3 -138 -3 7 32 c3 17 6 159 6 315 l0
284 90 0 90 0 -5 -87 c-12 -229 -14 -383 -6 -383 6 0 44 106 86 235 l76 235
87 0 87 0 -7 -232 c-4 -127 -5 -234 -3 -237 10 -9 18 12 89 236 l72 228 87 3
c48 1 87 1 87 -2 0 -5 -194 -571 -205 -598 -6 -16 1 -18 79 -18 61 0 88 4 90
13 2 6 25 136 51 287 26 151 49 285 52 298 5 21 10 22 88 22 l83 0 47 -142
c26 -79 51 -146 54 -151 4 -4 17 52 30 125 31 186 19 168 112 168 l81 0 -6
-27 c-3 -16 -26 -145 -51 -287 -25 -143 -48 -270 -51 -283 l-6 -23 151 0 c113
0 153 3 155 13 2 6 25 136 51 287 26 151 49 285 52 298 5 22 7 22 164 22 170
0 206 -7 244 -50 16 -18 20 -36 19 -94 -1 -87 -25 -164 -64 -201 -17 -16 -30
-36 -30 -44 0 -9 15 -63 34 -121 32 -101 34 -105 62 -105 23 0 30 5 32 25 4
33 80 471 93 538 l10 52 80 0 c43 0 79 -2 79 -5 0 -12 -101 -581 -106 -597 -5
-16 2 -18 49 -18 l55 0 12 68 c6 37 30 175 53 307 l43 240 157 3 c138 2 163 0
202 -17 89 -39 103 -95 69 -289 -32 -188 -60 -244 -142 -287 l-47 -24 111 -1
112 0 16 93 c9 50 34 189 55 307 l37 215 222 3 222 2 -6 -42 c-16 -101 -2 -93
-161 -96 l-140 -3 -7 -37 c-12 -76 -18 -72 105 -72 l112 0 -7 -62 c-4 -34 -10
-66 -12 -70 -3 -4 -57 -8 -120 -8 -63 0 -114 -3 -114 -7 -1 -5 -5 -27 -9 -50
l-8 -43 140 0 140 0 -7 -42 c-4 -24 -9 -53 -13 -65 -5 -21 -2 -23 41 -23 41 0
46 2 46 23 0 12 23 148 50 302 27 154 50 283 50 288 0 4 72 7 160 7 177 0 211
-8 249 -56 21 -26 23 -36 18 -99 -8 -98 -23 -140 -64 -186 l-36 -40 35 -117
35 -117 66 -3 66 -3 -35 35 c-32 32 -34 38 -34 100 l0 66 80 0 c77 0 80 -1 80
-23 0 -39 23 -59 73 -64 57 -7 97 15 97 52 0 31 -26 48 -131 85 -91 32 -133
65 -150 118 -24 74 17 177 87 218 74 43 201 56 291 29z m-5392 -155 l52 -155
17 95 c9 52 22 123 28 158 l11 62 79 0 c56 0 78 -4 78 -12 0 -7 -23 -149 -52
-315 l-53 -303 -81 0 -80 0 -54 165 c-29 91 -54 164 -55 163 -1 -2 -15 -76
-30 -165 l-28 -163 -79 0 c-56 0 -78 4 -78 13 0 6 23 148 52 315 l53 303 84
-3 84 -3 52 -155z m-313 -174 l-46 -268 -40 140 -39 139 83 132 c46 72 84 130
86 128 2 -1 -18 -123 -44 -271z m2018 18 c-22 -126 -40 -232 -40 -236 0 -5
-21 -8 -46 -8 -33 0 -45 4 -42 13 3 6 40 117 84 244 43 128 80 229 82 224 2
-5 -15 -112 -38 -237z m3287 21 c15 -27 52 -60 88 -79 30 -16 29 -16 -46 -16
-96 0 -104 -8 -104 -101 0 -37 -3 -65 -7 -61 -4 4 -17 42 -29 84 l-23 76 32
36 c31 36 44 71 59 156 l7 45 6 -60 c4 -33 11 -69 17 -80z m-10487 -321 c0
-13 4 -32 9 -42 30 -56 51 -105 51 -117 0 -8 4 -15 9 -15 5 0 12 -13 16 -30 4
-16 11 -30 16 -30 5 0 9 -7 9 -16 0 -9 6 -28 14 -42 8 -15 62 -124 121 -242
58 -118 126 -251 150 -295 24 -44 54 -99 66 -122 13 -24 26 -43 30 -43 3 0 9
-8 13 -17 8 -23 49 -94 95 -163 21 -30 40 -63 44 -72 3 -10 11 -18 17 -18 5 0
10 -4 10 -10 0 -9 62 -100 106 -155 9 -11 28 -38 42 -60 15 -22 29 -42 32 -45
4 -3 23 -27 44 -55 21 -27 52 -66 69 -85 18 -19 71 -80 119 -135 76 -89 591
-599 623 -617 7 -4 46 -43 86 -85 41 -43 121 -127 179 -188 145 -152 291 -311
337 -366 21 -26 61 -74 88 -106 28 -33 64 -77 80 -98 17 -21 38 -48 47 -59 44
-52 189 -262 216 -312 9 -16 2 -68 -29 -240 -57 -321 -80 -506 -86 -719 -9
-294 21 -538 92 -748 l33 -99 -27 7 c-14 3 -50 10 -80 15 -29 5 -58 13 -64 19
-6 6 -23 11 -37 11 -14 0 -35 7 -46 15 -10 8 -26 15 -35 15 -38 0 -197 97
-259 157 -25 23 -48 43 -52 43 -5 0 -8 8 -8 18 0 10 20 33 44 50 77 56 136
144 136 205 0 40 -33 87 -60 87 -11 0 -34 6 -52 14 -18 8 -51 22 -73 31 -41
16 -48 20 -100 47 -16 9 -37 19 -45 22 -8 4 -28 15 -45 26 -16 11 -37 23 -45
27 -60 28 -280 222 -280 246 0 5 -13 26 -30 47 -16 21 -30 44 -30 52 0 8 -7
29 -16 47 -20 39 -12 61 20 61 14 0 28 5 31 10 3 6 34 10 68 10 51 0 103 11
172 37 6 2 24 12 40 23 17 11 36 23 43 26 24 12 11 24 -79 68 -50 25 -118 64
-151 86 -33 22 -63 40 -66 40 -8 0 -90 68 -151 125 -59 55 -118 131 -143 185
-9 19 -22 48 -29 64 -18 38 -19 230 -1 247 6 7 12 22 12 32 0 26 31 77 47 77
7 0 13 -4 13 -9 0 -6 11 -16 24 -23 45 -24 121 -61 141 -68 11 -4 36 -13 55
-20 47 -17 120 -25 120 -12 0 6 -13 15 -29 20 -16 6 -38 19 -48 29 -10 10 -45
39 -78 64 -33 26 -72 58 -87 72 -15 14 -55 47 -90 73 -86 67 -413 394 -473
474 -27 36 -52 67 -55 70 -8 8 -70 100 -70 105 0 3 -13 24 -30 47 -16 22 -30
47 -30 55 0 7 -4 13 -8 13 -4 0 -14 15 -22 33 -7 17 -15 36 -18 41 -5 9 19 6
143 -19 125 -25 145 -28 145 -19 0 4 -21 39 -48 78 -26 39 -56 88 -67 109 -11
20 -23 37 -27 37 -5 0 -8 9 -8 20 0 11 -7 23 -15 26 -8 4 -15 13 -15 22 0 8
-11 30 -25 48 -14 18 -25 37 -25 43 0 5 -6 16 -12 23 -7 8 -20 27 -29 43 -9
17 -25 46 -35 65 -10 19 -22 37 -26 38 -5 2 -8 10 -8 17 0 8 -6 20 -13 27 -7
7 -18 24 -25 38 -6 14 -25 48 -41 75 -30 50 -59 103 -82 147 -7 13 -16 30 -20
38 -54 100 -219 437 -219 447 0 7 -4 13 -10 13 -5 0 -10 4 -10 10 0 5 -14 40
-31 77 -17 38 -37 84 -45 103 -8 19 -19 43 -24 52 -6 10 -10 23 -10 29 0 6 -6
25 -13 42 -28 65 -46 121 -67 207 -7 25 -16 59 -22 75 -12 34 -23 276 -14 300
8 23 26 9 26 -21z m15337 -116 c-2 -73 -9 -146 -15 -163 -6 -16 -15 -50 -22
-75 -23 -95 -45 -159 -66 -202 -8 -14 -14 -33 -14 -42 0 -9 -4 -24 -10 -34 -5
-9 -16 -35 -25 -57 -9 -22 -21 -47 -26 -55 -10 -16 -11 -20 -38 -87 -9 -24
-19 -43 -23 -43 -5 0 -8 -6 -8 -14 0 -16 -244 -503 -283 -563 -15 -24 -27 -47
-27 -53 0 -6 -13 -29 -30 -52 -16 -22 -30 -47 -30 -55 0 -7 -4 -13 -10 -13 -5
0 -10 -6 -10 -14 0 -8 -6 -21 -13 -28 -7 -7 -18 -24 -25 -38 -6 -14 -26 -47
-42 -75 -16 -27 -33 -57 -37 -65 -3 -8 -17 -29 -30 -46 -13 -17 -23 -36 -23
-41 0 -6 -7 -16 -15 -23 -8 -7 -15 -21 -15 -31 0 -11 -3 -19 -8 -19 -4 0 -18
-20 -32 -45 -14 -25 -28 -45 -32 -45 -5 0 -8 -6 -8 -13 0 -8 -16 -36 -35 -63
-53 -75 -59 -73 110 -39 124 25 148 28 143 19 -22 -47 -35 -71 -45 -82 -7 -7
-13 -18 -13 -23 0 -9 -107 -177 -120 -189 -3 -3 -28 -34 -55 -70 -60 -81 -387
-408 -475 -475 -36 -28 -72 -57 -80 -65 -9 -9 -34 -29 -55 -45 -22 -17 -58
-47 -80 -68 -22 -20 -57 -45 -77 -54 -21 -9 -38 -20 -38 -25 0 -20 81 -6 175
32 11 5 27 11 35 14 8 3 24 11 35 18 39 22 50 28 72 37 11 6 24 15 28 21 10
16 42 -20 51 -57 4 -15 12 -34 18 -42 16 -21 14 -211 -3 -247 -7 -16 -20 -45
-29 -64 -25 -54 -84 -130 -143 -185 -71 -67 -144 -125 -155 -125 -5 0 -21 -10
-35 -22 -23 -21 -47 -36 -124 -75 -16 -9 -37 -20 -45 -24 -8 -5 -34 -17 -57
-28 -24 -11 -43 -23 -43 -26 0 -10 43 -44 56 -45 6 0 17 -7 24 -15 7 -8 24
-15 39 -15 14 -1 37 -7 51 -15 15 -8 53 -14 92 -15 37 0 70 -4 73 -10 3 -5 17
-10 31 -10 32 0 40 -22 20 -61 -9 -18 -16 -38 -16 -45 0 -6 -16 -36 -36 -65
-85 -127 -220 -241 -394 -332 -96 -50 -102 -53 -145 -71 -22 -10 -53 -24 -68
-32 -16 -8 -39 -14 -52 -14 -30 0 -65 -44 -65 -82 0 -16 10 -50 21 -76 23 -49
120 -152 144 -152 9 0 15 -10 15 -25 0 -14 -3 -25 -7 -25 -5 0 -28 -20 -53
-44 -47 -46 -171 -126 -194 -126 -7 0 -19 -7 -26 -15 -7 -8 -22 -15 -34 -15
-11 0 -30 -7 -40 -15 -11 -8 -32 -15 -46 -15 -14 0 -31 -5 -37 -11 -22 -22
-348 -65 -563 -74 l-145 -6 -34 111 c-19 60 -32 112 -30 114 15 13 60 31 94
37 45 8 97 25 137 45 14 8 33 14 42 14 9 0 16 5 16 10 0 6 8 10 19 10 10 0 24
7 31 15 7 8 18 15 24 15 36 0 196 193 196 237 0 10 7 27 15 37 8 11 15 34 15
50 0 17 6 48 13 69 16 44 17 185 2 195 -19 12 -95 134 -102 161 -3 14 -9 31
-12 36 -10 16 -33 147 -33 190 -1 51 21 195 33 217 5 10 9 26 9 36 0 10 7 27
15 38 8 10 15 29 15 40 0 12 7 27 15 34 8 7 15 20 15 30 0 10 7 23 15 30 8 7
15 19 15 27 0 9 18 42 40 75 22 33 40 62 40 63 0 9 155 220 212 290 10 11 34
41 55 66 123 150 235 276 447 499 200 210 249 261 261 268 32 18 547 529 623
617 48 55 97 111 110 125 13 14 63 77 110 140 47 63 88 117 91 120 7 6 78 108
101 145 8 13 36 55 61 92 26 37 55 84 66 103 10 19 34 60 54 90 19 30 38 62
42 70 4 8 11 22 16 30 5 8 12 22 15 30 4 8 20 38 36 65 16 28 77 147 136 265
58 118 112 227 120 242 8 14 14 33 14 42 0 9 4 16 9 16 5 0 12 10 16 23 6 22
43 106 71 160 8 16 14 39 14 51 0 28 10 40 23 27 5 -5 7 -66 4 -143z m-3478
-3445 c7 -21 17 -69 21 -108 14 -115 42 -255 61 -300 21 -51 31 -152 36 -365
3 -147 1 -221 -8 -260 -13 -53 -76 -181 -103 -208 -10 -11 -43 85 -177 515
l-165 528 70 43 c75 47 177 125 215 166 14 14 27 26 30 26 3 0 12 -17 20 -37z
m-691 -2750 c6 -15 12 -34 12 -42 0 -42 129 -206 304 -386 177 -183 187 -193
236 -260 44 -59 51 -70 82 -130 50 -96 63 -233 31 -312 -17 -41 -20 -43 -61
-43 -23 0 -59 7 -79 15 -19 8 -43 15 -53 15 -10 0 -31 7 -46 15 -16 8 -37 15
-47 15 -9 0 -25 4 -35 9 -9 4 -33 15 -52 23 -99 42 -263 129 -280 148 -3 3
-24 17 -46 32 -78 50 -239 195 -293 264 -30 38 -60 74 -66 79 -27 24 -145 218
-187 305 -49 105 -66 147 -78 200 -5 19 -12 45 -15 58 l-7 22 333 0 334 0 13
-27z m1002 15 c53 -65 80 -101 80 -107 0 -5 10 -19 23 -33 12 -13 49 -59 82
-102 125 -164 146 -190 153 -196 10 -6 122 -158 122 -164 0 -3 11 -21 24 -41
32 -47 79 -148 96 -205 15 -53 25 -239 13 -250 -14 -14 -238 21 -257 40 -5 5
-20 10 -32 10 -12 0 -35 6 -51 14 -15 8 -50 25 -78 38 -73 35 -168 88 -186
104 -8 8 -21 14 -27 14 -7 0 -12 5 -12 10 0 6 -4 10 -10 10 -9 0 -126 79 -165
112 -11 9 -42 34 -70 56 -184 147 -209 169 -359 322 -127 128 -196 203 -196
211 0 3 -12 19 -26 35 -14 16 -30 38 -35 49 -5 11 -18 35 -29 53 l-20 32 475
0 c367 0 477 -3 485 -12z m-7614 -104 l231 -7 -10 -31 c-31 -95 -197 -391
-242 -431 -6 -5 -36 -41 -66 -79 -54 -69 -215 -214 -293 -264 -22 -15 -44 -30
-47 -35 -11 -15 -187 -106 -274 -142 -22 -9 -48 -20 -57 -25 -10 -6 -26 -10
-35 -10 -10 0 -31 -7 -47 -15 -15 -8 -36 -15 -46 -15 -10 0 -34 -7 -53 -15
-20 -8 -57 -15 -82 -15 -36 0 -45 3 -45 18 0 9 -7 26 -15 36 -20 27 -20 164 0
213 8 19 15 42 15 49 0 18 72 135 126 204 23 30 111 125 196 211 152 156 234
252 288 340 l28 45 98 -13 c55 -7 203 -15 330 -19z"/>
<path d="M12327 12206 c-3 -8 -9 -43 -13 -77 l-7 -62 54 6 c38 5 59 13 72 28
22 28 22 81 -1 102 -23 21 -98 23 -105 3z"/>
<path d="M13150 12210 c0 -14 -50 -302 -56 -322 -5 -16 2 -18 51 -18 97 0 108
13 135 165 20 116 17 149 -13 170 -24 17 -117 21 -117 5z m98 -32 c16 -16 15
-46 -4 -152 -18 -99 -37 -126 -84 -126 -26 0 -30 3 -25 23 7 32 45 249 45 259
0 12 55 9 68 -4z"/>
<path d="M14247 12198 c-3 -13 -9 -47 -13 -77 l-7 -54 54 6 c63 8 89 32 89 82
0 46 -22 65 -75 65 -36 0 -44 -3 -48 -22z"/>
<path d="M8337 12035 c-3 -11 -15 -75 -27 -142 -11 -67 -23 -129 -26 -138 -5
-13 6 -15 78 -15 l85 0 -47 143 c-26 78 -49 149 -52 157 -4 12 -6 11 -11 -5z"/>
<path d="M11507 12040 c-7 -20 -55 -294 -52 -298 1 -2 38 -2 81 0 l79 3 -51
155 c-28 85 -54 148 -57 140z"/>
<path d="M8915 11938 c-8 -34 -35 -182 -35 -190 0 -5 37 -8 83 -8 l83 0 -30
110 -31 110 -32 0 c-26 0 -34 -5 -38 -22z"/>
<path d="M12286 11948 c-2 -7 -9 -47 -16 -88 -6 -41 -13 -85 -17 -97 -5 -22
-3 -23 77 -23 74 0 81 2 75 18 -3 9 -20 59 -36 110 -27 83 -32 92 -55 92 -13
0 -26 -6 -28 -12z"/>
<path d="M14206 11938 c-3 -13 -10 -54 -16 -93 -6 -38 -13 -78 -16 -87 -5 -16
3 -18 75 -18 45 0 81 1 81 3 0 1 -15 49 -34 107 -30 95 -36 105 -59 108 -21 3
-27 -2 -31 -20z"/>
<path d="M13715 10358 c-9 -42 -215 -1438 -215 -1459 0 -20 3 -20 418 -16 391
3 422 5 502 26 223 58 365 172 456 368 70 148 98 355 75 552 -29 245 -119 404
-277 488 -110 59 -148 63 -571 63 l-383 0 -5 -22z m836 -66 c221 -73 324 -243
336 -557 9 -227 -32 -383 -138 -534 -101 -144 -260 -224 -501 -251 -46 -6
-217 -10 -381 -10 l-297 0 5 23 c3 12 48 312 100 667 52 355 98 655 101 668
l5 24 352 -4 c329 -4 356 -6 418 -26z"/>
<path d="M10082 12382 c-126 -45 -170 -116 -209 -337 -38 -218 -22 -283 82
-335 43 -21 63 -25 145 -24 115 0 179 24 238 88 51 55 75 121 102 284 32 194
16 259 -80 312 -62 33 -200 39 -278 12z m224 -27 c79 -23 115 -74 115 -159 0
-84 -39 -285 -67 -344 -45 -92 -123 -132 -258 -132 -130 1 -189 38 -206 131
-10 56 32 305 64 374 13 29 40 65 60 81 71 58 194 78 292 49z"/>
<path d="M10143 12220 c-12 -5 -29 -20 -37 -33 -16 -23 -56 -216 -56 -269 0
-37 25 -58 70 -58 52 0 68 8 86 41 14 29 54 222 54 267 0 48 -59 75 -117 52z
m72 -36 c8 -9 14 -24 11 -33 -2 -9 -12 -63 -22 -120 -12 -69 -24 -111 -36
-123 -19 -19 -73 -25 -83 -8 -7 12 32 235 46 262 9 17 39 35 61 37 4 1 14 -6
23 -15z"/>
</g>
</svg>
