<svg width="512" height="512" xmlns="http://www.w3.org/2000/svg" stroke="null" style="vector-effect: non-scaling-stroke;" preserveAspectRatio="xMidYMid meet">
 <metadata stroke="null" style="vector-effect: non-scaling-stroke;">Created by potrace 1.15, written by Peter Selinger 2001-2017</metadata>

 <g stroke="null">
  <title stroke="null">background</title>
  <rect stroke="null" fill="none" height="512" width="512" y="-1" x="-1"/>
 </g>
 <g stroke="null">
  <title stroke="null">Layer 1</title>
  <g fill="#000000" transform="translate(0,1772) scale(0.10000000149011612,-0.10000000149011612) ">
   <path stroke="null" d="m2693.414136,15940.787151c-0.797554,-2.255162 -2.392663,-12.121494 -3.456069,-21.705932l-1.86096,-17.477503l14.355978,1.691371c10.102355,1.409476 15.685235,3.664638 19.141303,7.893066c5.848732,7.893066 5.848732,22.833513 -0.265851,28.753312c-6.114583,5.9198 -26.053441,6.48359 -27.914401,0.845686z"/>
   <path stroke="null" d="m2912.209869,15941.914732c0,-3.946533 -13.292572,-85.132355 -14.88768,-90.77026c-1.329257,-4.510323 0.531703,-5.074114 13.558423,-5.074114c25.787589,0 28.711955,3.664638 35.889944,46.512711c5.317029,32.699845 4.519474,42.002387 -3.456069,47.922187c-6.380434,4.792219 -31.104618,5.9198 -31.104618,1.409476zm26.053441,-9.020647c4.253623,-4.510323 3.987772,-12.96718 -1.063406,-42.848073c-4.785326,-27.907626 -9.836503,-35.518797 -22.331521,-35.518797c-6.912137,0 -7.975543,0.845686 -6.646286,6.48359c1.86096,9.020647 11.963315,70.191909 11.963315,73.010861c0,3.382743 14.621829,2.537057 18.077898,-1.127581z"/>
   <path stroke="null" d="m3203.848895,15938.53199c-0.797554,-3.664638 -2.392663,-13.249075 -3.456069,-21.705932l-1.86096,-15.222342l14.355978,1.691371c16.748641,2.255162 23.660778,9.020647 23.660778,23.115408c0,12.96718 -5.848732,18.323189 -19.938858,18.323189c-9.570652,0 -11.697463,-0.845686 -12.760869,-6.201695z"/>
   <path stroke="null" d="m1632.666902,15892.583069c-0.797554,-3.100847 -3.987772,-21.142141 -7.177989,-40.029121c-2.924366,-18.886979 -6.114583,-36.364483 -6.912137,-38.90154c-1.329257,-3.664638 1.595109,-4.228428 20.736412,-4.228428l22.597372,0l-12.495018,40.311016c-6.912137,21.987827 -13.02672,42.002387 -13.824275,44.257549c-1.063406,3.382743 -1.595109,3.100847 -2.924366,-1.409476z"/>
   <path stroke="null" d="m2475.415958,15893.992545c-1.86096,-5.637904 -14.621829,-82.877194 -13.824275,-84.004774c0.265851,-0.56379 10.102355,-0.56379 21.533966,0l21.002264,0.845686l-13.558423,43.693759c-7.44384,23.961093 -14.355978,41.720492 -15.153532,39.46533z"/>
   <path stroke="null" d="m1786.329033,15865.239233c-2.126811,-9.584437 -9.3048,-51.304929 -9.3048,-53.560091c0,-1.409476 9.836503,-2.255162 22.065669,-2.255162l22.065669,0l-7.975543,31.008474l-8.241395,31.008474l-8.507246,0c-6.912137,0 -9.038949,-1.409476 -10.102355,-6.201695z"/>
   <path stroke="null" d="m2682.514227,15868.058186c-0.531703,-1.973267 -2.392663,-13.249075 -4.253623,-24.806779c-1.595109,-11.557704 -3.456069,-23.961093 -4.519474,-27.343836c-1.329257,-6.201695 -0.797554,-6.48359 20.470561,-6.48359c19.673006,0 21.533966,0.56379 19.938858,5.074114c-0.797554,2.537057 -5.317029,16.631818 -9.570652,31.008474c-7.177989,23.397303 -8.507246,25.93436 -14.621829,25.93436c-3.456069,0 -6.912137,-1.691371 -7.44384,-3.382743z"/>
   <path stroke="null" d="m3192.948987,15865.239233c-0.797554,-3.664638 -2.658514,-15.222342 -4.253623,-26.216255c-1.595109,-10.712018 -3.456069,-21.987827 -4.253623,-24.524884c-1.329257,-4.510323 0.797554,-5.074114 19.938858,-5.074114c11.963315,0 21.533966,0.281895 21.533966,0.845686c0,0.281895 -3.987772,13.812866 -9.038949,30.162788c-7.975543,26.780046 -9.570652,29.598998 -15.685235,30.444683c-5.58288,0.845686 -7.177989,-0.56379 -8.241395,-5.637904z"/>
   <path stroke="null" d="m3062.415931,15419.844792c-2.392663,-11.839599 -57.158059,-405.365321 -57.158059,-411.28512c0,-5.637904 0.797554,-5.637904 111.125901,-4.510323c103.947912,0.845686 112.189306,1.409476 133.457421,7.329276c59.28487,16.349923 97.035775,48.485977 121.228255,103.73744c18.609601,41.720492 26.053441,100.072802 19.938858,155.606159c-7.709692,69.064328 -31.636321,113.885667 -73.640848,137.564865c-29.243658,16.631818 -39.346013,17.759399 -151.801171,17.759399l-101.8211,0l-1.329257,-6.201695zm222.251801,-18.605084c58.753168,-20.578351 86.135866,-68.500538 89.326083,-157.015635c2.392663,-63.990214 -8.507246,-107.965868 -36.687498,-150.532045c-26.850995,-40.592911 -69.121374,-63.144528 -133.19157,-70.755699c-12.229166,-1.691371 -57.689762,-2.818952 -101.289398,-2.818952l-78.957877,0l1.329257,6.48359c0.797554,3.382743 12.760869,87.951307 26.585144,188.024109c13.824275,100.072802 26.053441,184.641367 26.850995,188.306004l1.329257,6.765485l93.579706,-1.127581c87.465123,-1.127581 94.643112,-1.691371 111.125901,-7.329276z"/>
   <path stroke="null" d="m2096.57766,15990.400709c-33.497281,-12.685285 -45.194744,-32.699845 -55.56295,-94.998688c-10.102355,-61.453157 -5.848732,-79.776346 21.799818,-94.434897c11.431612,-5.9198 16.748641,-7.04738 38.548458,-6.765485c30.572915,0 47.587407,6.765485 63.272642,24.806779c13.558423,15.504237 19.938858,34.109321 27.116847,80.058241c8.507246,54.687672 4.253623,73.010861 -21.268115,87.951307c-16.482789,9.302542 -53.170287,10.993913 -73.9067,3.382743zm59.550722,-7.611171c21.002264,-6.48359 30.572915,-20.860246 30.572915,-44.821339c0,-23.679198 -10.368206,-80.340137 -17.812046,-96.971954c-11.963315,-25.93436 -32.699727,-37.210169 -68.589671,-37.210169c-34.560687,0.281895 -50.245922,10.712018 -54.765396,36.928273c-2.658514,15.786132 8.507246,85.978041 17.014492,105.428811c3.456069,8.174961 10.634057,18.323189 15.951086,22.833513c18.875452,16.349923 51.575179,21.987827 77.62862,13.812866z"/>
   <path stroke="null" d="m2112.794598,15944.733684c-3.190217,-1.409476 -7.709692,-5.637904 -9.836503,-9.302542c-4.253623,-6.48359 -14.88768,-60.889367 -14.88768,-75.829813c0,-10.430123 6.646286,-16.349923 18.609601,-16.349923c13.824275,0 18.077898,2.255162 22.863224,11.557704c3.72192,8.174961 14.355978,62.580738 14.355978,75.266023c0,13.53097 -15.685235,21.142141 -31.104618,14.658551zm19.141303,-10.148228c2.126811,-2.537057 3.72192,-6.765485 2.924366,-9.302542c-0.531703,-2.537057 -3.190217,-17.759399 -5.848732,-33.827426c-3.190217,-19.45077 -6.380434,-31.290369 -9.570652,-34.673112c-5.051177,-5.356009 -19.407155,-7.04738 -22.065669,-2.255162c-1.86096,3.382743 8.507246,66.245376 12.229166,73.856547c2.392663,4.792219 10.368206,9.866333 16.216938,10.430123c1.063406,0.281895 3.72192,-1.691371 6.114583,-4.228428z"/>
  </g>
 </g>
</svg>